<?xml version="1.0" encoding="UTF-8"?>
<!DOCTYPE svg PUBLIC "-//W3C//DTD SVG 1.1//EN" "http://www.w3.org/Graphics/SVG/1.1/DTD/svg11.dtd">
<svg xmlns="http://www.w3.org/2000/svg" version="1.1" width="150px" height="150px" style="shape-rendering:geometricPrecision; text-rendering:geometricPrecision; image-rendering:optimizeQuality; fill-rule:evenodd; clip-rule:evenodd" xmlns:xlink="http://www.w3.org/1999/xlink">
<g><path style="opacity:0.72" fill="#070708" d="M 70.5,26.5 C 84.2575,26.2575 92.2575,32.9241 94.5,46.5C 93.9034,51.1288 92.2368,55.2954 89.5,59C 94.7525,59.6117 98.0858,62.2784 99.5,67C 99.6464,69.0342 98.9797,70.7009 97.5,72C 94.361,73.7275 91.0277,74.8942 87.5,75.5C 87.5777,85.2396 90.411,94.2396 96,102.5C 98.9687,105.954 102.802,107.454 107.5,107C 114.312,110.29 115.979,115.29 112.5,122C 113,122.5 113.5,123 114,123.5C 114.667,126.833 114.667,130.167 114,133.5C 112.786,135.049 111.286,136.215 109.5,137C 85.8333,137.667 62.1667,137.667 38.5,137C 34.9158,135.336 33.2492,132.503 33.5,128.5C 33.4424,125.953 34.1091,123.62 35.5,121.5C 32.6501,116.203 33.6501,111.703 38.5,108C 42.342,107.044 46.1754,106.21 50,105.5C 56.5922,96.5689 60.7588,86.5689 62.5,75.5C 55.7254,75.9533 51.0587,73.1199 48.5,67C 50.2296,62.4528 53.563,59.7861 58.5,59C 50.7788,43.6515 54.7788,32.8181 70.5,26.5 Z"/></g>
<g><path style="opacity:0.906" fill="#92969a" d="M 59.5,53.5 C 55.6191,43.8107 58.2858,36.4774 67.5,31.5C 69.9491,30.9426 72.2825,30.9426 74.5,31.5C 72.517,33.9837 70.3504,36.3171 68,38.5C 67.1634,40.8383 66.3301,43.1716 65.5,45.5C 67.7938,51.4469 65.7938,54.1136 59.5,53.5 Z"/></g>
<g><path style="opacity:0.886" fill="#797f83" d="M 78.5,30.5 C 79.1667,31.8333 79.8333,33.1667 80.5,34.5C 82.8133,49.1918 76.48,56.5252 61.5,56.5C 60.5987,55.7095 59.9321,54.7095 59.5,53.5C 65.7938,54.1136 67.7938,51.4469 65.5,45.5C 66.3301,43.1716 67.1634,40.8383 68,38.5C 70.3504,36.3171 72.517,33.9837 74.5,31.5C 72.2825,30.9426 69.9491,30.9426 67.5,31.5C 70.9029,29.3279 74.5695,28.9946 78.5,30.5 Z"/></g>
<g><path style="opacity:0.872" fill="#32383d" d="M 86.5,36.5 C 92.233,44.6951 91.5663,52.5285 84.5,60C 77.6536,60.8206 70.987,60.654 64.5,59.5C 66.5,59.5 68.5,59.5 70.5,59.5C 73.5184,59.6646 76.5184,59.498 79.5,59C 79.1667,58.6667 78.8333,58.3333 78.5,58C 84.8932,52.2856 87.5598,45.1189 86.5,36.5 Z"/></g>
<g><path style="opacity:0.878" fill="#60676b" d="M 80.5,34.5 C 81.7498,34.5774 82.5831,35.244 83,36.5C 83.9369,41.4033 83.2702,46.0699 81,50.5C 77.8967,54.114 74.3967,57.114 70.5,59.5C 68.5,59.5 66.5,59.5 64.5,59.5C 63.1667,58.8333 62.1667,57.8333 61.5,56.5C 76.48,56.5252 82.8133,49.1918 80.5,34.5 Z"/></g>
<g><path style="opacity:0.875" fill="#4e5459" d="M 78.5,30.5 C 81.9607,31.5512 84.6273,33.5512 86.5,36.5C 87.5598,45.1189 84.8932,52.2856 78.5,58C 78.8333,58.3333 79.1667,58.6667 79.5,59C 76.5184,59.498 73.5184,59.6646 70.5,59.5C 74.3967,57.114 77.8967,54.114 81,50.5C 83.2702,46.0699 83.9369,41.4033 83,36.5C 82.5831,35.244 81.7498,34.5774 80.5,34.5C 79.8333,33.1667 79.1667,31.8333 78.5,30.5 Z"/></g>
<g><path style="opacity:0.898" fill="#898e91" d="M 87.5,62.5 C 79.2245,64.3092 70.5579,65.1425 61.5,65C 59.2202,67.3037 56.5536,68.8037 53.5,69.5C 51.8637,66.2677 52.8637,64.101 56.5,63C 66.828,62.5002 77.1613,62.3335 87.5,62.5 Z"/></g>
<g><path style="opacity:0.873" fill="#353b40" d="M 89.5,62.5 C 91.8398,63.086 94.0065,64.086 96,65.5C 96.7112,67.3668 96.2112,68.8668 94.5,70C 82.0423,71.7357 69.7089,71.9023 57.5,70.5C 63.3243,68.9592 69.3243,67.4592 75.5,66C 80.6141,65.8909 85.6141,65.2242 90.5,64C 89.944,63.6174 89.6107,63.1174 89.5,62.5 Z"/></g>
<g><path style="opacity:0.859" fill="#4e555b" d="M 87.5,62.5 C 88.1667,62.5 88.8333,62.5 89.5,62.5C 89.6107,63.1174 89.944,63.6174 90.5,64C 85.6141,65.2242 80.6141,65.8909 75.5,66C 69.3243,67.4592 63.3243,68.9592 57.5,70.5C 55.901,70.7678 54.5676,70.4345 53.5,69.5C 56.5536,68.8037 59.2202,67.3037 61.5,65C 70.5579,65.1425 79.2245,64.3092 87.5,62.5 Z"/></g>
<g><path style="opacity:0.882" fill="#30363b" d="M 75.5,74.5 C 77.924,74.1924 80.2573,74.5258 82.5,75.5C 84.0175,87.2334 88.3509,97.7334 95.5,107C 89.1754,107.5 82.8421,107.666 76.5,107.5C 76.9234,106.735 77.2568,105.902 77.5,105C 75.9072,94.9064 75.2405,84.7398 75.5,74.5 Z"/></g>
<g><path style="opacity:0.914" fill="#969a9e" d="M 65.5,77.5 C 67.7099,77.894 69.0432,79.2273 69.5,81.5C 68.6341,88.298 67.1341,94.9646 65,101.5C 63.5,103 62,104.5 60.5,106C 58.2884,106.789 56.2884,106.622 54.5,105.5C 60.1276,96.9528 63.7943,87.6195 65.5,77.5 Z"/></g>
<g><path style="opacity:0.855" fill="#454c52" d="M 70.5,74.5 C 72.1667,74.5 73.8333,74.5 75.5,74.5C 75.2405,84.7398 75.9072,94.9064 77.5,105C 77.2568,105.902 76.9234,106.735 76.5,107.5C 73.8333,107.5 71.1667,107.5 68.5,107.5C 70.1542,104.372 71.3208,101.039 72,97.5C 72.6667,90.5 72.6667,83.5 72,76.5C 71.2828,75.9558 70.7828,75.2891 70.5,74.5 Z"/></g>
<g><path style="opacity:0.882" fill="#676d72" d="M 70.5,74.5 C 70.7828,75.2891 71.2828,75.9558 72,76.5C 72.6667,83.5 72.6667,90.5 72,97.5C 71.3208,101.039 70.1542,104.372 68.5,107.5C 67.8333,107.5 67.1667,107.5 66.5,107.5C 69.4428,99.402 70.9428,91.0687 71,82.5C 70.6174,81.944 70.1174,81.6107 69.5,81.5C 69.0432,79.2273 67.7099,77.894 65.5,77.5C 65.5,76.5 65.5,75.5 65.5,74.5C 67.1667,74.5 68.8333,74.5 70.5,74.5 Z"/></g>
<g><path style="opacity:0.902" fill="#84898d" d="M 69.5,81.5 C 70.1174,81.6107 70.6174,81.944 71,82.5C 70.9428,91.0687 69.4428,99.402 66.5,107.5C 61.8215,107.666 57.1548,107.499 52.5,107C 53.0442,106.283 53.7109,105.783 54.5,105.5C 56.2884,106.622 58.2884,106.789 60.5,106C 62,104.5 63.5,103 65,101.5C 67.1341,94.9646 68.6341,88.298 69.5,81.5 Z"/></g>
<g><path style="opacity:0.922" fill="#9ea2a6" d="M 57.5,110.5 C 53.8183,111.261 49.985,111.928 46,112.5C 44.1896,114.067 43.023,116.067 42.5,118.5C 41.3112,119.429 39.9778,119.762 38.5,119.5C 36.8076,116.131 37.4743,113.298 40.5,111C 46.1569,110.501 51.8236,110.334 57.5,110.5 Z"/></g>
<g><path style="opacity:0.882" fill="#70767a" d="M 57.5,110.5 C 66.5,110.5 75.5,110.5 84.5,110.5C 76.0097,111.33 67.343,111.83 58.5,112C 57.8333,113 57.1667,114 56.5,115C 52.9862,116.629 49.3195,117.795 45.5,118.5C 44.2867,118.747 43.62,119.414 43.5,120.5C 41.5853,120.784 39.9187,120.451 38.5,119.5C 39.9778,119.762 41.3112,119.429 42.5,118.5C 43.023,116.067 44.1896,114.067 46,112.5C 49.985,111.928 53.8183,111.261 57.5,110.5 Z"/></g>
<g><path style="opacity:0.855" fill="#42494f" d="M 84.5,110.5 C 91.8333,110.5 99.1667,110.5 106.5,110.5C 100.681,111.328 94.6807,111.828 88.5,112C 80.1946,116.399 71.5279,119.233 62.5,120.5C 56.1667,120.5 49.8333,120.5 43.5,120.5C 43.62,119.414 44.2867,118.747 45.5,118.5C 49.3195,117.795 52.9862,116.629 56.5,115C 57.1667,114 57.8333,113 58.5,112C 67.343,111.83 76.0097,111.33 84.5,110.5 Z"/></g>
<g><path style="opacity:0.882" fill="#2f353a" d="M 106.5,110.5 C 111.409,112.476 112.409,115.643 109.5,120C 93.8369,120.5 78.1702,120.667 62.5,120.5C 71.5279,119.233 80.1946,116.399 88.5,112C 94.6807,111.828 100.681,111.328 106.5,110.5 Z"/></g>
<g><path style="opacity:0.882" fill="#656c70" d="M 92.5,123.5 C 92.38,124.586 91.7133,125.253 90.5,125.5C 80.4325,126.774 70.0992,127.607 59.5,128C 55.4704,128.339 52.4704,130.173 50.5,133.5C 46.2984,133.817 42.2984,133.483 38.5,132.5C 37.1834,129.77 37.1834,126.937 38.5,124C 56.4969,123.5 74.4969,123.333 92.5,123.5 Z"/></g>
<g><path style="opacity:0.902" fill="#909498" d="M 38.5,132.5 C 38.5,130.167 38.5,127.833 38.5,125.5C 42.8461,125.334 47.1794,125.501 51.5,126C 48.1412,130.209 43.8079,132.376 38.5,132.5 Z"/></g>
<g><path style="opacity:0.89" fill="#2e3439" d="M 109.5,124.5 C 112.145,127.217 112.145,130.05 109.5,133C 91.8365,133.5 74.1698,133.667 56.5,133.5C 66.3414,132.833 76.3414,132.167 86.5,131.5C 88.9909,129.588 91.6575,128.254 94.5,127.5C 99.7486,127.141 104.749,126.141 109.5,124.5 Z"/></g>
<g><path style="opacity:0.902" fill="#4c5258" d="M 92.5,123.5 C 98.358,123.178 104.025,123.511 109.5,124.5C 104.749,126.141 99.7486,127.141 94.5,127.5C 85.9256,127.876 77.4256,128.543 69,129.5C 67.6569,128.786 66.3236,129.12 65,130.5C 60.6868,128.644 56.8535,129.644 53.5,133.5C 52.5,133.5 51.5,133.5 50.5,133.5C 52.4704,130.173 55.4704,128.339 59.5,128C 70.0992,127.607 80.4325,126.774 90.5,125.5C 91.7133,125.253 92.38,124.586 92.5,123.5 Z"/></g>
<g><path style="opacity:0.855" fill="#3e464b" d="M 94.5,127.5 C 91.6575,128.254 88.9909,129.588 86.5,131.5C 76.3414,132.167 66.3414,132.833 56.5,133.5C 55.5,133.5 54.5,133.5 53.5,133.5C 56.8535,129.644 60.6868,128.644 65,130.5C 66.3236,129.12 67.6569,128.786 69,129.5C 77.4256,128.543 85.9256,127.876 94.5,127.5 Z"/></g>
</svg>
