<?xml version="1.0" encoding="UTF-8"?>
<!DOCTYPE svg PUBLIC "-//W3C//DTD SVG 1.1//EN" "http://www.w3.org/Graphics/SVG/1.1/DTD/svg11.dtd">
<svg xmlns="http://www.w3.org/2000/svg" version="1.1" width="150px" height="150px" style="shape-rendering:geometricPrecision; text-rendering:geometricPrecision; image-rendering:optimizeQuality; fill-rule:evenodd; clip-rule:evenodd" xmlns:xlink="http://www.w3.org/1999/xlink">
<g><path style="opacity:0.736" fill="#040405" d="M 29.5,26.5 C 37.1667,26.5 44.8333,26.5 52.5,26.5C 52.5,29.8333 52.5,33.1667 52.5,36.5C 55.8333,36.5 59.1667,36.5 62.5,36.5C 61.7178,27.7235 65.7178,24.3902 74.5,26.5C 83.268,24.3916 87.268,27.725 86.5,36.5C 89.5,36.5 92.5,36.5 95.5,36.5C 95.2161,33.2234 95.5495,30.0567 96.5,27C 100.333,26.8333 104.167,26.6667 108,26.5C 112.26,26.5395 116.26,27.2061 120,28.5C 120.667,35.5 120.667,42.5 120,49.5C 116.333,53.1667 112.667,56.8333 109,60.5C 108.333,74.8333 108.333,89.1667 109,103.5C 110.262,105.303 111.929,106.636 114,107.5C 114.667,110.833 115.333,114.167 116,117.5C 119.3,118.626 122.634,119.626 126,120.5C 126.667,125.833 126.667,131.167 126,136.5C 91.9048,137.662 57.7381,137.829 23.5,137C 23,136.5 22.5,136 22,135.5C 21.3333,130.833 21.3333,126.167 22,121.5C 25.4125,119.56 29.0792,118.227 33,117.5C 33.4517,114.123 34.1184,110.789 35,107.5C 37.3333,106.5 39,104.833 40,102.5C 40.6667,88.8333 40.6667,75.1667 40,61.5C 36.3333,57.8333 32.6667,54.1667 29,50.5C 28.2004,42.4211 28.3671,34.4211 29.5,26.5 Z"/></g>
<g><path style="opacity:0.918" fill="#94989c" d="M 32.5,30.5 C 37.3633,30.1805 42.03,30.5139 46.5,31.5C 43.6572,32.1717 41.1572,33.505 39,35.5C 37.7758,40.3859 37.1091,45.3859 37,50.5C 36.6174,51.056 36.1174,51.3893 35.5,51.5C 34.2058,50.7101 33.0391,49.7101 32,48.5C 31.1808,42.3188 31.3475,36.3188 32.5,30.5 Z"/></g>
<g><path style="opacity:0.875" fill="#666d72" d="M 32.5,30.5 C 37.9753,29.5111 43.642,29.1778 49.5,29.5C 49.5,32.8333 49.5,36.1667 49.5,39.5C 51.2646,40.4614 53.2646,40.7947 55.5,40.5C 53.7996,44.6464 53.1329,48.4797 53.5,52C 54.6011,54.4721 55.6011,56.9721 56.5,59.5C 53.5,59.5 50.5,59.5 47.5,59.5C 45.5853,59.7845 43.9187,59.4511 42.5,58.5C 45.1873,58.6641 47.854,58.4974 50.5,58C 48.5,55.9202 46.5,53.9202 44.5,52C 47.1667,51.3333 47.1667,50.6667 44.5,50C 46.8907,47.2666 46.8907,44.5999 44.5,42C 46.4337,39.7287 46.4337,37.7287 44.5,36C 45.1667,34.6667 46.1667,33.6667 47.5,33C 46.944,32.6174 46.6107,32.1174 46.5,31.5C 42.03,30.5139 37.3633,30.1805 32.5,30.5 Z"/></g>
<g><path style="opacity:0.898" fill="#7f8488" d="M 66.5,30.5 C 68.924,30.1924 71.2573,30.5258 73.5,31.5C 72.4916,34.1952 71.4916,36.8619 70.5,39.5C 68.5648,40.1495 66.5648,40.4828 64.5,40.5C 63.8333,40.5 63.5,40.1667 63.5,39.5C 64.9459,36.7458 65.9459,33.7458 66.5,30.5 Z"/></g>
<g><path style="opacity:0.843" fill="#3c444a" d="M 66.5,30.5 C 71.3158,29.3503 76.3158,29.1837 81.5,30C 82.3366,31.0113 82.67,32.1779 82.5,33.5C 80.4124,38.1176 77.2457,42.1176 73,45.5C 71.2257,48.7148 69.7257,52.0482 68.5,55.5C 69.1799,56.8599 69.8466,58.1932 70.5,59.5C 68.901,59.2322 67.5676,59.5655 66.5,60.5C 59.9779,60.8235 53.6446,60.4902 47.5,59.5C 50.5,59.5 53.5,59.5 56.5,59.5C 58.5,59.5 60.5,59.5 62.5,59.5C 63.5,59.5 64.5,59.5 65.5,59.5C 65.6886,55.6518 65.6886,51.9851 65.5,48.5C 67.4325,45.6339 69.0991,42.6339 70.5,39.5C 71.4916,36.8619 72.4916,34.1952 73.5,31.5C 71.2573,30.5258 68.924,30.1924 66.5,30.5 Z"/></g>
<g><path style="opacity:0.914" fill="#6b6f73" d="M 101.5,39.5 C 100.508,39.6716 99.8417,39.3382 99.5,38.5C 99.5,35.8333 99.5,33.1667 99.5,30.5C 101.527,30.3379 103.527,30.5045 105.5,31C 104.236,33.9576 102.902,36.7909 101.5,39.5 Z"/></g>
<g><path style="opacity:0.886" fill="#282d32" d="M 66.5,60.5 C 67.5676,59.5655 68.901,59.2322 70.5,59.5C 73.1873,59.6641 75.854,59.4974 78.5,59C 77.8333,57.6667 77.1667,56.3333 76.5,55C 77.8333,54 79.1667,53 80.5,52C 79.7417,50.6361 80.2417,49.4695 82,48.5C 82.3333,48.8333 82.6667,49.1667 83,49.5C 84.3109,46.9139 85.8109,44.4139 87.5,42C 92.3893,41.646 97.056,40.8127 101.5,39.5C 102.902,36.7909 104.236,33.9576 105.5,31C 103.527,30.5045 101.527,30.3379 99.5,30.5C 99.5,33.1667 99.5,35.8333 99.5,38.5C 99.1667,38.5 98.8333,38.5 98.5,38.5C 98.5,35.5 98.5,32.5 98.5,29.5C 104.5,29.5 110.5,29.5 116.5,29.5C 116.666,36.175 116.5,42.8417 116,49.5C 112.833,52.6667 109.667,55.8333 106.5,59C 93.2014,60.3054 79.868,60.8054 66.5,60.5 Z"/></g>
<g><path style="opacity:0.878" fill="#70767b" d="M 46.5,31.5 C 46.6107,32.1174 46.944,32.6174 47.5,33C 46.1667,33.6667 45.1667,34.6667 44.5,36C 46.4337,37.7287 46.4337,39.7287 44.5,42C 46.8907,44.5999 46.8907,47.2666 44.5,50C 47.1667,50.6667 47.1667,51.3333 44.5,52C 46.5,53.9202 48.5,55.9202 50.5,58C 47.854,58.4974 45.1873,58.6641 42.5,58.5C 39.8333,56.5 37.5,54.1667 35.5,51.5C 36.1174,51.3893 36.6174,51.056 37,50.5C 37.1091,45.3859 37.7758,40.3859 39,35.5C 41.1572,33.505 43.6572,32.1717 46.5,31.5 Z"/></g>
<g><path style="opacity:0.857" fill="#353c41" d="M 82.5,33.5 C 83.3058,34.9972 83.9724,36.6639 84.5,38.5C 89.3181,39.8124 93.9848,39.8124 98.5,38.5C 98.8333,38.5 99.1667,38.5 99.5,38.5C 99.8417,39.3382 100.508,39.6716 101.5,39.5C 97.056,40.8127 92.3893,41.646 87.5,42C 85.8109,44.4139 84.3109,46.9139 83,49.5C 82.6667,49.1667 82.3333,48.8333 82,48.5C 80.2417,49.4695 79.7417,50.6361 80.5,52C 79.1667,53 77.8333,54 76.5,55C 77.1667,56.3333 77.8333,57.6667 78.5,59C 75.854,59.4974 73.1873,59.6641 70.5,59.5C 69.8466,58.1932 69.1799,56.8599 68.5,55.5C 69.7257,52.0482 71.2257,48.7148 73,45.5C 77.2457,42.1176 80.4124,38.1176 82.5,33.5 Z"/></g>
<g><path style="opacity:0.859" fill="#495056" d="M 70.5,39.5 C 69.0991,42.6339 67.4325,45.6339 65.5,48.5C 65.6886,51.9851 65.6886,55.6518 65.5,59.5C 64.5,59.5 63.5,59.5 62.5,59.5C 57.9083,52.9005 58.5749,46.5672 64.5,40.5C 66.5648,40.4828 68.5648,40.1495 70.5,39.5 Z"/></g>
<g><path style="opacity:0.863" fill="#565d62" d="M 49.5,39.5 C 54.1667,39.5 58.8333,39.5 63.5,39.5C 63.5,40.1667 63.8333,40.5 64.5,40.5C 58.5749,46.5672 57.9083,52.9005 62.5,59.5C 60.5,59.5 58.5,59.5 56.5,59.5C 55.6011,56.9721 54.6011,54.4721 53.5,52C 53.1329,48.4797 53.7996,44.6464 55.5,40.5C 53.2646,40.7947 51.2646,40.4614 49.5,39.5 Z"/></g>
<g><path style="opacity:0.914" fill="#9a9ea2" d="M 50.5,62.5 C 50.5,62.8333 50.5,63.1667 50.5,63.5C 49.3457,70.4087 49.3457,77.5753 50.5,85C 48.437,91.6958 46.1036,98.1958 43.5,104.5C 43.5,90.5 43.5,76.5 43.5,62.5C 45.8333,62.5 48.1667,62.5 50.5,62.5 Z"/></g>
<g><path style="opacity:0.878" fill="#6b7176" d="M 50.5,63.5 C 50.5,63.1667 50.5,62.8333 50.5,62.5C 51.8333,62.5 53.1667,62.5 54.5,62.5C 56.2646,63.4614 58.2646,63.7947 60.5,63.5C 59.5707,64.3149 58.5707,65.1482 57.5,66C 58.8191,76.772 58.8191,87.6053 57.5,98.5C 53.3932,99.3754 52.7265,101.209 55.5,104C 54.2625,104.232 53.2625,104.732 52.5,105.5C 50.1667,105.5 47.8333,105.5 45.5,105.5C 47.0894,103.694 49.0894,102.361 51.5,101.5C 54.1119,92.9254 54.9452,83.9254 54,74.5C 53.342,70.555 52.1753,66.8884 50.5,63.5 Z"/></g>
<g><path style="opacity:0.863" fill="#565d62" d="M 60.5,63.5 C 62.1667,63.5 63.8333,63.5 65.5,63.5C 65.2606,65.4672 65.5939,67.3005 66.5,69C 65.8742,69.7504 65.3742,70.5838 65,71.5C 64.5418,78.1753 63.7084,84.5086 62.5,90.5C 63.1095,94.4856 63.6095,98.4856 64,102.5C 64.9947,103.066 65.828,103.733 66.5,104.5C 63.2869,104.19 60.2869,104.523 57.5,105.5C 55.8333,105.5 54.1667,105.5 52.5,105.5C 53.2625,104.732 54.2625,104.232 55.5,104C 52.7265,101.209 53.3932,99.3754 57.5,98.5C 58.8191,87.6053 58.8191,76.772 57.5,66C 58.5707,65.1482 59.5707,64.3149 60.5,63.5 Z"/></g>
<g><path style="opacity:0.857" fill="#333a3f" d="M 75.5,63.5 C 81.5092,63.3338 87.5092,63.5005 93.5,64C 92.9781,64.5613 92.6448,65.228 92.5,66C 93.814,69.3831 94.6473,72.8831 95,76.5C 95.3803,85.8448 95.8803,95.0114 96.5,104C 93.5184,104.498 90.5184,104.665 87.5,104.5C 86.7906,95.7214 86.1239,86.888 85.5,78C 85.2148,76.1105 84.2148,74.7771 82.5,74C 83.2872,70.996 82.6206,68.1627 80.5,65.5C 78.7086,64.8302 77.0419,64.1635 75.5,63.5 Z"/></g>
<g><path style="opacity:0.882" fill="#292e33" d="M 54.5,62.5 C 71.5,62.5 88.5,62.5 105.5,62.5C 105.184,76.8821 105.517,91.2155 106.5,105.5C 90.2674,105.564 73.934,105.564 57.5,105.5C 60.2869,104.523 63.2869,104.19 66.5,104.5C 73.5,104.5 80.5,104.5 87.5,104.5C 90.5184,104.665 93.5184,104.498 96.5,104C 95.8803,95.0114 95.3803,85.8448 95,76.5C 94.6473,72.8831 93.814,69.3831 92.5,66C 92.6448,65.228 92.9781,64.5613 93.5,64C 87.5092,63.5005 81.5092,63.3338 75.5,63.5C 72.1667,63.5 68.8333,63.5 65.5,63.5C 63.8333,63.5 62.1667,63.5 60.5,63.5C 58.2646,63.7947 56.2646,63.4614 54.5,62.5 Z"/></g>
<g><path style="opacity:0.906" fill="#8b9094" d="M 50.5,63.5 C 52.1753,66.8884 53.342,70.555 54,74.5C 54.9452,83.9254 54.1119,92.9254 51.5,101.5C 49.0894,102.361 47.0894,103.694 45.5,105.5C 43.5992,105.754 42.9326,105.42 43.5,104.5C 46.1036,98.1958 48.437,91.6958 50.5,85C 49.3457,77.5753 49.3457,70.4087 50.5,63.5 Z"/></g>
<g><path style="opacity:0.843" fill="#3f474e" d="M 65.5,63.5 C 68.8333,63.5 72.1667,63.5 75.5,63.5C 77.0419,64.1635 78.7086,64.8302 80.5,65.5C 82.6206,68.1627 83.2872,70.996 82.5,74C 84.2148,74.7771 85.2148,76.1105 85.5,78C 86.1239,86.888 86.7906,95.7214 87.5,104.5C 80.5,104.5 73.5,104.5 66.5,104.5C 65.828,103.733 64.9947,103.066 64,102.5C 63.6095,98.4856 63.1095,94.4856 62.5,90.5C 63.7084,84.5086 64.5418,78.1753 65,71.5C 65.3742,70.5838 65.8742,69.7504 66.5,69C 65.5939,67.3005 65.2606,65.4672 65.5,63.5 Z"/></g>
<g><path style="opacity:0.882" fill="#595f63" d="M 50.5,108.5 C 66.0093,107.295 81.676,107.295 97.5,108.5C 90.4515,110.604 83.1182,111.771 75.5,112C 72.0967,112.578 68.9301,113.745 66,115.5C 64.3745,114.588 63.5412,115.255 63.5,117.5C 60.8127,117.664 58.146,117.497 55.5,117C 58.1258,114.854 61.1258,113.521 64.5,113C 65.4695,111.242 66.6361,110.742 68,111.5C 68.5,111 69,110.5 69.5,110C 72.8333,109.667 76.1667,109.333 79.5,109C 69.8391,108.5 60.1724,108.334 50.5,108.5 Z"/></g>
<g><path style="opacity:0.918" fill="#9b9fa3" d="M 40.5,109.5 C 43.8499,109.335 47.1832,109.502 50.5,110C 46.9595,112.405 43.1262,114.238 39,115.5C 37.9701,115.164 37.4701,114.497 37.5,113.5C 37.5,112.167 37.5,110.833 37.5,109.5C 38.5,109.5 39.5,109.5 40.5,109.5 Z"/></g>
<g><path style="opacity:0.859" fill="#4b5257" d="M 97.5,108.5 C 101.842,108.739 106.176,109.073 110.5,109.5C 100.472,110.62 90.4724,112.62 80.5,115.5C 79.2867,115.747 78.62,116.414 78.5,117.5C 75.8333,117.5 73.1667,117.5 70.5,117.5C 68.1667,117.5 65.8333,117.5 63.5,117.5C 63.5412,115.255 64.3745,114.588 66,115.5C 68.9301,113.745 72.0967,112.578 75.5,112C 83.1182,111.771 90.4515,110.604 97.5,108.5 Z"/></g>
<g><path style="opacity:0.894" fill="#353b3f" d="M 110.5,109.5 C 111.533,112.986 112.367,116.653 113,120.5C 114.356,121.38 115.856,121.714 117.5,121.5C 118.091,122.151 118.757,122.818 119.5,123.5C 118.726,124.711 117.893,124.711 117,123.5C 109.971,124.703 102.971,126.036 96,127.5C 95.6667,127.167 95.3333,126.833 95,126.5C 91.9446,127.914 88.7779,129.081 85.5,130C 86.6341,131.016 86.3008,131.683 84.5,132C 81.9644,132.186 79.631,132.686 77.5,133.5C 72.1667,133.5 66.8333,133.5 61.5,133.5C 64.1603,130.52 67.9936,128.187 73,126.5C 73.3333,126.833 73.6667,127.167 74,127.5C 81.2062,125.042 88.3728,122.708 95.5,120.5C 97.8568,120.663 100.19,120.497 102.5,120C 94.7315,117.844 86.7315,117.011 78.5,117.5C 78.62,116.414 79.2867,115.747 80.5,115.5C 90.4724,112.62 100.472,110.62 110.5,109.5 Z"/></g>
<g><path style="opacity:0.886" fill="#5e6368" d="M 70.5,117.5 C 73.1667,117.5 75.8333,117.5 78.5,117.5C 86.7315,117.011 94.7315,117.844 102.5,120C 100.19,120.497 97.8568,120.663 95.5,120.5C 82.275,120.975 69.6084,124.308 57.5,130.5C 56.8728,131.417 56.5394,132.417 56.5,133.5C 50.1667,133.5 43.8333,133.5 37.5,133.5C 47.674,132.594 57.0074,129.094 65.5,123C 71.5461,121.881 77.5461,120.548 83.5,119C 78.9805,118.825 74.6472,118.325 70.5,117.5 Z"/></g>
<g><path style="opacity:0.89" fill="#494f54" d="M 95.5,120.5 C 88.3728,122.708 81.2062,125.042 74,127.5C 73.6667,127.167 73.3333,126.833 73,126.5C 67.9936,128.187 64.1603,130.52 61.5,133.5C 59.8333,133.5 58.1667,133.5 56.5,133.5C 56.5394,132.417 56.8728,131.417 57.5,130.5C 69.6084,124.308 82.275,120.975 95.5,120.5 Z"/></g>
<g><path style="opacity:0.918" fill="#9da1a5" d="M 60.5,120.5 C 57.1501,120.335 53.8168,120.502 50.5,121C 42.2699,123.356 33.9366,125.189 25.5,126.5C 25.5,125.167 25.5,123.833 25.5,122.5C 28.1272,121.908 30.7938,121.575 33.5,121.5C 45.3185,118.765 57.3185,117.931 69.5,119C 66.456,119.363 63.456,119.863 60.5,120.5 Z"/></g>
<g><path style="opacity:0.894" fill="#777d81" d="M 40.5,109.5 C 43.6248,108.521 46.9581,108.187 50.5,108.5C 60.1724,108.334 69.8391,108.5 79.5,109C 76.1667,109.333 72.8333,109.667 69.5,110C 69,110.5 68.5,111 68,111.5C 66.6361,110.742 65.4695,111.242 64.5,113C 61.1258,113.521 58.1258,114.854 55.5,117C 58.146,117.497 60.8127,117.664 63.5,117.5C 65.8333,117.5 68.1667,117.5 70.5,117.5C 74.6472,118.325 78.9805,118.825 83.5,119C 77.5461,120.548 71.5461,121.881 65.5,123C 57.0074,129.094 47.674,132.594 37.5,133.5C 33.8333,133.5 30.1667,133.5 26.5,133.5C 31.8382,131.335 37.1715,128.835 42.5,126C 48.5302,123.832 54.5302,121.999 60.5,120.5C 63.456,119.863 66.456,119.363 69.5,119C 57.3185,117.931 45.3185,118.765 33.5,121.5C 34.209,120.596 35.209,120.263 36.5,120.5C 36.1984,117.941 36.5318,115.607 37.5,113.5C 37.4701,114.497 37.9701,115.164 39,115.5C 43.1262,114.238 46.9595,112.405 50.5,110C 47.1832,109.502 43.8499,109.335 40.5,109.5 Z"/></g>
<g><path style="opacity:0.906" fill="#8b9094" d="M 60.5,120.5 C 54.5302,121.999 48.5302,123.832 42.5,126C 37.1715,128.835 31.8382,131.335 26.5,133.5C 25.5318,131.393 25.1984,129.059 25.5,126.5C 33.9366,125.189 42.2699,123.356 50.5,121C 53.8168,120.502 57.1501,120.335 60.5,120.5 Z"/></g>
<g><path style="opacity:0.89" fill="#2a2f34" d="M 117.5,121.5 C 119.5,121.833 121.5,122.167 123.5,122.5C 123.5,126.167 123.5,129.833 123.5,133.5C 108.167,133.5 92.8333,133.5 77.5,133.5C 79.631,132.686 81.9644,132.186 84.5,132C 86.3008,131.683 86.6341,131.016 85.5,130C 88.7779,129.081 91.9446,127.914 95,126.5C 95.3333,126.833 95.6667,127.167 96,127.5C 102.971,126.036 109.971,124.703 117,123.5C 117.893,124.711 118.726,124.711 119.5,123.5C 118.757,122.818 118.091,122.151 117.5,121.5 Z"/></g>
</svg>
