<?xml version="1.0" encoding="UTF-8"?>
<!DOCTYPE svg PUBLIC "-//W3C//DTD SVG 1.1//EN" "http://www.w3.org/Graphics/SVG/1.1/DTD/svg11.dtd">
<svg xmlns="http://www.w3.org/2000/svg" version="1.1" width="150px" height="150px" style="shape-rendering:geometricPrecision; text-rendering:geometricPrecision; image-rendering:optimizeQuality; fill-rule:evenodd; clip-rule:evenodd" xmlns:xlink="http://www.w3.org/1999/xlink">
<g><path style="opacity:0.769" fill="#050506" d="M 70.5,12.5 C 82.1113,11.9394 86.6113,17.2727 84,28.5C 82.1667,30.3333 80.3333,32.1667 78.5,34C 80.276,39.7105 81.6093,45.5438 82.5,51.5C 87.2701,51.6917 91.9367,52.5251 96.5,54C 101.474,56.1025 106.474,57.7691 111.5,59C 115.21,53.7495 118.544,48.2495 121.5,42.5C 116.879,35.673 117.879,29.8397 124.5,25C 131.736,22.701 136.903,24.8677 140,31.5C 141.387,39.2766 138.22,43.9433 130.5,45.5C 128.336,59.8203 126.169,74.1536 124,88.5C 121.14,94.3655 117.14,99.3655 112,103.5C 111.833,104.333 111.667,105.167 111.5,106C 113.757,112.441 116.59,118.608 120,124.5C 120.49,125.793 120.657,127.127 120.5,128.5C 93.4777,138.265 66.1444,139.432 38.5,132C 34.417,130.818 30.7504,128.984 27.5,126.5C 31.5978,119.878 34.9311,112.878 37.5,105.5C 33.1425,100.31 28.9758,94.9766 25,89.5C 22.2896,74.9053 20.1229,60.2386 18.5,45.5C 10.3075,43.7962 7.14079,38.7962 9,30.5C 10.1667,28 12,26.1667 14.5,25C 23.4405,22.6126 28.7739,25.946 30.5,35C 29.1711,38.1206 28.3378,41.2873 28,44.5C 31.0958,49.7017 34.4292,54.7017 38,59.5C 47.0281,55.1011 56.5281,52.4344 66.5,51.5C 67.1112,45.7759 68.1112,40.1092 69.5,34.5C 61.1644,26.6115 61.4978,19.2782 70.5,12.5 Z"/></g>
<g><path style="opacity:0.91" fill="#878c90" d="M 71.5,16.5 C 72.8333,16.5 74.1667,16.5 75.5,16.5C 73.6158,20.2794 72.2825,24.2794 71.5,28.5C 70.8333,28.5 70.1667,28.5 69.5,28.5C 66.2392,25.6796 65.7392,22.3463 68,18.5C 68.8159,17.1772 69.9826,16.5106 71.5,16.5 Z"/></g>
<g><path style="opacity:0.878" fill="#5e6469" d="M 71.5,16.5 C 73.3888,15.2584 75.3888,15.2584 77.5,16.5C 77.8134,19.2469 77.48,21.9135 76.5,24.5C 75.2341,26.4039 73.5675,27.7372 71.5,28.5C 72.2825,24.2794 73.6158,20.2794 75.5,16.5C 74.1667,16.5 72.8333,16.5 71.5,16.5 Z"/></g>
<g><path style="opacity:0.878" fill="#31373c" d="M 77.5,16.5 C 81.5184,19.2041 82.5184,22.8707 80.5,27.5C 76.8794,30.8401 73.2128,31.1734 69.5,28.5C 70.1667,28.5 70.8333,28.5 71.5,28.5C 73.5675,27.7372 75.2341,26.4039 76.5,24.5C 77.48,21.9135 77.8134,19.2469 77.5,16.5 Z"/></g>
<g><path style="opacity:0.91" fill="#858a8e" d="M 22.5,28.5 C 22.5374,34.4985 19.8708,38.4985 14.5,40.5C 10.387,36.1586 10.7203,31.9919 15.5,28C 17.9291,27.2967 20.2625,27.4634 22.5,28.5 Z"/></g>
<g><path style="opacity:0.898" fill="#858a8e" d="M 132.5,28.5 C 132.077,34.3769 129.077,38.0436 123.5,39.5C 120.359,34.7276 121.359,30.8943 126.5,28C 128.712,27.2109 130.712,27.3775 132.5,28.5 Z"/></g>
<g><path style="opacity:0.875" fill="#31383d" d="M 23.5,28.5 C 26.3033,31.2036 27.1366,34.5369 26,38.5C 23.4232,42.0683 20.2565,43.0683 16.5,41.5C 22.6271,39.3399 24.9604,35.0065 23.5,28.5 Z"/></g>
<g><path style="opacity:0.867" fill="#3d4449" d="M 132.5,28.5 C 134.017,28.5106 135.184,29.1772 136,30.5C 138.09,36.7091 136.09,40.7091 130,42.5C 127.454,42.1414 125.287,41.1414 123.5,39.5C 129.077,38.0436 132.077,34.3769 132.5,28.5 Z"/></g>
<g><path style="opacity:0.863" fill="#4e545a" d="M 22.5,28.5 C 22.8333,28.5 23.1667,28.5 23.5,28.5C 24.9604,35.0065 22.6271,39.3399 16.5,41.5C 15.5084,41.6716 14.8417,41.3382 14.5,40.5C 19.8708,38.4985 22.5374,34.4985 22.5,28.5 Z"/></g>
<g><path style="opacity:0.922" fill="#94989b" d="M 72.5,35.5 C 73.7868,36.8714 74.4535,38.7047 74.5,41C 72.2281,50.3627 70.7281,59.8627 70,69.5C 69.1561,73.5715 66.9895,75.2381 63.5,74.5C 64.9528,71.6469 66.1194,68.6469 67,65.5C 68.7291,55.4562 70.5625,45.4562 72.5,35.5 Z"/></g>
<g><path style="opacity:0.922" fill="#969a9d" d="M 123.5,46.5 C 124.613,47.9464 124.78,49.6131 124,51.5C 121.237,55.1262 119.237,59.1262 118,63.5C 115.175,67.6607 112.342,71.8274 109.5,76C 107.756,77.4544 106.089,77.6211 104.5,76.5C 110.867,66.4774 117.201,56.4774 123.5,46.5 Z"/></g>
<g><path style="opacity:0.922" fill="#9ca1a4" d="M 30.5,74.5 C 31.7301,78.2529 32.7301,82.0862 33.5,86C 33.1983,88.3995 32.5316,90.5662 31.5,92.5C 28.9717,90.1105 27.4717,87.1105 27,83.5C 25.5068,74.8697 24.3401,66.2031 23.5,57.5C 23.3367,55.1432 23.5034,52.8098 24,50.5C 27.5479,58.1137 29.7146,66.1137 30.5,74.5 Z"/></g>
<g><path style="opacity:0.871" fill="#62696e" d="M 76.5,39.5 C 76.0502,52.4874 73.8835,65.1541 70,77.5C 68.4708,78.7287 67.3041,80.2287 66.5,82C 63.1177,82.8236 59.7844,82.657 56.5,81.5C 55.8728,80.5832 55.5394,79.5832 55.5,78.5C 58.8515,78.47 61.5182,77.1367 63.5,74.5C 66.9895,75.2381 69.1561,73.5715 70,69.5C 70.7281,59.8627 72.2281,50.3627 74.5,41C 74.4535,38.7047 73.7868,36.8714 72.5,35.5C 72.8212,33.9519 73.8212,33.2852 75.5,33.5C 75.8333,35.5 76.1667,37.5 76.5,39.5 Z"/></g>
<g><path style="opacity:0.871" fill="#5e656a" d="M 25.5,47.5 C 28.153,56.7696 30.8196,66.1029 33.5,75.5C 32.391,75.4431 31.391,75.1098 30.5,74.5C 29.7146,66.1137 27.5479,58.1137 24,50.5C 23.5034,52.8098 23.3367,55.1432 23.5,57.5C 22.2911,53.3819 21.6245,49.0485 21.5,44.5C 23.9726,44.0882 25.3059,45.0882 25.5,47.5 Z"/></g>
<g><path style="opacity:0.886" fill="#6a6f74" d="M 125.5,53.5 C 120.636,62.727 115.636,71.8937 110.5,81C 105.307,83.1626 100.307,82.8293 95.5,80C 96.4158,79.7216 97.0825,79.2216 97.5,78.5C 100.079,78.6061 102.412,77.9395 104.5,76.5C 106.089,77.6211 107.756,77.4544 109.5,76C 112.342,71.8274 115.175,67.6607 118,63.5C 119.237,59.1262 121.237,55.1262 124,51.5C 124.78,49.6131 124.613,47.9464 123.5,46.5C 123.811,45.5222 124.478,44.8555 125.5,44.5C 126.643,47.4977 126.643,50.4977 125.5,53.5 Z"/></g>
<g><path style="opacity:0.856" fill="#3b4348" d="M 76.5,39.5 C 78.1326,49.0633 79.9659,58.73 82,68.5C 84.1721,76.5015 89.3387,79.8348 97.5,78.5C 97.0825,79.2216 96.4158,79.7216 95.5,80C 100.307,82.8293 105.307,83.1626 110.5,81C 115.636,71.8937 120.636,62.727 125.5,53.5C 125.5,54.8333 125.5,56.1667 125.5,57.5C 122.594,63.7811 119.594,70.1144 116.5,76.5C 114.308,77.8587 112.641,79.6921 111.5,82C 104.05,84.3703 96.883,83.8703 90,80.5C 81.8287,81.8366 73.9954,84.3366 66.5,88C 64.393,89.2635 63.393,91.0968 63.5,93.5C 69.0795,93.6937 74.7462,94.3604 80.5,95.5C 69.564,94.8792 58.8973,96.2126 48.5,99.5C 48.2492,93.6013 45.5826,89.268 40.5,86.5C 36.9591,83.621 34.6257,79.9543 33.5,75.5C 30.8196,66.1029 28.153,56.7696 25.5,47.5C 31.4765,56.1025 36.9765,65.1025 42,74.5C 45.7346,78.0961 50.2346,79.4294 55.5,78.5C 55.5394,79.5832 55.8728,80.5832 56.5,81.5C 59.7844,82.657 63.1177,82.8236 66.5,82C 67.3041,80.2287 68.4708,78.7287 70,77.5C 73.8835,65.1541 76.0502,52.4874 76.5,39.5 Z"/></g>
<g><path style="opacity:0.875" fill="#373e44" d="M 53.5,57.5 C 54.209,56.596 55.209,56.2627 56.5,56.5C 58.1992,56.3398 59.8659,56.5065 61.5,57C 61.7638,63.8057 59.0971,69.1391 53.5,73C 50.5248,73.0435 47.5248,72.8769 44.5,72.5C 42.2753,69.7376 40.2753,66.7376 38.5,63.5C 39.7658,62.6376 41.0992,61.9709 42.5,61.5C 43.5071,66.0144 46.1738,68.5144 50.5,69C 50.4621,64.2115 52.4621,60.5448 56.5,58C 55.552,57.5172 54.552,57.3505 53.5,57.5 Z"/></g>
<g><path style="opacity:0.871" fill="#6b7176" d="M 53.5,57.5 C 54.552,57.3505 55.552,57.5172 56.5,58C 52.4621,60.5448 50.4621,64.2115 50.5,69C 46.1738,68.5144 43.5071,66.0144 42.5,61.5C 45.8674,59.3772 49.534,58.0439 53.5,57.5 Z"/></g>
<g><path style="opacity:0.875" fill="#2f363a" d="M 105.5,61.5 C 106.708,62.2341 108.041,62.5674 109.5,62.5C 108.237,68.5225 104.904,73.0225 99.5,76C 92.8709,77.8502 88.2042,75.6836 85.5,69.5C 87.2883,69.9705 89.1216,70.3038 91,70.5C 94.3138,69.1927 97.8138,68.3594 101.5,68C 103.295,66.1149 104.628,63.9482 105.5,61.5 Z"/></g>
<g><path style="opacity:0.863" fill="#5c6268" d="M 86.5,55.5 C 90.9487,56.029 95.282,57.029 99.5,58.5C 97.437,61.5818 95.1036,64.5818 92.5,67.5C 91.069,67.0234 89.7357,66.3567 88.5,65.5C 87.7402,62.1792 87.0736,58.8459 86.5,55.5 Z"/></g>
<g><path style="opacity:0.858" fill="#3b4248" d="M 86.5,55.5 C 87.0736,58.8459 87.7402,62.1792 88.5,65.5C 89.7357,66.3567 91.069,67.0234 92.5,67.5C 95.1036,64.5818 97.437,61.5818 99.5,58.5C 101.5,59.5 103.5,60.5 105.5,61.5C 104.628,63.9482 103.295,66.1149 101.5,68C 97.8138,68.3594 94.3138,69.1927 91,70.5C 89.1216,70.3038 87.2883,69.9705 85.5,69.5C 84.5034,64.8618 83.5034,60.1951 82.5,55.5C 83.8333,55.5 85.1667,55.5 86.5,55.5 Z"/></g>
<g><path style="opacity:0.882" fill="#2b3135" d="M 44.5,72.5 C 47.5248,72.8769 50.5248,73.0435 53.5,73C 59.0971,69.1391 61.7638,63.8057 61.5,57C 59.8659,56.5065 58.1992,56.3398 56.5,56.5C 58.984,55.6311 61.6507,54.9644 64.5,54.5C 65.1667,54.8333 65.8333,55.1667 66.5,55.5C 65.4065,61.7336 63.5731,67.7336 61,73.5C 55.1875,77.6674 49.6875,77.3341 44.5,72.5 Z"/></g>
<g><path style="opacity:0.89" fill="#2a3034" d="M 125.5,57.5 C 123.592,67.0906 122.092,76.7572 121,86.5C 117.938,92.2304 114.104,97.3971 109.5,102C 100.005,99.3779 90.3383,97.2113 80.5,95.5C 74.7462,94.3604 69.0795,93.6937 63.5,93.5C 63.393,91.0968 64.393,89.2635 66.5,88C 73.9954,84.3366 81.8287,81.8366 90,80.5C 96.883,83.8703 104.05,84.3703 111.5,82C 112.641,79.6921 114.308,77.8587 116.5,76.5C 119.594,70.1144 122.594,63.7811 125.5,57.5 Z"/></g>
<g><path style="opacity:0.89" fill="#757b7f" d="M 30.5,74.5 C 31.391,75.1098 32.391,75.4431 33.5,75.5C 34.6257,79.9543 36.9591,83.621 40.5,86.5C 42.1106,88.6411 43.6106,90.9744 45,93.5C 45.4935,95.1341 45.6602,96.8008 45.5,98.5C 43.1229,98.2155 40.9562,98.2155 39,98.5C 38.0471,96.6269 36.8804,96.2935 35.5,97.5C 34.1667,95.8333 32.8333,94.1667 31.5,92.5C 32.5316,90.5662 33.1983,88.3995 33.5,86C 32.7301,82.0862 31.7301,78.2529 30.5,74.5 Z"/></g>
<g><path style="opacity:0.886" fill="#60666b" d="M 40.5,86.5 C 45.5826,89.268 48.2492,93.6013 48.5,99.5C 45.989,100.394 43.489,101.394 41,102.5C 38.6836,101.35 36.8502,99.6829 35.5,97.5C 36.8804,96.2935 38.0471,96.6269 39,98.5C 40.9562,98.2155 43.1229,98.2155 45.5,98.5C 45.6602,96.8008 45.4935,95.1341 45,93.5C 43.6106,90.9744 42.1106,88.6411 40.5,86.5 Z"/></g>
<g><path style="opacity:0.854" fill="#3a4247" d="M 102.5,103.5 C 100.622,104.208 98.9555,105.374 97.5,107C 96.2068,107.49 94.8734,107.657 93.5,107.5C 86.2328,106.176 78.8995,105.51 71.5,105.5C 72.2186,103.305 71.2186,101.805 68.5,101C 65.854,100.503 63.1873,100.336 60.5,100.5C 74.6152,97.6548 88.6152,98.6548 102.5,103.5 Z"/></g>
<g><path style="opacity:0.871" fill="#555c61" d="M 60.5,100.5 C 63.1873,100.336 65.854,100.503 68.5,101C 71.2186,101.805 72.2186,103.305 71.5,105.5C 68.3915,105.264 65.3915,105.597 62.5,106.5C 62.5,105.167 62.5,103.833 62.5,102.5C 57.1383,102.472 51.8049,102.806 46.5,103.5C 50.8566,101.581 55.5233,100.581 60.5,100.5 Z"/></g>
<g><path style="opacity:0.996" fill="#0b0d0d" d="M 71.5,105.5 C 78.8995,105.51 86.2328,106.176 93.5,107.5C 95.949,108.791 98.6156,109.791 101.5,110.5C 101.833,110.833 102.167,111.167 102.5,111.5C 101.311,112.429 99.9778,112.762 98.5,112.5C 90.1009,109.656 81.4342,108.323 72.5,108.5C 67.2336,108.189 62.2336,108.855 57.5,110.5C 53.9468,110.844 50.4468,111.511 47,112.5C 45.3925,112.026 45.2258,111.359 46.5,110.5C 51.5973,108.226 56.9306,106.892 62.5,106.5C 65.3915,105.597 68.3915,105.264 71.5,105.5 Z"/></g>
<g><path style="opacity:0.891" fill="#292e32" d="M 102.5,103.5 C 104.582,103.472 106.416,104.139 108,105.5C 110.148,112.442 112.982,119.108 116.5,125.5C 109.683,128.029 102.683,130.029 95.5,131.5C 96.8841,125.202 97.8841,118.869 98.5,112.5C 99.9778,112.762 101.311,112.429 102.5,111.5C 102.167,111.167 101.833,110.833 101.5,110.5C 98.6156,109.791 95.949,108.791 93.5,107.5C 94.8734,107.657 96.2068,107.49 97.5,107C 98.9555,105.374 100.622,104.208 102.5,103.5 Z"/></g>
<g><path style="opacity:0.89" fill="#72787c" d="M 62.5,106.5 C 56.9306,106.892 51.5973,108.226 46.5,110.5C 45.2258,111.359 45.3925,112.026 47,112.5C 50.4468,111.511 53.9468,110.844 57.5,110.5C 58.5862,110.62 59.2528,111.287 59.5,112.5C 59.1543,113.849 58.821,115.183 58.5,116.5C 56.2856,116.291 54.619,117.124 53.5,119C 53.8361,120.03 54.5028,120.53 55.5,120.5C 56.2389,120.369 56.9056,120.536 57.5,121C 57.2173,123.898 57.2173,126.898 57.5,130C 56.255,130.791 54.9217,131.291 53.5,131.5C 51.1944,131.007 48.861,130.674 46.5,130.5C 46.4332,128.599 46.7665,126.766 47.5,125C 43.8356,118.18 42.8356,111.013 44.5,103.5C 45.1667,103.5 45.8333,103.5 46.5,103.5C 51.8049,102.806 57.1383,102.472 62.5,102.5C 62.5,103.833 62.5,105.167 62.5,106.5 Z"/></g>
<g><path style="opacity:0.886" fill="#5d6368" d="M 72.5,108.5 C 72.2969,110.044 71.6302,111.378 70.5,112.5C 70.8627,113.183 71.1961,113.85 71.5,114.5C 67.076,114.652 62.7426,115.319 58.5,116.5C 58.821,115.183 59.1543,113.849 59.5,112.5C 59.2528,111.287 58.5862,110.62 57.5,110.5C 62.2336,108.855 67.2336,108.189 72.5,108.5 Z"/></g>
<g><path style="opacity:0.875" fill="#373e44" d="M 72.5,108.5 C 81.4342,108.323 90.1009,109.656 98.5,112.5C 97.8841,118.869 96.8841,125.202 95.5,131.5C 87.6006,133.094 79.6006,133.76 71.5,133.5C 76.0944,132.885 80.7611,132.051 85.5,131C 88.0244,127.162 89.6911,123.328 90.5,119.5C 92.0418,120.301 93.7085,120.634 95.5,120.5C 95.5,119.5 95.5,118.5 95.5,117.5C 87.6752,115.228 79.6752,114.228 71.5,114.5C 71.1961,113.85 70.8627,113.183 70.5,112.5C 71.6302,111.378 72.2969,110.044 72.5,108.5 Z"/></g>
<g><path style="opacity:0.998" fill="#0a0c0d" d="M 71.5,114.5 C 79.6752,114.228 87.6752,115.228 95.5,117.5C 95.5,118.5 95.5,119.5 95.5,120.5C 93.7085,120.634 92.0418,120.301 90.5,119.5C 81.4204,117.441 72.4204,117.108 63.5,118.5C 60.5049,118.294 57.8383,118.96 55.5,120.5C 54.5028,120.53 53.8361,120.03 53.5,119C 54.619,117.124 56.2856,116.291 58.5,116.5C 62.7426,115.319 67.076,114.652 71.5,114.5 Z"/></g>
<g><path style="opacity:0.847" fill="#40484e" d="M 63.5,118.5 C 72.4204,117.108 81.4204,117.441 90.5,119.5C 89.6911,123.328 88.0244,127.162 85.5,131C 80.7611,132.051 76.0944,132.885 71.5,133.5C 67.6286,133.815 63.9619,133.482 60.5,132.5C 62.604,132.799 64.604,132.466 66.5,131.5C 66.2219,126.761 65.2219,122.427 63.5,118.5 Z"/></g>
<g><path style="opacity:0.878" fill="#454b51" d="M 44.5,103.5 C 42.8356,111.013 43.8356,118.18 47.5,125C 46.7665,126.766 46.4332,128.599 46.5,130.5C 42.5185,129.337 38.5185,128.171 34.5,127C 33.572,126.612 32.9054,125.945 32.5,125C 36.0076,118.818 38.8409,112.318 41,105.5C 41.8159,104.177 42.9826,103.511 44.5,103.5 Z"/></g>
<g><path style="opacity:0.878" fill="#5e6569" d="M 63.5,118.5 C 65.2219,122.427 66.2219,126.761 66.5,131.5C 64.604,132.466 62.604,132.799 60.5,132.5C 57.9407,132.802 55.6074,132.468 53.5,131.5C 54.9217,131.291 56.255,130.791 57.5,130C 57.2173,126.898 57.2173,123.898 57.5,121C 56.9056,120.536 56.2389,120.369 55.5,120.5C 57.8383,118.96 60.5049,118.294 63.5,118.5 Z"/></g>
</svg>
