<?xml version="1.0" encoding="UTF-8"?>
<!DOCTYPE svg PUBLIC "-//W3C//DTD SVG 1.1//EN" "http://www.w3.org/Graphics/SVG/1.1/DTD/svg11.dtd">
<svg xmlns="http://www.w3.org/2000/svg" version="1.1" width="150px" height="150px" style="shape-rendering:geometricPrecision; text-rendering:geometricPrecision; image-rendering:optimizeQuality; fill-rule:evenodd; clip-rule:evenodd" xmlns:xlink="http://www.w3.org/1999/xlink">
<g><path style="opacity:0.784" fill="#060707" d="M 71.5,17.5 C 81.6507,17.4825 86.484,22.4825 86,32.5C 85.3936,35.5478 83.8936,38.0478 81.5,40C 85.1456,43.6401 87.979,47.8067 90,52.5C 95.7608,47.0292 102.594,45.1958 110.5,47C 132.678,54.8525 139.511,69.6858 131,91.5C 126.517,97.5786 120.851,102.245 114,105.5C 113.667,112.833 113.333,120.167 113,127.5C 108.441,131.915 102.941,134.415 96.5,135C 76.8094,138.665 57.476,137.331 38.5,131C 37.3333,129.833 36.1667,128.667 35,127.5C 34.6667,120.167 34.3333,112.833 34,105.5C 11.6656,93.8018 7.33226,77.4685 21,56.5C 32.2959,45.3387 44.7959,43.672 58.5,51.5C 60.5472,47.2401 63.2139,43.4067 66.5,40C 59.3263,30.6632 60.9929,23.1632 71.5,17.5 Z"/></g>
<g><path style="opacity:0.918" fill="#9b9fa3" d="M 70.5,22.5 C 71.8734,22.3433 73.2068,22.51 74.5,23C 72.194,27.1219 69.5273,30.9553 66.5,34.5C 65.4448,31.9272 65.2782,29.2605 66,26.5C 66.7475,24.249 68.2475,22.9156 70.5,22.5 Z"/></g>
<g><path style="opacity:0.878" fill="#2d3438" d="M 78.5,22.5 C 82.7041,26.0613 83.5375,30.3946 81,35.5C 79.7292,36.8825 78.2292,37.8825 76.5,38.5C 75.645,37.4693 74.9783,36.3026 74.5,35C 76.2747,30.9565 77.608,26.7899 78.5,22.5 Z"/></g>
<g><path style="opacity:0.875" fill="#555c62" d="M 76.5,21.5 C 77.1667,21.8333 77.8333,22.1667 78.5,22.5C 77.608,26.7899 76.2747,30.9565 74.5,35C 74.9783,36.3026 75.645,37.4693 76.5,38.5C 74.2646,38.7947 72.2646,38.4614 70.5,37.5C 71.1174,37.3893 71.6174,37.056 72,36.5C 71.7072,32.4316 73.0405,29.0982 76,26.5C 76.4935,24.8659 76.6602,23.1992 76.5,21.5 Z"/></g>
<g><path style="opacity:0.89" fill="#7a7f83" d="M 70.5,22.5 C 72.2646,21.5386 74.2646,21.2053 76.5,21.5C 76.6602,23.1992 76.4935,24.8659 76,26.5C 73.0405,29.0982 71.7072,32.4316 72,36.5C 71.6174,37.056 71.1174,37.3893 70.5,37.5C 68.5956,37.2624 67.2623,36.2624 66.5,34.5C 69.5273,30.9553 72.194,27.1219 74.5,23C 73.2068,22.51 71.8734,22.3433 70.5,22.5 Z"/></g>
<g><path style="opacity:0.867" fill="#3a4147" d="M 80.5,44.5 C 82.543,45.5794 83.8763,47.246 84.5,49.5C 82.6309,51.3304 80.7975,53.3304 79,55.5C 77.7694,61.9861 75.436,68.3195 72,74.5C 71.3292,75.2524 70.4959,75.5858 69.5,75.5C 67.8333,72.1667 66.1667,68.8333 64.5,65.5C 68.4324,65.7399 71.2657,64.0733 73,60.5C 75.2052,54.9729 77.7052,49.6395 80.5,44.5 Z"/></g>
<g><path style="opacity:0.918" fill="#9ca0a4" d="M 51.5,51.5 C 51.4431,52.609 51.1098,53.609 50.5,54.5C 49.8333,54.5 49.5,54.8333 49.5,55.5C 43.302,60.2626 36.302,63.4293 28.5,65C 27.4206,67.043 25.754,68.3763 23.5,69C 20.4054,73.8121 18.4054,78.9788 17.5,84.5C 14.6632,67.1427 21.6632,55.6427 38.5,50C 43.0012,49.2712 47.3346,49.7712 51.5,51.5 Z"/></g>
<g><path style="opacity:0.91" fill="#92979a" d="M 74.5,41.5 C 76.7792,51.6235 72.7792,56.9569 62.5,57.5C 62.5,56.1667 62.5,54.8333 62.5,53.5C 63.5419,46.458 67.5419,42.458 74.5,41.5 Z"/></g>
<g><path style="opacity:0.882" fill="#656b70" d="M 74.5,41.5 C 77.089,41.461 79.089,42.461 80.5,44.5C 77.7052,49.6395 75.2052,54.9729 73,60.5C 71.2657,64.0733 68.4324,65.7399 64.5,65.5C 62.972,62.5716 61.972,59.4049 61.5,56C 61.528,54.9302 61.8614,54.0968 62.5,53.5C 62.5,54.8333 62.5,56.1667 62.5,57.5C 72.7792,56.9569 76.7792,51.6235 74.5,41.5 Z"/></g>
<g><path style="opacity:0.878" fill="#2b3236" d="M 84.5,49.5 C 86.1744,52.5544 86.6744,55.8877 86,59.5C 82.1757,68.6635 78.1757,77.6635 74,86.5C 72.1993,82.9251 70.6993,79.2584 69.5,75.5C 70.4959,75.5858 71.3292,75.2524 72,74.5C 75.436,68.3195 77.7694,61.9861 79,55.5C 80.7975,53.3304 82.6309,51.3304 84.5,49.5 Z"/></g>
<g><path style="opacity:0.91" fill="#8f9497" d="M 119.5,54.5 C 118.205,55.4884 116.872,56.4884 115.5,57.5C 107.886,57.2002 100.552,58.3669 93.5,61C 91.316,63.0165 89.316,65.1831 87.5,67.5C 86.8933,67.3764 86.56,67.0431 86.5,66.5C 92.273,48.7961 103.273,44.7961 119.5,54.5 Z"/></g>
<g><path style="opacity:0.855" fill="#474e54" d="M 55.5,54.5 C 57.6689,56.3403 59.0023,58.6737 59.5,61.5C 57.8125,67.7012 53.8125,71.7012 47.5,73.5C 40.9306,79.455 37.5973,86.6216 37.5,95C 38.4158,95.2784 39.0825,95.7784 39.5,96.5C 38.1667,97.8333 36.8333,99.1667 35.5,100.5C 32.7243,91.0881 34.0576,82.2548 39.5,74C 44.2926,71.5226 48.7926,68.6893 53,65.5C 54.077,61.8675 54.9103,58.2008 55.5,54.5 Z"/></g>
<g><path style="opacity:0.878" fill="#696f74" d="M 115.5,57.5 C 104.486,60.6571 95.8189,67.1571 89.5,77C 86.3687,78.4821 83.5353,80.3154 81,82.5C 80.5172,81.552 80.3505,80.552 80.5,79.5C 81.743,74.7497 83.743,70.4164 86.5,66.5C 86.56,67.0431 86.8933,67.3764 87.5,67.5C 89.316,65.1831 91.316,63.0165 93.5,61C 100.552,58.3669 107.886,57.2002 115.5,57.5 Z"/></g>
<g><path style="opacity:0.86" fill="#4c5359" d="M 123.5,58.5 C 124.5,58.8333 125.167,59.5 125.5,60.5C 117.508,64.521 109.841,70.021 102.5,77C 96.6631,80.4175 90.9964,84.0842 85.5,88C 84.552,88.4828 83.552,88.6495 82.5,88.5C 80.396,88.7989 78.396,88.4656 76.5,87.5C 76.9424,86.2613 77.6091,85.2613 78.5,84.5C 81.4397,85.8299 84.4397,85.6633 87.5,84C 94.4443,79.3888 100.778,74.0555 106.5,68C 112.293,64.7774 117.959,61.6107 123.5,58.5 Z"/></g>
<g><path style="opacity:0.856" fill="#3f464c" d="M 125.5,60.5 C 126.167,60.5 126.5,60.8333 126.5,61.5C 121.346,66.4956 116.679,71.9956 112.5,78C 104.733,82.4318 96.7329,86.2651 88.5,89.5C 86.2646,89.7947 84.2646,89.4614 82.5,88.5C 83.552,88.6495 84.552,88.4828 85.5,88C 90.9964,84.0842 96.6631,80.4175 102.5,77C 109.841,70.021 117.508,64.521 125.5,60.5 Z"/></g>
<g><path style="opacity:0.894" fill="#7b8185" d="M 49.5,55.5 C 48.6459,61.8526 44.9793,65.3526 38.5,66C 29.7826,74.0125 25.4493,83.8459 25.5,95.5C 21.6226,92.7577 18.956,89.091 17.5,84.5C 18.4054,78.9788 20.4054,73.8121 23.5,69C 25.754,68.3763 27.4206,67.043 28.5,65C 36.302,63.4293 43.302,60.2626 49.5,55.5 Z"/></g>
<g><path style="opacity:0.875" fill="#5b6267" d="M 51.5,51.5 C 52.8717,52.5116 54.205,53.5116 55.5,54.5C 54.9103,58.2008 54.077,61.8675 53,65.5C 48.7926,68.6893 44.2926,71.5226 39.5,74C 34.0576,82.2548 32.7243,91.0881 35.5,100.5C 35.2648,101.097 34.7648,101.43 34,101.5C 32.3336,100.652 30.8336,99.6521 29.5,98.5C 31.2517,98.5824 32.2517,97.7491 32.5,96C 32.0062,94.5378 31.6728,93.0378 31.5,91.5C 31.537,82.9953 34.537,75.8286 40.5,70C 43.927,68.204 47.0937,66.0373 50,63.5C 51.7186,60.5457 51.8853,57.5457 50.5,54.5C 51.1098,53.609 51.4431,52.609 51.5,51.5 Z"/></g>
<g><path style="opacity:0.882" fill="#6d7378" d="M 50.5,54.5 C 51.8853,57.5457 51.7186,60.5457 50,63.5C 47.0937,66.0373 43.927,68.204 40.5,70C 34.537,75.8286 31.537,82.9953 31.5,91.5C 31.6728,93.0378 32.0062,94.5378 32.5,96C 32.2517,97.7491 31.2517,98.5824 29.5,98.5C 28.1283,97.4884 26.795,96.4884 25.5,95.5C 25.4493,83.8459 29.7826,74.0125 38.5,66C 44.9793,65.3526 48.6459,61.8526 49.5,55.5C 49.5,54.8333 49.8333,54.5 50.5,54.5 Z"/></g>
<g><path style="opacity:0.855" fill="#3b4348" d="M 59.5,61.5 C 60.3446,62.6715 61.0113,64.0048 61.5,65.5C 57.8148,71.3637 54.9815,77.6971 53,84.5C 50.0707,86.6715 47.904,89.3381 46.5,92.5C 44.6505,94.5716 42.3171,95.9049 39.5,96.5C 39.0825,95.7784 38.4158,95.2784 37.5,95C 37.5973,86.6216 40.9306,79.455 47.5,73.5C 53.8125,71.7012 57.8125,67.7012 59.5,61.5 Z"/></g>
<g><path style="opacity:0.889" fill="#2d3338" d="M 126.5,61.5 C 135.791,78.8034 131.624,92.1367 114,101.5C 111.033,98.4169 107.533,95.9169 103.5,94C 98.4228,92.32 93.4228,90.82 88.5,89.5C 96.7329,86.2651 104.733,82.4318 112.5,78C 116.679,71.9956 121.346,66.4956 126.5,61.5 Z"/></g>
<g><path style="opacity:0.867" fill="#5a6166" d="M 119.5,54.5 C 121.167,55.5 122.5,56.8333 123.5,58.5C 117.959,61.6107 112.293,64.7774 106.5,68C 100.778,74.0555 94.4443,79.3888 87.5,84C 84.4397,85.6633 81.4397,85.8299 78.5,84.5C 78.4021,82.4471 79.0687,80.7804 80.5,79.5C 80.3505,80.552 80.5172,81.552 81,82.5C 83.5353,80.3154 86.3687,78.4821 89.5,77C 95.8189,67.1571 104.486,60.6571 115.5,57.5C 116.872,56.4884 118.205,55.4884 119.5,54.5 Z"/></g>
<g><path style="opacity:0.878" fill="#30373c" d="M 61.5,65.5 C 65.1704,72.5586 68.5037,79.8919 71.5,87.5C 63.086,88.8462 54.7527,90.5129 46.5,92.5C 47.904,89.3381 50.0707,86.6715 53,84.5C 54.9815,77.6971 57.8148,71.3637 61.5,65.5 Z"/></g>
<g><path style="opacity:0.858" fill="#4d545a" d="M 79.5,91.5 C 82.4824,91.9629 85.4824,92.2962 88.5,92.5C 86.3326,93.2685 84.166,94.2685 82,95.5C 81.5017,98.8168 81.335,102.15 81.5,105.5C 77.5,105.5 73.5,105.5 69.5,105.5C 69.0351,102.472 68.0351,99.6383 66.5,97C 67.459,95.5362 68.7923,94.7028 70.5,94.5C 74.4705,93.8028 78.4705,93.3028 82.5,93C 81.2625,92.7679 80.2625,92.2679 79.5,91.5 Z"/></g>
<g><path style="opacity:0.866" fill="#384045" d="M 88.5,92.5 C 92.1065,93.652 95.7732,94.652 99.5,95.5C 95.1588,97.8121 92.4921,101.479 91.5,106.5C 90.5,106.5 89.5,106.5 88.5,106.5C 86.139,106.326 83.8056,105.993 81.5,105.5C 81.335,102.15 81.5017,98.8168 82,95.5C 84.166,94.2685 86.3326,93.2685 88.5,92.5 Z"/></g>
<g><path style="opacity:0.902" fill="#8c9194" d="M 61.5,92.5 C 63.5273,92.3379 65.5273,92.5045 67.5,93C 59.4171,96.4593 52.2505,101.293 46,107.5C 45.5172,108.448 45.3505,109.448 45.5,110.5C 43.8267,111.343 42.66,112.676 42,114.5C 40.2565,117.957 39.2565,121.623 39,125.5C 38.5003,117.841 38.3336,110.174 38.5,102.5C 40.309,99.8607 42.6424,97.6941 45.5,96C 50.6918,94.2022 56.0251,93.0355 61.5,92.5 Z"/></g>
<g><path style="opacity:0.89" fill="#2b3136" d="M 99.5,95.5 C 103.964,96.4763 107.464,98.8096 110,102.5C 110.667,110.5 110.667,118.5 110,126.5C 99.8313,131.712 88.998,134.046 77.5,133.5C 78.8083,132.768 80.1416,131.934 81.5,131C 80.9781,130.439 80.6448,129.772 80.5,129C 81.5018,125.096 83.1685,121.596 85.5,118.5C 88.7635,119.482 92.0968,120.149 95.5,120.5C 95.5,119.5 95.5,118.5 95.5,117.5C 90.4678,116.659 85.4678,115.659 80.5,114.5C 77.8333,112.5 77.8333,110.5 80.5,108.5C 87.3716,109.592 94.2049,110.926 101,112.5C 102.811,111.576 102.645,110.743 100.5,110C 96.4569,108.509 92.4569,107.342 88.5,106.5C 89.5,106.5 90.5,106.5 91.5,106.5C 92.4921,101.479 95.1588,97.8121 99.5,95.5 Z"/></g>
<g><path style="opacity:0.882" fill="#696f74" d="M 61.5,92.5 C 67.31,91.5104 73.31,91.1771 79.5,91.5C 80.2625,92.2679 81.2625,92.7679 82.5,93C 78.4705,93.3028 74.4705,93.8028 70.5,94.5C 68.7923,94.7028 67.459,95.5362 66.5,97C 68.0351,99.6383 69.0351,102.472 69.5,105.5C 61.2167,105.905 53.2167,107.572 45.5,110.5C 45.3505,109.448 45.5172,108.448 46,107.5C 52.2505,101.293 59.4171,96.4593 67.5,93C 65.5273,92.5045 63.5273,92.3379 61.5,92.5 Z"/></g>
<g><path style="opacity:0.996" fill="#0b0c0d" d="M 69.5,105.5 C 73.5,105.5 77.5,105.5 81.5,105.5C 83.8056,105.993 86.139,106.326 88.5,106.5C 92.4569,107.342 96.4569,108.509 100.5,110C 102.645,110.743 102.811,111.576 101,112.5C 94.2049,110.926 87.3716,109.592 80.5,108.5C 73.9779,108.177 67.6446,108.51 61.5,109.5C 56.6285,110.259 51.7952,111.259 47,112.5C 45.9701,112.164 45.4701,111.497 45.5,110.5C 53.2167,107.572 61.2167,105.905 69.5,105.5 Z"/></g>
<g><path style="opacity:0.875" fill="#545b60" d="M 61.5,109.5 C 67.6446,108.51 73.9779,108.177 80.5,108.5C 77.8333,110.5 77.8333,112.5 80.5,114.5C 76.5,114.5 72.5,114.5 68.5,114.5C 67.6993,112.958 67.366,111.292 67.5,109.5C 65.5,109.5 63.5,109.5 61.5,109.5 Z"/></g>
<g><path style="opacity:0.882" fill="#6b7175" d="M 38.5,102.5 C 38.3336,110.174 38.5003,117.841 39,125.5C 39.2565,121.623 40.2565,117.957 42,114.5C 42.66,112.676 43.8267,111.343 45.5,110.5C 45.4701,111.497 45.9701,112.164 47,112.5C 51.7952,111.259 56.6285,110.259 61.5,109.5C 63.5,109.5 65.5,109.5 67.5,109.5C 67.366,111.292 67.6993,112.958 68.5,114.5C 63.4643,115.289 58.4643,116.289 53.5,117.5C 53.5,118.5 53.5,119.5 53.5,120.5C 56.4261,119.539 59.4261,118.873 62.5,118.5C 64.1667,118.5 65.8333,118.5 67.5,118.5C 67.2155,121.254 66.5488,123.92 65.5,126.5C 62.77,127.01 60.6034,128.344 59,130.5C 57.1742,128.821 55.0076,127.654 52.5,127C 50.0818,122.994 47.0818,119.494 43.5,116.5C 41.9991,120.094 40.9991,123.761 40.5,127.5C 39.8501,127.196 39.1835,126.863 38.5,126.5C 37.1796,118.343 37.1796,110.343 38.5,102.5 Z"/></g>
<g><path style="opacity:0.997" fill="#0b0d0e" d="M 68.5,114.5 C 72.5,114.5 76.5,114.5 80.5,114.5C 85.4678,115.659 90.4678,116.659 95.5,117.5C 95.5,118.5 95.5,119.5 95.5,120.5C 92.0968,120.149 88.7635,119.482 85.5,118.5C 82.5448,117.841 79.5448,117.508 76.5,117.5C 71.6367,117.181 66.97,117.514 62.5,118.5C 59.4261,118.873 56.4261,119.539 53.5,120.5C 53.5,119.5 53.5,118.5 53.5,117.5C 58.4643,116.289 63.4643,115.289 68.5,114.5 Z"/></g>
<g><path style="opacity:0.879" fill="#444b50" d="M 76.5,117.5 C 79.5448,117.508 82.5448,117.841 85.5,118.5C 83.1685,121.596 81.5018,125.096 80.5,129C 80.6448,129.772 80.9781,130.439 81.5,131C 80.1416,131.934 78.8083,132.768 77.5,133.5C 70.9779,133.823 64.6446,133.49 58.5,132.5C 62.5,132.5 66.5,132.5 70.5,132.5C 71.5511,128.173 72.7177,123.84 74,119.5C 74.9947,118.934 75.828,118.267 76.5,117.5 Z"/></g>
<g><path style="opacity:0.898" fill="#5d6368" d="M 62.5,118.5 C 66.97,117.514 71.6367,117.181 76.5,117.5C 75.828,118.267 74.9947,118.934 74,119.5C 72.7177,123.84 71.5511,128.173 70.5,132.5C 66.5,132.5 62.5,132.5 58.5,132.5C 51.9748,132.336 45.9748,130.669 40.5,127.5C 40.9991,123.761 41.9991,120.094 43.5,116.5C 47.0818,119.494 50.0818,122.994 52.5,127C 55.0076,127.654 57.1742,128.821 59,130.5C 60.6034,128.344 62.77,127.01 65.5,126.5C 66.5488,123.92 67.2155,121.254 67.5,118.5C 65.8333,118.5 64.1667,118.5 62.5,118.5 Z"/></g>
</svg>
