<?xml version="1.0" encoding="UTF-8"?>
<!DOCTYPE svg PUBLIC "-//W3C//DTD SVG 1.1//EN" "http://www.w3.org/Graphics/SVG/1.1/DTD/svg11.dtd">
<svg xmlns="http://www.w3.org/2000/svg" version="1.1" width="150px" height="150px" style="shape-rendering:geometricPrecision; text-rendering:geometricPrecision; image-rendering:optimizeQuality; fill-rule:evenodd; clip-rule:evenodd" xmlns:xlink="http://www.w3.org/1999/xlink">
<g><path style="opacity:0.763" fill="#040505" d="M 69.5,8.5 C 83.2966,9.12998 88.4633,16.13 85,29.5C 98.3561,37.8393 106.523,49.6726 109.5,65C 108.456,74.3834 103.79,81.3834 95.5,86C 100.207,91.2689 104.54,96.7689 108.5,102.5C 107.99,104.088 106.99,105.255 105.5,106C 99.7357,109.216 93.7357,111.883 87.5,114C 88.772,115.046 90.272,115.546 92,115.5C 100.951,113.577 109.951,111.91 119,110.5C 126.032,111.066 132.532,113.233 138.5,117C 139.517,118.049 139.684,119.216 139,120.5C 134.821,126.205 130.655,131.871 126.5,137.5C 121.693,133.733 116.193,132.066 110,132.5C 101.385,132.932 93.0513,134.598 85,137.5C 80.2551,136.46 76.2551,134.127 73,130.5C 70.3085,134.347 66.6418,136.68 62,137.5C 53.7989,134.493 45.2989,132.827 36.5,132.5C 30.2465,131.864 24.7465,133.53 20,137.5C 15.6373,132.129 11.6373,126.463 8,120.5C 7.28885,118.633 7.78885,117.133 9.5,116C 15.1572,113.059 21.1572,111.225 27.5,110.5C 36.7272,111.845 45.8938,113.512 55,115.5C 56.1667,115.167 57.3333,114.833 58.5,114.5C 53.3826,111.777 48.0492,109.277 42.5,107C 40.4148,105.959 38.7481,104.459 37.5,102.5C 42.0085,96.8282 46.6752,91.3282 51.5,86C 41.0244,80.2155 36.5244,71.3822 38,59.5C 39.6123,53.6088 42.2789,48.2754 46,43.5C 51.1983,37.967 56.6983,32.8004 62.5,28C 58.7559,19.3211 61.0892,12.8211 69.5,8.5 Z"/></g>
<g><path style="opacity:0.918" fill="#93979b" d="M 74.5,12.5 C 72.6288,15.2288 70.9621,18.2288 69.5,21.5C 68.2263,23.4514 66.5596,24.7848 64.5,25.5C 62.5346,17.1289 65.8679,12.7955 74.5,12.5 Z"/></g>
<g><path style="opacity:0.886" fill="#6f757a" d="M 74.5,12.5 C 74.8333,12.5 75.1667,12.5 75.5,12.5C 75.4249,15.2062 75.0916,17.8728 74.5,20.5C 71.808,22.8623 69.1413,25.1956 66.5,27.5C 65.5,27.1667 64.8333,26.5 64.5,25.5C 66.5596,24.7848 68.2263,23.4514 69.5,21.5C 70.9621,18.2288 72.6288,15.2288 74.5,12.5 Z"/></g>
<g><path style="opacity:0.855" fill="#474e54" d="M 74.5,20.5 C 74.5,21.1667 74.5,21.8333 74.5,22.5C 72.5,23.976 70.8334,25.8094 69.5,28C 70.0585,28.7247 70.3918,29.5581 70.5,30.5C 69.5123,33.7816 68.8457,37.1149 68.5,40.5C 67.5151,44.6344 67.1818,48.9677 67.5,53.5C 63.5,53.5 59.5,53.5 55.5,53.5C 55.5,57.1667 55.5,60.8333 55.5,64.5C 54.5233,61.7131 54.19,58.7131 54.5,55.5C 54.5,54.8333 54.5,54.1667 54.5,53.5C 54.8417,52.6618 55.5084,52.3284 56.5,52.5C 62.4427,47.3654 66.1093,40.8654 67.5,33C 67.3158,31.6244 66.6491,30.7911 65.5,30.5C 66.1098,29.609 66.4431,28.609 66.5,27.5C 69.1413,25.1956 71.808,22.8623 74.5,20.5 Z"/></g>
<g><path style="opacity:0.922" fill="#999da0" d="M 64.5,31.5 C 65.2389,31.369 65.9056,31.5357 66.5,32C 64.6221,36.2602 62.1221,40.0935 59,43.5C 58.1506,46.5214 57.3173,49.5214 56.5,52.5C 55.5084,52.3284 54.8417,52.6618 54.5,53.5C 46.8211,57.5692 42.8211,63.9025 42.5,72.5C 39.6162,65.654 40.1162,58.9874 44,52.5C 49.5081,44.099 56.3415,37.099 64.5,31.5 Z"/></g>
<g><path style="opacity:0.847" fill="#373e44" d="M 74.5,22.5 C 75.6045,24.1533 75.7712,25.82 75,27.5C 77.6122,31.1475 80.9456,34.8142 85,38.5C 85.8344,42.3383 87.1677,46.3383 89,50.5C 89.7504,51.1258 90.5838,51.6258 91.5,52C 89.6183,52.1981 87.9516,52.6981 86.5,53.5C 83.8333,53.5 81.1667,53.5 78.5,53.5C 78.5,49.1667 78.5,44.8333 78.5,40.5C 75.1667,40.5 71.8333,40.5 68.5,40.5C 68.8457,37.1149 69.5123,33.7816 70.5,30.5C 70.3918,29.5581 70.0585,28.7247 69.5,28C 70.8334,25.8094 72.5,23.976 74.5,22.5 Z"/></g>
<g><path style="opacity:0.997" fill="#0c0e0f" d="M 68.5,40.5 C 71.8333,40.5 75.1667,40.5 78.5,40.5C 78.5,44.8333 78.5,49.1667 78.5,53.5C 81.1667,53.5 83.8333,53.5 86.5,53.5C 88.1667,53.5 89.8333,53.5 91.5,53.5C 91.5,57.1667 91.5,60.8333 91.5,64.5C 87.1667,64.5 82.8333,64.5 78.5,64.5C 78.5,68.8333 78.5,73.1667 78.5,77.5C 74.8333,77.5 71.1667,77.5 67.5,77.5C 67.5,73.1667 67.5,68.8333 67.5,64.5C 65.1667,64.5 62.8333,64.5 60.5,64.5C 58.8333,64.5 57.1667,64.5 55.5,64.5C 55.5,60.8333 55.5,57.1667 55.5,53.5C 59.5,53.5 63.5,53.5 67.5,53.5C 67.1818,48.9677 67.5151,44.6344 68.5,40.5 Z"/></g>
<g><path style="opacity:0.898" fill="#7c8186" d="M 64.5,31.5 C 64.5,30.8333 64.8333,30.5 65.5,30.5C 66.6491,30.7911 67.3158,31.6244 67.5,33C 66.1093,40.8654 62.4427,47.3654 56.5,52.5C 57.3173,49.5214 58.1506,46.5214 59,43.5C 62.1221,40.0935 64.6221,36.2602 66.5,32C 65.9056,31.5357 65.2389,31.369 64.5,31.5 Z"/></g>
<g><path style="opacity:0.91" fill="#8e9396" d="M 76.5,45.5 C 76.1667,45.5 75.8333,45.5 75.5,45.5C 74.5,45.5 73.5,45.5 72.5,45.5C 72.6653,49.1817 72.4986,52.8484 72,56.5C 68.9243,57.2883 65.7577,57.7883 62.5,58C 61.2899,59.0391 60.2899,60.2058 59.5,61.5C 57.744,60.4479 57.0773,58.7812 57.5,56.5C 61.8333,56.5 66.1667,56.5 70.5,56.5C 70.5,52.1667 70.5,47.8333 70.5,43.5C 73.0821,43.0254 75.0821,43.6921 76.5,45.5 Z"/></g>
<g><path style="opacity:0.887" fill="#2c3237" d="M 75.5,12.5 C 81.742,14.6222 83.9087,18.9555 82,25.5C 81.5348,26.9308 80.7014,28.0975 79.5,29C 88.3333,35.1667 95.8333,42.6667 102,51.5C 108.335,63.5247 106.168,73.6914 95.5,82C 91.7814,84.3639 87.7814,85.8639 83.5,86.5C 82.9094,85.8485 82.2427,85.1818 81.5,84.5C 85.8619,79.113 89.1953,73.113 91.5,66.5C 87.5546,65.5091 83.5546,65.1758 79.5,65.5C 79.8168,69.7016 79.4834,73.7016 78.5,77.5C 78.5,73.1667 78.5,68.8333 78.5,64.5C 82.8333,64.5 87.1667,64.5 91.5,64.5C 91.5,60.8333 91.5,57.1667 91.5,53.5C 89.8333,53.5 88.1667,53.5 86.5,53.5C 87.9516,52.6981 89.6183,52.1981 91.5,52C 90.5838,51.6258 89.7504,51.1258 89,50.5C 87.1677,46.3383 85.8344,42.3383 85,38.5C 80.9456,34.8142 77.6122,31.1475 75,27.5C 75.7712,25.82 75.6045,24.1533 74.5,22.5C 74.5,21.8333 74.5,21.1667 74.5,20.5C 75.0916,17.8728 75.4249,15.2062 75.5,12.5 Z"/></g>
<g><path style="opacity:0.961" fill="#323538" d="M 75.5,45.5 C 75.8333,45.5 76.1667,45.5 76.5,45.5C 76.5,48.8333 76.5,52.1667 76.5,55.5C 80.7016,55.1832 84.7016,55.5166 88.5,56.5C 84.1667,56.5 79.8333,56.5 75.5,56.5C 75.5,52.8333 75.5,49.1667 75.5,45.5 Z"/></g>
<g><path style="opacity:0.871" fill="#61686d" d="M 75.5,45.5 C 75.5,49.1667 75.5,52.8333 75.5,56.5C 79.8333,56.5 84.1667,56.5 88.5,56.5C 88.5,58.1667 88.5,59.8333 88.5,61.5C 84.5,61.5 80.5,61.5 76.5,61.5C 76.5,65.8333 76.5,70.1667 76.5,74.5C 74.5,74.5 72.5,74.5 70.5,74.5C 70.5,70.1667 70.5,65.8333 70.5,61.5C 66.8333,61.5 63.1667,61.5 59.5,61.5C 60.2899,60.2058 61.2899,59.0391 62.5,58C 65.7577,57.7883 68.9243,57.2883 72,56.5C 72.4986,52.8484 72.6653,49.1817 72.5,45.5C 73.5,45.5 74.5,45.5 75.5,45.5 Z"/></g>
<g><path style="opacity:0.894" fill="#7a7f84" d="M 54.5,53.5 C 54.5,54.1667 54.5,54.8333 54.5,55.5C 53.5041,55.4142 52.6708,55.7476 52,56.5C 51.1507,63.9276 51.6507,71.2609 53.5,78.5C 53.5466,80.0377 52.8799,81.0377 51.5,81.5C 47.5216,79.5216 44.5216,76.5216 42.5,72.5C 42.8211,63.9025 46.8211,57.5692 54.5,53.5 Z"/></g>
<g><path style="opacity:0.882" fill="#6a7176" d="M 54.5,55.5 C 54.19,58.7131 54.5233,61.7131 55.5,64.5C 57.3932,70.5454 58.0599,76.8787 57.5,83.5C 56.5,83.5 55.5,83.5 54.5,83.5C 52.9731,83.573 51.9731,82.9063 51.5,81.5C 52.8799,81.0377 53.5466,80.0377 53.5,78.5C 51.6507,71.2609 51.1507,63.9276 52,56.5C 52.6708,55.7476 53.5041,55.4142 54.5,55.5 Z"/></g>
<g><path style="opacity:0.865" fill="#383f45" d="M 60.5,64.5 C 62.8333,64.5 65.1667,64.5 67.5,64.5C 67.5,68.8333 67.5,73.1667 67.5,77.5C 71.1667,77.5 74.8333,77.5 78.5,77.5C 79.4834,73.7016 79.8168,69.7016 79.5,65.5C 83.5546,65.1758 87.5546,65.5091 91.5,66.5C 89.1953,73.113 85.8619,79.113 81.5,84.5C 82.2427,85.1818 82.9094,85.8485 83.5,86.5C 79.8834,87.0907 76.2168,87.4241 72.5,87.5C 67.8929,87.6836 63.5595,87.017 59.5,85.5C 61.9154,85.6265 64.2487,85.7932 66.5,86C 66,85.5 65.5,85 65,84.5C 64.7745,80.174 63.9411,76.0073 62.5,72C 62.4205,70.0932 62.7539,68.0932 63.5,66C 62.2625,65.7679 61.2625,65.2679 60.5,64.5 Z"/></g>
<g><path style="opacity:0.863" fill="#4c5359" d="M 55.5,64.5 C 57.1667,64.5 58.8333,64.5 60.5,64.5C 61.2625,65.2679 62.2625,65.7679 63.5,66C 62.7539,68.0932 62.4205,70.0932 62.5,72C 63.9411,76.0073 64.7745,80.174 65,84.5C 65.5,85 66,85.5 66.5,86C 64.2487,85.7932 61.9154,85.6265 59.5,85.5C 57.4471,85.5979 55.7804,84.9313 54.5,83.5C 55.5,83.5 56.5,83.5 57.5,83.5C 58.0599,76.8787 57.3932,70.5454 55.5,64.5 Z"/></g>
<g><path style="opacity:0.887" fill="#2a3035" d="M 92.5,108.5 C 93.2679,106.533 93.2679,104.867 92.5,103.5C 93.8499,102.176 93.6833,101.176 92,100.5C 90.5603,101.148 89.0603,101.481 87.5,101.5C 87.9175,100.778 88.5842,100.278 89.5,100C 86.3613,96.8221 83.3613,93.6555 80.5,90.5C 84.2918,88.9656 88.2918,88.1322 92.5,88C 96.5,92.6667 100.5,97.3333 104.5,102C 100.767,104.635 96.7674,106.802 92.5,108.5 Z"/></g>
<g><path style="opacity:0.847" fill="#3c444a" d="M 53.5,88.5 C 57.1546,87.5119 60.8212,88.0119 64.5,90C 69.8229,90.4994 75.1563,90.666 80.5,90.5C 83.3613,93.6555 86.3613,96.8221 89.5,100C 88.5842,100.278 87.9175,100.778 87.5,101.5C 82.9355,103.04 78.1021,103.707 73,103.5C 69.3167,103.499 65.8167,103.165 62.5,102.5C 63.5,102.5 64.5,102.5 65.5,102.5C 64.8357,95.1565 60.8357,90.4898 53.5,88.5 Z"/></g>
<g><path style="opacity:0.871" fill="#666c71" d="M 53.5,88.5 C 60.8357,90.4898 64.8357,95.1565 65.5,102.5C 64.5,102.5 63.5,102.5 62.5,102.5C 59.4021,102.244 56.4021,101.578 53.5,100.5C 54.5305,99.4477 55.1971,98.1143 55.5,96.5C 55.1136,94.0678 54.4469,91.7345 53.5,89.5C 53.5,89.1667 53.5,88.8333 53.5,88.5 Z"/></g>
<g><path style="opacity:0.922" fill="#989c9f" d="M 53.5,89.5 C 54.4469,91.7345 55.1136,94.0678 55.5,96.5C 55.1971,98.1143 54.5305,99.4477 53.5,100.5C 52.2264,101.189 52.2264,102.023 53.5,103C 56.824,103.943 60.1574,104.776 63.5,105.5C 64.6843,106.688 64.6843,107.855 63.5,109C 61.8659,109.494 60.1992,109.66 58.5,109.5C 52.5074,108.336 47.174,105.836 42.5,102C 45.2745,97.0582 48.9411,92.8916 53.5,89.5 Z"/></g>
<g><path style="opacity:0.995" fill="#0d0e0f" d="M 53.5,100.5 C 56.4021,101.578 59.4021,102.244 62.5,102.5C 65.8167,103.165 69.3167,103.499 73,103.5C 78.1021,103.707 82.9355,103.04 87.5,101.5C 89.0603,101.481 90.5603,101.148 92,100.5C 93.6833,101.176 93.8499,102.176 92.5,103.5C 86.5551,104.755 80.5551,105.755 74.5,106.5C 70.7657,106.677 67.0991,106.344 63.5,105.5C 60.1574,104.776 56.824,103.943 53.5,103C 52.2264,102.023 52.2264,101.189 53.5,100.5 Z"/></g>
<g><path style="opacity:0.865" fill="#393f45" d="M 92.5,103.5 C 93.2679,104.867 93.2679,106.533 92.5,108.5C 82.216,111.512 71.8827,112.179 61.5,110.5C 63.5273,110.662 65.5273,110.495 67.5,110C 70.1921,109.257 72.5254,108.09 74.5,106.5C 80.5551,105.755 86.5551,104.755 92.5,103.5 Z"/></g>
<g><path style="opacity:0.894" fill="#71767b" d="M 63.5,105.5 C 67.0991,106.344 70.7657,106.677 74.5,106.5C 72.5254,108.09 70.1921,109.257 67.5,110C 65.5273,110.495 63.5273,110.662 61.5,110.5C 60.209,110.737 59.209,110.404 58.5,109.5C 60.1992,109.66 61.8659,109.494 63.5,109C 64.6843,107.855 64.6843,106.688 63.5,105.5 Z"/></g>
<g><path style="opacity:0.914" fill="#8e9397" d="M 113.5,114.5 C 120.957,113.7 127.957,115.033 134.5,118.5C 133.122,119.234 131.622,119.901 130,120.5C 124.183,117.735 118.016,116.235 111.5,116C 112.416,115.722 113.082,115.222 113.5,114.5 Z"/></g>
<g><path style="opacity:0.922" fill="#9a9ea1" d="M 33.5,114.5 C 34.4293,115.315 35.4293,116.148 36.5,117C 32.181,117.76 27.8477,118.427 23.5,119C 20.8877,119.639 18.5543,120.806 16.5,122.5C 15.1508,122.154 13.8175,121.821 12.5,121.5C 11.6971,120.577 11.5304,119.577 12,118.5C 13.4194,117.54 14.9194,116.707 16.5,116C 22.0716,114.649 27.7383,114.149 33.5,114.5 Z"/></g>
<g><path style="opacity:0.864" fill="#32383e" d="M 90.5,119.5 C 89.2225,120.749 88.2225,122.249 87.5,124C 88.8333,124.667 90.1667,125.333 91.5,126C 100.813,126.348 109.647,126.514 118,126.5C 122.91,125.85 127.743,124.85 132.5,123.5C 130.542,126.792 128.209,129.792 125.5,132.5C 113.478,127.18 101.478,127.347 89.5,133C 86.8333,133.667 84.1667,133.667 81.5,133C 78,130.833 75.1667,128 73,124.5C 70.9388,130.187 66.9388,133.187 61,133.5C 52.2767,131.278 43.4434,129.611 34.5,128.5C 29.6295,128.515 25.1295,129.848 21,132.5C 19.5979,131.355 18.4312,130.022 17.5,128.5C 18.391,127.89 19.391,127.557 20.5,127.5C 28.1517,126.626 35.8184,126.459 43.5,127C 49.5824,129.812 55.9158,131.146 62.5,131C 61.8333,130.333 61.1667,129.667 60.5,129C 63.1168,128.178 65.7835,127.678 68.5,127.5C 68.528,125.418 67.8613,123.584 66.5,122C 66.8333,121.667 67.1667,121.333 67.5,121C 65.2528,119.723 63.2528,118.223 61.5,116.5C 61.9081,115.357 62.5748,114.357 63.5,113.5C 70.4791,114.711 77.4791,114.711 84.5,113.5C 84.8333,117.167 86.8333,119.167 90.5,119.5 Z"/></g>
<g><path style="opacity:0.863" fill="#474d53" d="M 102.5,116.5 C 102.64,118.124 101.973,119.29 100.5,120C 101.328,120.915 102.328,121.581 103.5,122C 113.161,122.5 122.828,122.666 132.5,122.5C 132.5,122.833 132.5,123.167 132.5,123.5C 127.743,124.85 122.91,125.85 118,126.5C 109.647,126.514 100.813,126.348 91.5,126C 90.1667,125.333 88.8333,124.667 87.5,124C 88.2225,122.249 89.2225,120.749 90.5,119.5C 94.5,118.5 98.5,117.5 102.5,116.5 Z"/></g>
<g><path style="opacity:0.867" fill="#60666b" d="M 113.5,114.5 C 113.082,115.222 112.416,115.722 111.5,116C 118.016,116.235 124.183,117.735 130,120.5C 131.622,119.901 133.122,119.234 134.5,118.5C 135.473,120.292 134.806,121.625 132.5,122.5C 122.828,122.666 113.161,122.5 103.5,122C 102.328,121.581 101.328,120.915 100.5,120C 101.973,119.29 102.64,118.124 102.5,116.5C 106.112,115.578 109.779,114.911 113.5,114.5 Z"/></g>
<g><path style="opacity:0.847" fill="#40474d" d="M 61.5,116.5 C 63.2528,118.223 65.2528,119.723 67.5,121C 67.1667,121.333 66.8333,121.667 66.5,122C 67.8613,123.584 68.528,125.418 68.5,127.5C 65.7835,127.678 63.1168,128.178 60.5,129C 61.1667,129.667 61.8333,130.333 62.5,131C 55.9158,131.146 49.5824,129.812 43.5,127C 35.8184,126.459 28.1517,126.626 20.5,127.5C 27.1827,126.099 34.0161,125.099 41,124.5C 42.6667,124.833 44.3333,125.167 46,125.5C 49.1664,124.386 52.6664,123.219 56.5,122C 57.6721,121.581 58.6721,120.915 59.5,120C 59.2716,119.601 58.9382,119.435 58.5,119.5C 59.6935,118.728 60.6935,117.728 61.5,116.5 Z"/></g>
<g><path style="opacity:0.878" fill="#6f757a" d="M 33.5,114.5 C 39.5747,115.519 45.5747,116.852 51.5,118.5C 51.3893,119.117 51.056,119.617 50.5,120C 38.8556,120.922 27.5223,123.089 16.5,126.5C 14.9373,125.055 13.604,123.389 12.5,121.5C 13.8175,121.821 15.1508,122.154 16.5,122.5C 18.5543,120.806 20.8877,119.639 23.5,119C 27.8477,118.427 32.181,117.76 36.5,117C 35.4293,116.148 34.4293,115.315 33.5,114.5 Z"/></g>
<g><path style="opacity:0.867" fill="#565c62" d="M 51.5,118.5 C 53.7638,119.219 56.0971,119.552 58.5,119.5C 58.9382,119.435 59.2716,119.601 59.5,120C 58.6721,120.915 57.6721,121.581 56.5,122C 52.6664,123.219 49.1664,124.386 46,125.5C 44.3333,125.167 42.6667,124.833 41,124.5C 34.0161,125.099 27.1827,126.099 20.5,127.5C 19.391,127.557 18.391,127.89 17.5,128.5C 16.6618,128.158 16.3284,127.492 16.5,126.5C 27.5223,123.089 38.8556,120.922 50.5,120C 51.056,119.617 51.3893,119.117 51.5,118.5 Z"/></g>
</svg>
