<?xml version="1.0" encoding="UTF-8"?>
<!DOCTYPE svg PUBLIC "-//W3C//DTD SVG 1.1//EN" "http://www.w3.org/Graphics/SVG/1.1/DTD/svg11.dtd">
<svg xmlns="http://www.w3.org/2000/svg" version="1.1" width="150px" height="150px" style="shape-rendering:geometricPrecision; text-rendering:geometricPrecision; image-rendering:optimizeQuality; fill-rule:evenodd; clip-rule:evenodd" xmlns:xlink="http://www.w3.org/1999/xlink">
<g><path style="opacity:0.738" fill="#070708" d="M 64.5,14.5 C 66.258,14.8769 67.9246,15.5435 69.5,16.5C 71.7113,19.7556 74.0446,22.9223 76.5,26C 97.3701,24.018 112.87,32.1846 123,50.5C 132.681,75.2844 136.014,100.951 133,127.5C 132.788,130.758 132.288,133.924 131.5,137C 102.833,137.667 74.1667,137.667 45.5,137C 41.6951,132.909 40.5284,128.076 42,122.5C 45.8637,112.963 51.6971,104.796 59.5,98C 64.0603,93.8056 68.8936,89.9723 74,86.5C 75.4014,84.8541 75.568,83.1875 74.5,81.5C 61.5,91.6667 48.5,101.833 35.5,112C 34.1667,112.667 32.8333,112.667 31.5,112C 26.8805,108.812 22.0472,105.978 17,103.5C 13.6337,96.7009 13.967,90.0342 18,83.5C 25.3596,72.49 31.3596,60.8233 36,48.5C 37.6667,46.1667 39.3333,43.8333 41,41.5C 40.8433,38.1809 40.3433,34.8476 39.5,31.5C 39.0806,25.4137 41.7473,23.2471 47.5,25C 50.4185,26.7088 53.2518,28.5421 56,30.5C 57.3821,26.1891 58.8821,21.8558 60.5,17.5C 61.9014,16.4793 63.2347,15.4793 64.5,14.5 Z"/></g>
<g><path style="opacity:0.839" fill="#3b4248" d="M 45.5,28.5 C 48.2445,29.0844 50.5779,30.4177 52.5,32.5C 51.5331,33.984 50.1998,34.984 48.5,35.5C 46.1496,33.7867 45.1496,31.4534 45.5,28.5 Z"/></g>
<g><path style="opacity:0.843" fill="#40484f" d="M 67.5,28.5 C 67.6657,32.8461 67.499,37.1794 67,41.5C 66.2261,43.9393 64.7261,45.7727 62.5,47C 63.1501,48.6092 62.6501,50.1092 61,51.5C 60.7638,53.764 60.2638,55.9307 59.5,58C 61.0016,58.5831 62.3349,59.4164 63.5,60.5C 60.1443,70.6367 54.4777,79.8033 46.5,88C 41.2501,90.4468 36.5834,93.6135 32.5,97.5C 30.6871,100.647 28.0204,102.647 24.5,103.5C 24.1961,102.85 23.8627,102.183 23.5,101.5C 25.5803,99.0072 27.4136,96.3405 29,93.5C 29.1276,90.4856 29.1276,87.4856 29,84.5C 33.2975,82.1724 37.6308,79.8391 42,77.5C 42.3333,77.8333 42.6667,78.1667 43,78.5C 50.3089,72.4709 52.4755,65.1376 49.5,56.5C 52.9286,59.3153 55.762,58.6486 58,54.5C 58.9558,50.0748 57.1225,48.4082 52.5,49.5C 55.0641,46.9515 57.5641,44.2849 60,41.5C 61.7887,38.259 63.2887,34.9257 64.5,31.5C 65.1667,30.1667 66.1667,29.1667 67.5,28.5 Z"/></g>
<g><path style="opacity:0.867" fill="#555b61" d="M 92.5,30.5 C 97.6552,31.4122 102.322,33.4122 106.5,36.5C 104.206,36.4716 101.873,36.8049 99.5,37.5C 97.8333,38.5 96.5,39.8333 95.5,41.5C 94.209,41.7373 93.209,41.404 92.5,40.5C 93.1217,39.3734 93.955,38.3734 95,37.5C 95.7494,36.365 95.5827,35.365 94.5,34.5C 92.4807,36.1897 90.4807,37.8564 88.5,39.5C 87.5084,39.6716 86.8417,39.3382 86.5,38.5C 87.925,37.078 88.925,35.4113 89.5,33.5C 89.0825,32.7784 88.4158,32.2784 87.5,32C 88.9047,30.7308 90.5714,30.2308 92.5,30.5 Z"/></g>
<g><path style="opacity:0.839" fill="#384046" d="M 68.5,21.5 C 72.1429,26.1479 75.8096,30.8145 79.5,35.5C 80.6662,33.6351 80.3329,31.9684 78.5,30.5C 83.3181,29.1876 87.9848,29.1876 92.5,30.5C 90.5714,30.2308 88.9047,30.7308 87.5,32C 88.4158,32.2784 89.0825,32.7784 89.5,33.5C 86.7277,33.5952 84.7277,34.9285 83.5,37.5C 84.325,38.3857 85.325,38.719 86.5,38.5C 86.8417,39.3382 87.5084,39.6716 88.5,39.5C 87.1501,40.8235 87.3167,41.8235 89,42.5C 90.3026,42.0217 91.4693,41.355 92.5,40.5C 93.209,41.404 94.209,41.7373 95.5,41.5C 94.828,42.2674 93.9947,42.9341 93,43.5C 92.2599,44.7494 92.4265,45.7494 93.5,46.5C 93.6107,47.1174 93.944,47.6174 94.5,48C 90.6959,53.4537 90.8626,58.9537 95,64.5C 95.676,68.7032 96.176,72.7032 96.5,76.5C 94.5293,83.3847 93.0293,90.3847 92,97.5C 86.7813,108.693 84.2813,120.36 84.5,132.5C 83.5,132.5 82.5,132.5 81.5,132.5C 81.4012,118.893 84.7346,106.227 91.5,94.5C 89.9796,88.7749 88.9796,82.9415 88.5,77C 88.1667,76.5 87.8333,76 87.5,75.5C 86.8243,76.6016 86.1577,77.6016 85.5,78.5C 86.5114,71.201 85.0114,64.5343 81,58.5C 77.3704,56.9047 73.5371,55.9047 69.5,55.5C 67.9121,56.0096 66.7455,57.0096 66,58.5C 65.7031,61.914 65.0365,65.2473 64,68.5C 61.8252,73.5246 59.1585,78.1912 56,82.5C 51.8153,85.6878 47.9819,89.1878 44.5,93C 40.996,94.2545 37.6626,95.7545 34.5,97.5C 33.8333,97.5 33.1667,97.5 32.5,97.5C 36.5834,93.6135 41.2501,90.4468 46.5,88C 54.4777,79.8033 60.1443,70.6367 63.5,60.5C 62.3349,59.4164 61.0016,58.5831 59.5,58C 60.2638,55.9307 60.7638,53.764 61,51.5C 62.6501,50.1092 63.1501,48.6092 62.5,47C 64.7261,45.7727 66.2261,43.9393 67,41.5C 67.499,37.1794 67.6657,32.8461 67.5,28.5C 68.3686,26.283 68.702,23.9496 68.5,21.5 Z"/></g>
<g><path style="opacity:0.997" fill="#0f1011" d="M 89.5,33.5 C 88.925,35.4113 87.925,37.078 86.5,38.5C 85.325,38.719 84.325,38.3857 83.5,37.5C 84.7277,34.9285 86.7277,33.5952 89.5,33.5 Z"/></g>
<g><path style="opacity:0.906" fill="#7c8185" d="M 45.5,28.5 C 45.1496,31.4534 46.1496,33.7867 48.5,35.5C 45.7749,38.3606 43.9416,37.6939 43,33.5C 42.3333,31.8333 42.3333,30.1667 43,28.5C 43.9772,27.2264 44.8106,27.2264 45.5,28.5 Z"/></g>
<g><path style="opacity:0.914" fill="#919699" d="M 68.5,21.5 C 68.702,23.9496 68.3686,26.283 67.5,28.5C 66.1667,29.1667 65.1667,30.1667 64.5,31.5C 61.0812,32.0422 59.4145,34.0422 59.5,37.5C 57.4167,39.4243 55.4167,41.591 53.5,44C 48.6462,44.5869 44.9795,46.9202 42.5,51C 40.8695,58.5103 39.2028,66.0103 37.5,73.5C 37.1667,74.1667 36.8333,74.8333 36.5,75.5C 33.1879,76.8204 29.8546,78.1538 26.5,79.5C 25.8933,79.3764 25.56,79.0431 25.5,78.5C 28.4034,73.0292 31.57,67.6959 35,62.5C 36.5975,52.4794 41.4308,44.3127 49.5,38C 53.0838,35.9586 56.5838,33.792 60,31.5C 61.5406,27.3978 62.7073,23.2312 63.5,19C 65.9808,18.2404 67.6475,19.0737 68.5,21.5 Z"/></g>
<g><path style="opacity:0.999" fill="#0d0e0f" d="M 92.5,40.5 C 91.4693,41.355 90.3026,42.0217 89,42.5C 87.3167,41.8235 87.1501,40.8235 88.5,39.5C 90.4807,37.8564 92.4807,36.1897 94.5,34.5C 95.5827,35.365 95.7494,36.365 95,37.5C 93.955,38.3734 93.1217,39.3734 92.5,40.5 Z"/></g>
<g><path style="opacity:0.994" fill="#0b0c0d" d="M 99.5,37.5 C 100.376,37.3691 101.043,37.7025 101.5,38.5C 100.143,40.1856 98.8098,41.8523 97.5,43.5C 96.1667,44.5 94.8333,45.5 93.5,46.5C 92.4265,45.7494 92.2599,44.7494 93,43.5C 93.9947,42.9341 94.828,42.2674 95.5,41.5C 96.5,39.8333 97.8333,38.5 99.5,37.5 Z"/></g>
<g><path style="opacity:0.996" fill="#090a0b" d="M 102.5,47.5 C 96.8118,51.7148 95.8118,51.0482 99.5,45.5C 106.863,38.5361 107.863,39.2028 102.5,47.5 Z"/></g>
<g><path style="opacity:0.867" fill="#575d63" d="M 64.5,31.5 C 63.2887,34.9257 61.7887,38.259 60,41.5C 57.5641,44.2849 55.0641,46.9515 52.5,49.5C 50.1496,51.2133 49.1496,53.5466 49.5,56.5C 52.4755,65.1376 50.3089,72.4709 43,78.5C 42.6667,78.1667 42.3333,77.8333 42,77.5C 37.6308,79.8391 33.2975,82.1724 29,84.5C 29.1276,87.4856 29.1276,90.4856 29,93.5C 27.4136,96.3405 25.5803,99.0072 23.5,101.5C 23.8627,102.183 24.1961,102.85 24.5,103.5C 21.7081,103.548 19.8747,102.215 19,99.5C 18.1925,95.9733 18.3592,92.6399 19.5,89.5C 24.8622,85.2018 30.5289,80.5351 36.5,75.5C 36.8333,74.8333 37.1667,74.1667 37.5,73.5C 40.4278,72.4086 42.5945,70.4086 44,67.5C 45.2413,60.7111 46.908,54.0445 49,47.5C 54.3509,45.9799 57.8509,42.6466 59.5,37.5C 59.4145,34.0422 61.0812,32.0422 64.5,31.5 Z"/></g>
<g><path style="opacity:1" fill="#090a0b" d="M 108.5,49.5 C 106.186,51.4773 103.853,53.4773 101.5,55.5C 100.417,54.635 100.251,53.635 101,52.5C 102.376,51.2949 103.542,49.9616 104.5,48.5C 106.186,46.9835 108.019,45.6502 110,44.5C 110.5,44.8333 111,45.1667 111.5,45.5C 110.476,46.8518 109.476,48.1851 108.5,49.5 Z"/></g>
<g><path style="opacity:0.875" fill="#696f74" d="M 59.5,37.5 C 57.8509,42.6466 54.3509,45.9799 49,47.5C 46.908,54.0445 45.2413,60.7111 44,67.5C 42.5945,70.4086 40.4278,72.4086 37.5,73.5C 39.2028,66.0103 40.8695,58.5103 42.5,51C 44.9795,46.9202 48.6462,44.5869 53.5,44C 55.4167,41.591 57.4167,39.4243 59.5,37.5 Z"/></g>
<g><path style="opacity:0.996" fill="#0c0e0e" d="M 52.5,49.5 C 57.1225,48.4082 58.9558,50.0748 58,54.5C 55.762,58.6486 52.9286,59.3153 49.5,56.5C 49.1496,53.5466 50.1496,51.2133 52.5,49.5 Z"/></g>
<g><path style="opacity:0.996" fill="#070909" d="M 111.5,54.5 C 109.704,55.7927 108.037,57.2927 106.5,59C 105.365,59.7494 104.365,59.5827 103.5,58.5C 105.548,55.785 107.882,53.4517 110.5,51.5C 111.427,49.5241 112.76,49.1908 114.5,50.5C 113.476,51.8518 112.476,53.1851 111.5,54.5 Z"/></g>
<g><path style="opacity:0.887" fill="#31373b" d="M 97.5,43.5 C 97.5,44.8333 98.1667,45.5 99.5,45.5C 95.8118,51.0482 96.8118,51.7148 102.5,47.5C 102.842,48.3382 103.508,48.6716 104.5,48.5C 103.542,49.9616 102.376,51.2949 101,52.5C 100.251,53.635 100.417,54.635 101.5,55.5C 103.853,53.4773 106.186,51.4773 108.5,49.5C 108.5,50.8333 109.167,51.5 110.5,51.5C 107.882,53.4517 105.548,55.785 103.5,58.5C 104.365,59.5827 105.365,59.7494 106.5,59C 108.037,57.2927 109.704,55.7927 111.5,54.5C 111.263,55.791 111.596,56.791 112.5,57.5C 111.167,59.5 109.5,61.1667 107.5,62.5C 106.778,62.9175 106.278,63.5842 106,64.5C 105.167,63.5 104.333,62.5 103.5,61.5C 102.914,61.7093 102.414,62.0426 102,62.5C 102.219,67.4848 102.219,72.4848 102,77.5C 99.7956,81.7468 98.7956,86.0801 99,90.5C 98.205,92.9012 97.0383,95.0679 95.5,97C 94.5701,103.203 94.5701,109.203 95.5,115C 94.8333,116.667 94.1667,118.333 93.5,120C 93.9122,122.872 93.9122,125.872 93.5,129C 93.9054,129.945 94.572,130.612 95.5,131C 92.834,132.061 90.1673,132.894 87.5,133.5C 85.5,133.5 83.5,133.5 81.5,133.5C 81.5,133.167 81.5,132.833 81.5,132.5C 82.5,132.5 83.5,132.5 84.5,132.5C 84.2813,120.36 86.7813,108.693 92,97.5C 93.0293,90.3847 94.5293,83.3847 96.5,76.5C 96.176,72.7032 95.676,68.7032 95,64.5C 90.8626,58.9537 90.6959,53.4537 94.5,48C 93.944,47.6174 93.6107,47.1174 93.5,46.5C 94.8333,45.5 96.1667,44.5 97.5,43.5 Z"/></g>
<g><path style="opacity:0.894" fill="#73797d" d="M 53.5,52.5 C 55.6569,53.0533 55.4903,54.0533 53,55.5C 52.5304,54.4232 52.6971,53.4232 53.5,52.5 Z"/></g>
<g><path style="opacity:0.997" fill="#080909" d="M 114.5,60.5 C 112.814,62.0165 110.981,63.3498 109,64.5C 107.97,64.1639 107.47,63.4972 107.5,62.5C 109.5,61.1667 111.167,59.5 112.5,57.5C 118.048,53.8118 118.715,54.8118 114.5,60.5 Z"/></g>
<g><path style="opacity:0.999" fill="#090a0b" d="M 119.5,63.5 C 116.87,65.6281 114.37,67.9614 112,70.5C 111.308,69.9747 110.808,69.3081 110.5,68.5C 112.19,66.4807 113.856,64.4807 115.5,62.5C 116.936,60.6815 118.603,60.3482 120.5,61.5C 120.137,62.1835 119.804,62.8501 119.5,63.5 Z"/></g>
<g><path style="opacity:0.892" fill="#2a3034" d="M 114.5,60.5 C 114.328,61.4916 114.662,62.1583 115.5,62.5C 113.856,64.4807 112.19,66.4807 110.5,68.5C 110.808,69.3081 111.308,69.9747 112,70.5C 114.37,67.9614 116.87,65.6281 119.5,63.5C 119.263,64.791 119.596,65.791 120.5,66.5C 118.83,69.0016 116.664,71.0016 114,72.5C 113.251,73.635 113.417,74.635 114.5,75.5C 115.852,74.4756 117.185,73.4756 118.5,72.5C 118.833,73.5 119.5,74.1667 120.5,74.5C 119.19,76.1477 117.857,77.8144 116.5,79.5C 117.808,80.6256 119.142,80.6256 120.5,79.5C 120.328,80.4916 120.662,81.1583 121.5,81.5C 120.524,82.8149 119.524,84.1482 118.5,85.5C 119.808,86.6256 121.142,86.6256 122.5,85.5C 123.1,86.8999 124.1,87.8999 125.5,88.5C 121.765,88.5458 120.432,90.2125 121.5,93.5C 122.518,92.8075 123.518,92.1408 124.5,91.5C 124.247,93.8273 124.914,95.8273 126.5,97.5C 126.069,98.2935 125.735,99.1268 125.5,100C 127.567,108.191 128.9,116.358 129.5,124.5C 129.5,127.5 129.5,130.5 129.5,133.5C 115.5,133.5 101.5,133.5 87.5,133.5C 90.1673,132.894 92.834,132.061 95.5,131C 94.572,130.612 93.9054,129.945 93.5,129C 93.9122,125.872 93.9122,122.872 93.5,120C 94.1667,118.333 94.8333,116.667 95.5,115C 94.5701,109.203 94.5701,103.203 95.5,97C 97.0383,95.0679 98.205,92.9012 99,90.5C 98.7956,86.0801 99.7956,81.7468 102,77.5C 102.219,72.4848 102.219,67.4848 102,62.5C 102.414,62.0426 102.914,61.7093 103.5,61.5C 104.333,62.5 105.167,63.5 106,64.5C 106.278,63.5842 106.778,62.9175 107.5,62.5C 107.47,63.4972 107.97,64.1639 109,64.5C 110.981,63.3498 112.814,62.0165 114.5,60.5 Z"/></g>
<g><path style="opacity:0.91" fill="#41464a" d="M 99.5,37.5 C 101.873,36.8049 104.206,36.4716 106.5,36.5C 116.762,44.6569 123.262,55.3235 126,68.5C 130.216,86.9747 131.383,105.641 129.5,124.5C 128.9,116.358 127.567,108.191 125.5,100C 125.735,99.1268 126.069,98.2935 126.5,97.5C 124.914,95.8273 124.247,93.8273 124.5,91.5C 125.11,90.609 125.443,89.609 125.5,88.5C 124.1,87.8999 123.1,86.8999 122.5,85.5C 124.319,84.0638 124.652,82.3971 123.5,80.5C 122.817,80.8627 122.15,81.1961 121.5,81.5C 120.662,81.1583 120.328,80.4916 120.5,79.5C 121.685,78.1434 122.685,76.6434 123.5,75C 122.824,73.3167 121.824,73.1501 120.5,74.5C 119.5,74.1667 118.833,73.5 118.5,72.5C 119.122,71.3734 119.955,70.3734 121,69.5C 121.74,68.2506 121.573,67.2506 120.5,66.5C 119.596,65.791 119.263,64.791 119.5,63.5C 119.804,62.8501 120.137,62.1835 120.5,61.5C 118.603,60.3482 116.936,60.6815 115.5,62.5C 114.662,62.1583 114.328,61.4916 114.5,60.5C 118.715,54.8118 118.048,53.8118 112.5,57.5C 111.596,56.791 111.263,55.791 111.5,54.5C 112.476,53.1851 113.476,51.8518 114.5,50.5C 112.76,49.1908 111.427,49.5241 110.5,51.5C 109.167,51.5 108.5,50.8333 108.5,49.5C 109.476,48.1851 110.476,46.8518 111.5,45.5C 111,45.1667 110.5,44.8333 110,44.5C 108.019,45.6502 106.186,46.9835 104.5,48.5C 103.508,48.6716 102.842,48.3382 102.5,47.5C 107.863,39.2028 106.863,38.5361 99.5,45.5C 98.1667,45.5 97.5,44.8333 97.5,43.5C 98.8098,41.8523 100.143,40.1856 101.5,38.5C 101.043,37.7025 100.376,37.3691 99.5,37.5 Z"/></g>
<g><path style="opacity:0.89" fill="#2c3237" d="M 85.5,78.5 C 84.169,80.1624 82.8357,81.829 81.5,83.5C 80.7492,82.624 80.2492,81.624 80,80.5C 79.8019,82.3817 79.3019,84.0484 78.5,85.5C 78.9452,82.6354 78.2785,80.1354 76.5,78C 77,77.5 77.5,77 78,76.5C 78.6667,72.5 78.6667,68.5 78,64.5C 77.8666,61.5862 76.6999,59.2529 74.5,57.5C 74.1667,58 73.8333,58.5 73.5,59C 75.7895,65.1546 75.9562,71.3213 74,77.5C 61.1667,87.6667 48.3333,97.8333 35.5,108C 33.8659,108.494 32.1992,108.66 30.5,108.5C 29.8895,105.039 31.0561,102.372 34,100.5C 34.4828,99.552 34.6495,98.552 34.5,97.5C 37.6626,95.7545 40.996,94.2545 44.5,93C 47.9819,89.1878 51.8153,85.6878 56,82.5C 59.1585,78.1912 61.8252,73.5246 64,68.5C 65.0365,65.2473 65.7031,61.914 66,58.5C 66.7455,57.0096 67.9121,56.0096 69.5,55.5C 73.5371,55.9047 77.3704,56.9047 81,58.5C 85.0114,64.5343 86.5114,71.201 85.5,78.5 Z"/></g>
<g><path style="opacity:0.995" fill="#060808" d="M 120.5,66.5 C 121.573,67.2506 121.74,68.2506 121,69.5C 119.955,70.3734 119.122,71.3734 118.5,72.5C 117.185,73.4756 115.852,74.4756 114.5,75.5C 113.417,74.635 113.251,73.635 114,72.5C 116.664,71.0016 118.83,69.0016 120.5,66.5 Z"/></g>
<g><path style="opacity:0.997" fill="#080909" d="M 120.5,79.5 C 119.142,80.6256 117.808,80.6256 116.5,79.5C 117.857,77.8144 119.19,76.1477 120.5,74.5C 121.824,73.1501 122.824,73.3167 123.5,75C 122.685,76.6434 121.685,78.1434 120.5,79.5 Z"/></g>
<g><path style="opacity:0.898" fill="#787d82" d="M 36.5,75.5 C 30.5289,80.5351 24.8622,85.2018 19.5,89.5C 20.7417,85.3447 22.7417,81.678 25.5,78.5C 25.56,79.0431 25.8933,79.3764 26.5,79.5C 29.8546,78.1538 33.1879,76.8204 36.5,75.5 Z"/></g>
<g><path style="opacity:1" fill="#080909" d="M 122.5,85.5 C 121.142,86.6256 119.808,86.6256 118.5,85.5C 119.524,84.1482 120.524,82.8149 121.5,81.5C 122.15,81.1961 122.817,80.8627 123.5,80.5C 124.652,82.3971 124.319,84.0638 122.5,85.5 Z"/></g>
<g><path style="opacity:0.994" fill="#090a0a" d="M 125.5,88.5 C 125.443,89.609 125.11,90.609 124.5,91.5C 123.518,92.1408 122.518,92.8075 121.5,93.5C 120.432,90.2125 121.765,88.5458 125.5,88.5 Z"/></g>
<g><path style="opacity:0.999" fill="#0e0f10" d="M 24.5,89.5 C 25.9953,89.4148 26.9953,90.0815 27.5,91.5C 26.2418,94.4995 24.2418,95.4995 21.5,94.5C 22.9524,93.0603 23.9524,91.3936 24.5,89.5 Z"/></g>
<g><path style="opacity:0.871" fill="#5b6167" d="M 76.5,133.5 C 72.8333,133.5 69.1667,133.5 65.5,133.5C 67.3691,132.835 69.3691,132.169 71.5,131.5C 71.0539,129.632 70.7205,127.799 70.5,126C 71.8816,118.881 73.2149,111.715 74.5,104.5C 73.9563,102.326 73.9563,100.326 74.5,98.5C 72.2671,99.0161 70.6004,98.0161 69.5,95.5C 69.8333,94.5 70.5,93.8333 71.5,93.5C 75.066,92.7115 78.066,90.8782 80.5,88C 82.0738,87.3013 83.4071,87.6346 84.5,89C 84.421,91.305 84.2543,93.805 84,96.5C 78.7976,108.306 76.2976,120.639 76.5,133.5 Z"/></g>
<g><path style="opacity:0.894" fill="#464c51" d="M 81.5,132.5 C 81.5,132.833 81.5,133.167 81.5,133.5C 79.8333,133.5 78.1667,133.5 76.5,133.5C 76.2976,120.639 78.7976,108.306 84,96.5C 84.2543,93.805 84.421,91.305 84.5,89C 83.4071,87.6346 82.0738,87.3013 80.5,88C 78.066,90.8782 75.066,92.7115 71.5,93.5C 74.5431,91.4567 76.8764,88.7901 78.5,85.5C 79.3019,84.0484 79.8019,82.3817 80,80.5C 80.2492,81.624 80.7492,82.624 81.5,83.5C 82.8357,81.829 84.169,80.1624 85.5,78.5C 86.1577,77.6016 86.8243,76.6016 87.5,75.5C 87.8333,76 88.1667,76.5 88.5,77C 88.9796,82.9415 89.9796,88.7749 91.5,94.5C 84.7346,106.227 81.4012,118.893 81.5,132.5 Z"/></g>
<g><path style="opacity:0.882" fill="#6b7075" d="M 69.5,95.5 C 70.6004,98.0161 72.2671,99.0161 74.5,98.5C 73.9563,100.326 73.9563,102.326 74.5,104.5C 73.2149,111.715 71.8816,118.881 70.5,126C 70.7205,127.799 71.0539,129.632 71.5,131.5C 69.3691,132.169 67.3691,132.835 65.5,133.5C 64.5,133.5 63.5,133.5 62.5,133.5C 60.5378,122.804 59.8711,112.47 60.5,102.5C 62.9485,99.4442 65.9485,97.1108 69.5,95.5 Z"/></g>
<g><path style="opacity:0.906" fill="#878c90" d="M 60.5,102.5 C 59.8711,112.47 60.5378,122.804 62.5,133.5C 60.8333,133.5 59.1667,133.5 57.5,133.5C 57.9175,132.778 58.5842,132.278 59.5,132C 58.0434,128.806 57.0434,125.473 56.5,122C 56.2928,119.368 56.6261,117.035 57.5,115C 55.4311,114.676 55.0977,113.842 56.5,112.5C 56.0057,110.974 55.339,109.641 54.5,108.5C 56.1667,106.167 58.1667,104.167 60.5,102.5 Z"/></g>
<g><path style="opacity:0.914" fill="#999da1" d="M 54.5,108.5 C 55.339,109.641 56.0057,110.974 56.5,112.5C 55.0977,113.842 55.4311,114.676 57.5,115C 56.6261,117.035 56.2928,119.368 56.5,122C 57.0434,125.473 58.0434,128.806 59.5,132C 58.5842,132.278 57.9175,132.778 57.5,133.5C 53.5,133.5 49.5,133.5 45.5,133.5C 43.7561,123.345 46.7561,115.012 54.5,108.5 Z"/></g>
</svg>
