<?xml version="1.0" encoding="UTF-8"?>
<!DOCTYPE svg PUBLIC "-//W3C//DTD SVG 1.1//EN" "http://www.w3.org/Graphics/SVG/1.1/DTD/svg11.dtd">
<svg xmlns="http://www.w3.org/2000/svg" version="1.1" width="150px" height="150px" style="shape-rendering:geometricPrecision; text-rendering:geometricPrecision; image-rendering:optimizeQuality; fill-rule:evenodd; clip-rule:evenodd" xmlns:xlink="http://www.w3.org/1999/xlink">
<g><path style="opacity:0.736" fill="#0d0e0e" d="M 29.5,26.5 C 37.1667,26.5 44.8333,26.5 52.5,26.5C 52.5,29.8333 52.5,33.1667 52.5,36.5C 55.5184,36.6646 58.5184,36.498 61.5,36C 62.5,33 63.5,30 64.5,27C 71.1915,26.1691 77.8582,26.3358 84.5,27.5C 85.6416,30.3992 86.3083,33.3992 86.5,36.5C 89.5,36.5 92.5,36.5 95.5,36.5C 95.2161,33.2234 95.5495,30.0567 96.5,27C 104.413,26.1859 112.246,26.3526 120,27.5C 120.667,34.8333 120.667,42.1667 120,49.5C 116.544,53.446 112.877,57.1126 109,60.5C 108.333,74.8333 108.333,89.1667 109,103.5C 110.262,105.303 111.929,106.636 114,107.5C 114.882,110.789 115.548,114.123 116,117.5C 119.366,118.374 122.7,119.374 126,120.5C 126.667,125.833 126.667,131.167 126,136.5C 91.9048,137.662 57.7381,137.829 23.5,137C 22.2289,134.446 21.5623,131.613 21.5,128.5C 21.8333,125.833 22.1667,123.167 22.5,120.5C 25.7131,119.573 28.8797,118.573 32,117.5C 33.4064,113.969 34.2397,110.302 34.5,106.5C 37.2919,106.548 39.1253,105.215 40,102.5C 40.6667,88.8333 40.6667,75.1667 40,61.5C 36.3333,57.8333 32.6667,54.1667 29,50.5C 28.2004,42.4211 28.3671,34.4211 29.5,26.5 Z"/></g>
<g><path style="opacity:0.902" fill="#858787" d="M 49.5,30.5 C 43.8333,30.5 38.1667,30.5 32.5,30.5C 32.5,36.5 32.5,42.5 32.5,48.5C 31.5098,42.3554 31.1765,36.0221 31.5,29.5C 37.69,29.1771 43.69,29.5104 49.5,30.5 Z"/></g>
<g><path style="opacity:0.918" fill="#555757" d="M 116.5,30.5 C 112.833,30.5 109.167,30.5 105.5,30.5C 103.5,30.5 101.5,30.5 99.5,30.5C 99.81,33.7131 99.4767,36.7131 98.5,39.5C 98.5,36.1667 98.5,32.8333 98.5,29.5C 104.69,29.1771 110.69,29.5104 116.5,30.5 Z"/></g>
<g><path style="opacity:0.827" fill="#e8eeee" d="M 105.5,30.5 C 104.439,33.5107 103.273,36.5107 102,39.5C 100.708,40.7911 99.5417,40.7911 98.5,39.5C 99.4767,36.7131 99.81,33.7131 99.5,30.5C 101.5,30.5 103.5,30.5 105.5,30.5 Z"/></g>
<g><path style="opacity:0.597" fill="#eef5f5" d="M 49.5,30.5 C 49.19,33.7131 49.5233,36.7131 50.5,39.5C 54.9819,40.3255 59.6486,40.8255 64.5,41C 64,41.5 63.5,42 63,42.5C 58.7165,40.7633 54.8832,41.43 51.5,44.5C 51.3875,47.4389 51.7209,50.4389 52.5,53.5C 53.2485,55.0356 54.2485,56.3689 55.5,57.5C 60.9853,58.1668 66.3187,58.8335 71.5,59.5C 65.1667,59.5 58.8333,59.5 52.5,59.5C 49.1501,59.665 45.8168,59.4983 42.5,59C 38.9626,55.6309 35.6293,52.1309 32.5,48.5C 32.5,42.5 32.5,36.5 32.5,30.5C 38.1667,30.5 43.8333,30.5 49.5,30.5 Z"/></g>
<g><path style="opacity:0.439" fill="#c3cccc" d="M 83.5,37.5 C 84.3382,37.8417 84.6716,38.5084 84.5,39.5C 88.6472,40.3247 92.9805,40.8247 97.5,41C 95.1902,41.4966 92.8568,41.6633 90.5,41.5C 89.9478,43.3307 89.9478,44.9974 90.5,46.5C 89.4706,46.2964 88.4706,46.7964 87.5,48C 88.1667,48.3333 88.8333,48.6667 89.5,49C 89.0722,51.6287 88.0722,53.962 86.5,56C 88.3008,56.3173 88.6341,56.984 87.5,58C 89.1667,58.3333 90.8333,58.6667 92.5,59C 88.5138,59.4988 84.5138,59.6655 80.5,59.5C 69.2917,58.9439 67.4583,54.6105 75,46.5C 76.3639,47.2583 77.5305,46.7583 78.5,45C 78.1667,44.6667 77.8333,44.3333 77.5,44C 79.8633,43.4115 80.8633,41.9115 80.5,39.5C 82.1788,39.7148 83.1788,39.0481 83.5,37.5 Z"/></g>
<g><path style="opacity:0.482" fill="#a3adad" d="M 105.5,30.5 C 109.167,30.5 112.833,30.5 116.5,30.5C 116.666,36.8421 116.5,43.1754 116,49.5C 112.167,52 109,55.1667 106.5,59C 88.3514,60.6281 70.3514,60.7947 52.5,59.5C 58.8333,59.5 65.1667,59.5 71.5,59.5C 74.5,59.5 77.5,59.5 80.5,59.5C 84.5138,59.6655 88.5138,59.4988 92.5,59C 90.8333,58.6667 89.1667,58.3333 87.5,58C 88.6341,56.984 88.3008,56.3173 86.5,56C 88.0722,53.962 89.0722,51.6287 89.5,49C 88.8333,48.6667 88.1667,48.3333 87.5,48C 88.4706,46.7964 89.4706,46.2964 90.5,46.5C 89.9478,44.9974 89.9478,43.3307 90.5,41.5C 92.8568,41.6633 95.1902,41.4966 97.5,41C 92.9805,40.8247 88.6472,40.3247 84.5,39.5C 89.1667,39.5 93.8333,39.5 98.5,39.5C 99.5417,40.7911 100.708,40.7911 102,39.5C 103.273,36.5107 104.439,33.5107 105.5,30.5 Z"/></g>
<g><path style="opacity:0.498" fill="#dae3e3" d="M 83.5,37.5 C 83.1788,39.0481 82.1788,39.7148 80.5,39.5C 80.8633,41.9115 79.8633,43.4115 77.5,44C 77.8333,44.3333 78.1667,44.6667 78.5,45C 77.5305,46.7583 76.3639,47.2583 75,46.5C 67.4583,54.6105 69.2917,58.9439 80.5,59.5C 77.5,59.5 74.5,59.5 71.5,59.5C 66.3187,58.8335 60.9853,58.1668 55.5,57.5C 54.2485,56.3689 53.2485,55.0356 52.5,53.5C 51.7209,50.4389 51.3875,47.4389 51.5,44.5C 54.8832,41.43 58.7165,40.7633 63,42.5C 63.5,42 64,41.5 64.5,41C 59.6486,40.8255 54.9819,40.3255 50.5,39.5C 55.1667,39.5 59.8333,39.5 64.5,39.5C 65.1667,36.1667 65.8333,32.8333 66.5,29.5C 71.8333,29.8333 77.1667,30.1667 82.5,30.5C 82.9926,32.8056 83.3259,35.139 83.5,37.5 Z"/></g>
<g><path style="opacity:0.543" fill="#f7fbfb" d="M 50.5,62.5 C 56.6446,63.4902 62.9779,63.8235 69.5,63.5C 71.6074,64.4682 73.9407,64.8016 76.5,64.5C 80.2238,77.298 82.0571,90.298 82,103.5C 82.8068,99.551 83.3068,99.551 83.5,103.5C 85.4147,103.216 87.0813,103.549 88.5,104.5C 88.1667,104.5 87.8333,104.5 87.5,104.5C 72.4864,104.605 57.4864,104.772 42.5,105C 43.4902,90.9121 43.8235,76.7454 43.5,62.5C 45.8333,62.5 48.1667,62.5 50.5,62.5 Z"/></g>
<g><path style="opacity:0.42" fill="#ebeded" d="M 69.5,63.5 C 76.5,63.5 83.5,63.5 90.5,63.5C 89.3915,64.29 88.0581,64.79 86.5,65C 88.9514,68.7816 89.618,72.7816 88.5,77C 89.5052,86.121 90.8386,95.2877 92.5,104.5C 91.1667,104.5 89.8333,104.5 88.5,104.5C 87.0813,103.549 85.4147,103.216 83.5,103.5C 83.3068,99.551 82.8068,99.551 82,103.5C 82.0571,90.298 80.2238,77.298 76.5,64.5C 73.9407,64.8016 71.6074,64.4682 69.5,63.5 Z"/></g>
<g><path style="opacity:0.537" fill="#a3acac" d="M 50.5,62.5 C 68.8333,62.5 87.1667,62.5 105.5,62.5C 105.5,76.8333 105.5,91.1667 105.5,105.5C 99.31,105.823 93.31,105.49 87.5,104.5C 87.8333,104.5 88.1667,104.5 88.5,104.5C 89.8333,104.5 91.1667,104.5 92.5,104.5C 94.1667,104.5 95.8333,104.5 97.5,104.5C 97.2935,94.3383 96.2935,84.1716 94.5,74C 94.9574,73.586 95.2907,73.086 95.5,72.5C 93.1058,69.4948 93.1058,66.6615 95.5,64C 93.8659,63.5065 92.1992,63.3398 90.5,63.5C 83.5,63.5 76.5,63.5 69.5,63.5C 62.9779,63.8235 56.6446,63.4902 50.5,62.5 Z"/></g>
<g><path style="opacity:0.51" fill="#c2c8c8" d="M 90.5,63.5 C 92.1992,63.3398 93.8659,63.5065 95.5,64C 93.1058,66.6615 93.1058,69.4948 95.5,72.5C 95.2907,73.086 94.9574,73.586 94.5,74C 96.2935,84.1716 97.2935,94.3383 97.5,104.5C 95.8333,104.5 94.1667,104.5 92.5,104.5C 90.8386,95.2877 89.5052,86.121 88.5,77C 89.618,72.7816 88.9514,68.7816 86.5,65C 88.0581,64.79 89.3915,64.29 90.5,63.5 Z"/></g>
<g><path style="opacity:0.555" fill="#b4bebe" d="M 99.5,108.5 C 103.5,108.833 107.5,109.167 111.5,109.5C 111.564,113.22 112.064,116.886 113,120.5C 116.42,121.182 119.754,122.182 123,123.5C 123.498,126.817 123.665,130.15 123.5,133.5C 92.1667,133.5 60.8333,133.5 29.5,133.5C 36.6476,132.508 43.9809,132.175 51.5,132.5C 56.8437,132.666 62.1771,132.499 67.5,132C 69.4155,130.145 71.5821,128.645 74,127.5C 74.3333,127.833 74.6667,128.167 75,128.5C 79.9747,126.371 84.8081,123.871 89.5,121C 93.5,120.667 97.5,120.333 101.5,120C 97.1704,118.836 92.8371,117.67 88.5,116.5C 90.8292,115.002 92.6625,113.002 94,110.5C 94.3333,110.833 94.6667,111.167 95,111.5C 96.3103,110.103 97.8103,109.103 99.5,108.5 Z"/></g>
<g><path style="opacity:0.624" fill="#d5dbdb" d="M 90.5,108.5 C 93.5,108.5 96.5,108.5 99.5,108.5C 97.8103,109.103 96.3103,110.103 95,111.5C 94.6667,111.167 94.3333,110.833 94,110.5C 92.6625,113.002 90.8292,115.002 88.5,116.5C 92.8371,117.67 97.1704,118.836 101.5,120C 97.5,120.333 93.5,120.667 89.5,121C 84.8081,123.871 79.9747,126.371 75,128.5C 74.6667,128.167 74.3333,127.833 74,127.5C 71.5821,128.645 69.4155,130.145 67.5,132C 62.1771,132.499 56.8437,132.666 51.5,132.5C 51.62,131.414 52.2867,130.747 53.5,130.5C 58.5954,129.524 63.4287,127.857 68,125.5C 74.118,124.818 79.9514,122.652 85.5,119C 84.8333,118.333 84.1667,117.667 83.5,117C 85.0429,115.122 86.8762,113.622 89,112.5C 89.4101,111.099 89.9101,109.766 90.5,108.5 Z"/></g>
<g><path style="opacity:0.697" fill="#edf3f3" d="M 90.5,108.5 C 89.9101,109.766 89.4101,111.099 89,112.5C 86.8762,113.622 85.0429,115.122 83.5,117C 84.1667,117.667 84.8333,118.333 85.5,119C 79.9514,122.652 74.118,124.818 68,125.5C 63.4287,127.857 58.5954,129.524 53.5,130.5C 52.2867,130.747 51.62,131.414 51.5,132.5C 43.9809,132.175 36.6476,132.508 29.5,133.5C 28.1667,133.5 26.8333,133.5 25.5,133.5C 25.5,129.833 25.5,126.167 25.5,122.5C 28.876,122.048 32.2094,121.382 35.5,120.5C 36.7063,116.928 37.373,113.262 37.5,109.5C 55.1706,107.666 72.8373,107.333 90.5,108.5 Z"/></g>
</svg>
