<?xml version="1.0" encoding="UTF-8"?>
<!DOCTYPE svg PUBLIC "-//W3C//DTD SVG 1.1//EN" "http://www.w3.org/Graphics/SVG/1.1/DTD/svg11.dtd">
<svg xmlns="http://www.w3.org/2000/svg" version="1.1" width="150px" height="150px" style="shape-rendering:geometricPrecision; text-rendering:geometricPrecision; image-rendering:optimizeQuality; fill-rule:evenodd; clip-rule:evenodd" xmlns:xlink="http://www.w3.org/1999/xlink">
<g><path style="opacity:0.737" fill="#0d0e0e" d="M 69.5,8.5 C 79.0159,7.76143 84.6826,12.0948 86.5,21.5C 85.4467,24.1314 84.9467,26.798 85,29.5C 98.3561,37.8393 106.523,49.6726 109.5,65C 108.456,74.3834 103.79,81.3834 95.5,86C 100.544,91.3756 105.211,97.0422 109.5,103C 102.724,107.721 95.3911,111.388 87.5,114C 88.772,115.046 90.272,115.546 92,115.5C 101.074,113.349 110.24,111.682 119.5,110.5C 125.843,111.225 131.843,113.059 137.5,116C 139.211,117.133 139.711,118.633 139,120.5C 134.821,126.205 130.655,131.871 126.5,137.5C 121.618,133.903 116.118,132.236 110,132.5C 101.38,132.934 93.047,134.6 85,137.5C 80.2551,136.46 76.2551,134.127 73,130.5C 70.248,134.466 66.4147,136.799 61.5,137.5C 49.8155,132.901 37.8155,131.735 25.5,134C 23.6564,135.182 21.8231,136.349 20,137.5C 15.6373,132.129 11.6373,126.463 8,120.5C 7.28885,118.633 7.78885,117.133 9.5,116C 15.1572,113.059 21.1572,111.225 27.5,110.5C 36.7272,111.845 45.8938,113.512 55,115.5C 56.1667,115.167 57.3333,114.833 58.5,114.5C 53.3826,111.777 48.0492,109.277 42.5,107C 40.4148,105.959 38.7481,104.459 37.5,102.5C 41.9791,96.8532 46.6457,91.3532 51.5,86C 40.7208,79.9412 36.2208,70.7746 38,58.5C 39.8883,53.0552 42.555,48.0552 46,43.5C 51.1983,37.967 56.6983,32.8004 62.5,28C 58.7559,19.3211 61.0892,12.8211 69.5,8.5 Z"/></g>
<g><path style="opacity:0.466" fill="#dbe7e7" d="M 75.5,12.5 C 74.1815,17.4325 73.6815,22.4325 74,27.5C 81.4281,34.3598 86.2614,42.6931 88.5,52.5C 85.5,52.5 82.5,52.5 79.5,52.5C 79.8168,48.2984 79.4834,44.2984 78.5,40.5C 74.8333,40.5 71.1667,40.5 67.5,40.5C 67.5,44.8333 67.5,49.1667 67.5,53.5C 63.5,53.5 59.5,53.5 55.5,53.5C 58.9619,52.5184 62.6286,52.185 66.5,52.5C 66.2367,46.9504 66.5701,41.4504 67.5,36C 67.3023,33.8155 66.3023,32.3155 64.5,31.5C 65.2778,30.8444 65.9444,30.0111 66.5,29C 61.0182,18.7943 64.0182,13.2943 75.5,12.5 Z"/></g>
<g><path style="opacity:0.993" fill="#191a1a" d="M 78.5,40.5 C 78.5,44.8333 78.5,49.1667 78.5,53.5C 82.8333,53.5 87.1667,53.5 91.5,53.5C 91.5,57.1667 91.5,60.8333 91.5,64.5C 87.1667,64.5 82.8333,64.5 78.5,64.5C 78.5,68.8333 78.5,73.1667 78.5,77.5C 74.8333,77.5 71.1667,77.5 67.5,77.5C 67.5,73.1667 67.5,68.8333 67.5,64.5C 63.1667,64.5 58.8333,64.5 54.5,64.5C 54.185,60.6286 54.5184,56.9619 55.5,53.5C 59.5,53.5 63.5,53.5 67.5,53.5C 67.5,49.1667 67.5,44.8333 67.5,40.5C 71.1667,40.5 74.8333,40.5 78.5,40.5 Z"/></g>
<g><path style="opacity:0.539" fill="#eef2f2" d="M 75.5,43.5 C 75.5,47.8333 75.5,52.1667 75.5,56.5C 79.8333,56.5 84.1667,56.5 88.5,56.5C 88.5,58.1667 88.5,59.8333 88.5,61.5C 84.5,61.5 80.5,61.5 76.5,61.5C 76.5,65.8333 76.5,70.1667 76.5,74.5C 74.5,74.5 72.5,74.5 70.5,74.5C 70.5,70.1667 70.5,65.8333 70.5,61.5C 66.1667,61.5 61.8333,61.5 57.5,61.5C 57.5,59.8333 57.5,58.1667 57.5,56.5C 61.8333,56.5 66.1667,56.5 70.5,56.5C 70.5,52.1667 70.5,47.8333 70.5,43.5C 72.1667,43.5 73.8333,43.5 75.5,43.5 Z"/></g>
<g><path style="opacity:0.647" fill="#eff6f6" d="M 64.5,31.5 C 66.3023,32.3155 67.3023,33.8155 67.5,36C 66.5701,41.4504 66.2367,46.9504 66.5,52.5C 62.6286,52.185 58.9619,52.5184 55.5,53.5C 54.5184,56.9619 54.185,60.6286 54.5,64.5C 58.2984,65.4834 62.2984,65.8168 66.5,65.5C 66.6655,69.5138 66.4988,73.5138 66,77.5C 65.7265,75.6711 64.8932,74.1711 63.5,73C 64.083,71.3813 64.083,69.548 63.5,67.5C 63.1667,67.1667 62.8333,66.8333 62.5,66.5C 62.1667,67.5 61.8333,68.5 61.5,69.5C 62.5159,73.879 63.3492,78.2123 64,82.5C 63.3333,79.8333 62.6667,79.8333 62,82.5C 60.5217,77.2573 59.6884,71.924 59.5,66.5C 58.1667,66.5 56.8333,66.5 55.5,66.5C 55.777,70.3319 56.1104,74.1652 56.5,78C 56.4535,80.2953 55.7868,82.1286 54.5,83.5C 38.7506,74.4946 36.2506,62.4946 47,47.5C 52.3504,41.5857 58.1837,36.2523 64.5,31.5 Z"/></g>
<g><path style="opacity:0.937" fill="#616363" d="M 75.5,43.5 C 76.4834,47.2984 76.8168,51.2984 76.5,55.5C 80.7016,55.1832 84.7016,55.5166 88.5,56.5C 84.1667,56.5 79.8333,56.5 75.5,56.5C 75.5,52.1667 75.5,47.8333 75.5,43.5 Z"/></g>
<g><path style="opacity:0.51" fill="#b1bcbc" d="M 75.5,12.5 C 81.759,14.6338 83.9257,18.9671 82,25.5C 81.044,26.5786 80.2106,27.7453 79.5,29C 88.3333,35.1667 95.8333,42.6667 102,51.5C 108.335,63.5247 106.168,73.6914 95.5,82C 91.797,84.354 87.797,85.854 83.5,86.5C 82.016,85.5267 81.516,84.1933 82,82.5C 82.956,81.4214 83.7894,80.2547 84.5,79C 86.6175,78.7398 88.2842,77.7398 89.5,76C 89.1667,75.6667 88.8333,75.3333 88.5,75C 90.4035,72.1226 91.4035,68.9559 91.5,65.5C 87.5,65.5 83.5,65.5 79.5,65.5C 79.8168,69.7016 79.4834,73.7016 78.5,77.5C 78.5,73.1667 78.5,68.8333 78.5,64.5C 82.8333,64.5 87.1667,64.5 91.5,64.5C 91.5,60.8333 91.5,57.1667 91.5,53.5C 87.1667,53.5 82.8333,53.5 78.5,53.5C 78.5,49.1667 78.5,44.8333 78.5,40.5C 79.4834,44.2984 79.8168,48.2984 79.5,52.5C 82.5,52.5 85.5,52.5 88.5,52.5C 86.2614,42.6931 81.4281,34.3598 74,27.5C 73.6815,22.4325 74.1815,17.4325 75.5,12.5 Z"/></g>
<g><path style="opacity:0.443" fill="#e3e9e9" d="M 54.5,64.5 C 58.8333,64.5 63.1667,64.5 67.5,64.5C 67.5,68.8333 67.5,73.1667 67.5,77.5C 71.1667,77.5 74.8333,77.5 78.5,77.5C 79.4834,73.7016 79.8168,69.7016 79.5,65.5C 83.5,65.5 87.5,65.5 91.5,65.5C 91.4035,68.9559 90.4035,72.1226 88.5,75C 88.8333,75.3333 89.1667,75.6667 89.5,76C 88.2842,77.7398 86.6175,78.7398 84.5,79C 83.7894,80.2547 82.956,81.4214 82,82.5C 81.516,84.1933 82.016,85.5267 83.5,86.5C 75.4842,87.8458 67.4842,87.6791 59.5,86C 57.5087,85.6264 55.842,84.793 54.5,83.5C 55.7868,82.1286 56.4535,80.2953 56.5,78C 56.1104,74.1652 55.777,70.3319 55.5,66.5C 56.8333,66.5 58.1667,66.5 59.5,66.5C 59.6884,71.924 60.5217,77.2573 62,82.5C 62.6667,79.8333 63.3333,79.8333 64,82.5C 63.3492,78.2123 62.5159,73.879 61.5,69.5C 61.8333,68.5 62.1667,67.5 62.5,66.5C 62.8333,66.8333 63.1667,67.1667 63.5,67.5C 64.083,69.548 64.083,71.3813 63.5,73C 64.8932,74.1711 65.7265,75.6711 66,77.5C 66.4988,73.5138 66.6655,69.5138 66.5,65.5C 62.2984,65.8168 58.2984,65.4834 54.5,64.5 Z"/></g>
<g><path style="opacity:0.557" fill="#abb6b6" d="M 77.5,111.5 C 79.3253,109.34 81.6587,107.84 84.5,107C 82.8659,106.506 81.1992,106.34 79.5,106.5C 83.6929,105.286 88.0262,104.12 92.5,103C 93.8825,101.539 93.5492,100.706 91.5,100.5C 88.1713,98.4788 85.838,95.4788 84.5,91.5C 83.3112,90.5713 81.9778,90.238 80.5,90.5C 84.2918,88.9656 88.2918,88.1322 92.5,88C 96.5619,92.3907 100.229,97.0574 103.5,102C 95.8715,107.822 87.2048,110.989 77.5,111.5 Z"/></g>
<g><path style="opacity:0.431" fill="#f2f8f8" d="M 83.5,102.5 C 79.2022,103.2 74.8689,103.533 70.5,103.5C 70.369,102.761 70.5357,102.094 71,101.5C 71.6543,102.696 72.1543,102.696 72.5,101.5C 71.0493,100.094 69.7159,98.594 68.5,97C 69.1383,95.2933 69.1383,93.46 68.5,91.5C 71.8984,91.1796 75.2317,91.513 78.5,92.5C 79.0402,93.7481 79.7069,94.9148 80.5,96C 79.4829,97.0495 79.3162,98.2161 80,99.5C 81.1451,100.636 82.3117,101.636 83.5,102.5 Z"/></g>
<g><path style="opacity:0.887" fill="#e5ebeb" d="M 80.5,90.5 C 81.9778,90.238 83.3112,90.5713 84.5,91.5C 85.838,95.4788 88.1713,98.4788 91.5,100.5C 88.8877,101.371 86.221,102.037 83.5,102.5C 82.3117,101.636 81.1451,100.636 80,99.5C 79.3162,98.2161 79.4829,97.0495 80.5,96C 79.7069,94.9148 79.0402,93.7481 78.5,92.5C 75.2317,91.513 71.8984,91.1796 68.5,91.5C 69.1383,93.46 69.1383,95.2933 68.5,97C 69.7159,98.594 71.0493,100.094 72.5,101.5C 72.1543,102.696 71.6543,102.696 71,101.5C 70.5357,102.094 70.369,102.761 70.5,103.5C 64.743,103.916 59.243,102.916 54,100.5C 52.1739,101.01 52.0072,101.844 53.5,103C 61.9101,105.995 70.5768,107.161 79.5,106.5C 81.1992,106.34 82.8659,106.506 84.5,107C 81.6587,107.84 79.3253,109.34 77.5,111.5C 64.5109,112.888 52.8443,109.721 42.5,102C 45.9224,96.4076 50.2558,91.5743 55.5,87.5C 63.5809,90.1745 71.9143,91.1745 80.5,90.5 Z"/></g>
<g><path style="opacity:0.998" fill="#1b1c1c" d="M 70.5,103.5 C 74.8689,103.533 79.2022,103.2 83.5,102.5C 86.221,102.037 88.8877,101.371 91.5,100.5C 93.5492,100.706 93.8825,101.539 92.5,103C 88.0262,104.12 83.6929,105.286 79.5,106.5C 70.5768,107.161 61.9101,105.995 53.5,103C 52.0072,101.844 52.1739,101.01 54,100.5C 59.243,102.916 64.743,103.916 70.5,103.5 Z"/></g>
<g><path style="opacity:0.554" fill="#a9b4b4" d="M 62.5,114.5 C 68.8114,114.769 75.3114,114.436 82,113.5C 82.8333,113.833 83.6667,114.167 84.5,114.5C 85.4732,118.148 87.8065,119.814 91.5,119.5C 88.8136,120.991 85.8136,121.657 82.5,121.5C 75.9855,121.025 69.6521,120.025 63.5,118.5C 63.33,117.178 63.6634,116.011 64.5,115C 63.9056,114.536 63.2389,114.369 62.5,114.5 Z"/></g>
<g><path style="opacity:0.56" fill="#e9f3f3" d="M 60.5,118.5 C 61.4511,120.118 62.7844,121.451 64.5,122.5C 65.4279,123.768 65.5946,125.101 65,126.5C 64.6667,126.167 64.3333,125.833 64,125.5C 57.1801,130.818 50.8467,130.485 45,124.5C 34.7577,124.77 24.591,124.77 14.5,124.5C 12.805,122.787 11.9717,120.787 12,118.5C 18.6999,114.801 25.8666,113.634 33.5,115C 41.0511,116.263 48.5511,117.763 56,119.5C 57.5915,119.395 59.0915,119.061 60.5,118.5 Z"/></g>
<g><path style="opacity:0.545" fill="#e0eceb" d="M 134.5,120.5 C 132.319,120.284 130.653,121.117 129.5,123C 125.579,123.203 121.745,123.703 118,124.5C 117.667,124.167 117.333,123.833 117,123.5C 114.624,125.744 111.957,126.077 109,124.5C 104.164,127.074 99.3306,126.907 94.5,124C 95.1667,123.667 95.8333,123.333 96.5,123C 95.1667,122.333 95.1667,121.667 96.5,121C 100.183,121.337 102.516,119.837 103.5,116.5C 114.101,113.308 124.435,113.975 134.5,118.5C 135.773,119.257 135.773,119.923 134.5,120.5 Z"/></g>
<g><path style="opacity:0.525" fill="#c3d1d0" d="M 62.5,114.5 C 63.2389,114.369 63.9056,114.536 64.5,115C 63.6634,116.011 63.33,117.178 63.5,118.5C 69.6521,120.025 75.9855,121.025 82.5,121.5C 85.8136,121.657 88.8136,120.991 91.5,119.5C 95.5776,118.752 99.5776,117.752 103.5,116.5C 102.516,119.837 100.183,121.337 96.5,121C 95.1667,121.667 95.1667,122.333 96.5,123C 95.8333,123.333 95.1667,123.667 94.5,124C 99.3306,126.907 104.164,127.074 109,124.5C 111.957,126.077 114.624,125.744 117,123.5C 117.333,123.833 117.667,124.167 118,124.5C 121.745,123.703 125.579,123.203 129.5,123C 130.653,121.117 132.319,120.284 134.5,120.5C 131.984,124.866 128.984,128.866 125.5,132.5C 113.502,127.252 101.502,127.419 89.5,133C 83.9384,134.581 79.4384,133.081 76,128.5C 75.2515,126.668 74.2515,125.001 73,123.5C 70.2164,131.473 64.7164,134.64 56.5,133C 52.9793,131.326 49.3127,130.16 45.5,129.5C 45.4226,128.25 44.756,127.417 43.5,127C 34.4099,126.662 25.4099,126.495 16.5,126.5C 15.5,126.167 14.8333,125.5 14.5,124.5C 24.591,124.77 34.7577,124.77 45,124.5C 50.8467,130.485 57.1801,130.818 64,125.5C 64.3333,125.833 64.6667,126.167 65,126.5C 65.5946,125.101 65.4279,123.768 64.5,122.5C 62.7844,121.451 61.4511,120.118 60.5,118.5C 61.6005,117.395 62.2671,116.062 62.5,114.5 Z"/></g>
<g><path style="opacity:0.624" fill="#a8b8b8" d="M 16.5,126.5 C 25.4099,126.495 34.4099,126.662 43.5,127C 44.756,127.417 45.4226,128.25 45.5,129.5C 37.0541,127.454 29.0541,128.454 21.5,132.5C 19.086,131.089 17.4194,129.089 16.5,126.5 Z"/></g>
</svg>
