<?xml version="1.0" encoding="UTF-8"?>
<!DOCTYPE svg PUBLIC "-//W3C//DTD SVG 1.1//EN" "http://www.w3.org/Graphics/SVG/1.1/DTD/svg11.dtd">
<svg xmlns="http://www.w3.org/2000/svg" version="1.1" width="150px" height="150px" style="shape-rendering:geometricPrecision; text-rendering:geometricPrecision; image-rendering:optimizeQuality; fill-rule:evenodd; clip-rule:evenodd" xmlns:xlink="http://www.w3.org/1999/xlink">
<g><path style="opacity:0.719" fill="#0e0f0f" d="M 70.5,12.5 C 79.2081,11.2171 84.2081,14.8838 85.5,23.5C 84.0127,27.8081 82.0127,31.8081 79.5,35.5C 80.7591,40.795 81.7591,46.1283 82.5,51.5C 87.2701,51.6917 91.9367,52.5251 96.5,54C 101.474,56.1025 106.474,57.7691 111.5,59C 114.583,53.4985 117.916,48.1652 121.5,43C 115.487,32.8855 118.154,26.3855 129.5,23.5C 138.242,25.3032 141.742,30.6365 140,39.5C 137.703,42.9799 134.536,44.9799 130.5,45.5C 128.38,60.1734 126.213,74.84 124,89.5C 119.819,95.0109 115.652,100.511 111.5,106C 113.939,112.377 116.773,118.543 120,124.5C 120.781,125.944 120.614,127.277 119.5,128.5C 88.814,140.629 58.314,140.295 28,127.5C 31.0307,120.285 34.1974,112.952 37.5,105.5C 33.3333,100.5 29.1667,95.5 25,90.5C 22.3195,75.5698 20.1528,60.5698 18.5,45.5C 8.75002,43.3334 5.91669,37.6668 10,28.5C 16.7059,21.5921 23.0393,21.9255 29,29.5C 31.1085,34.2907 30.6085,38.7907 27.5,43C 30.5766,48.4851 33.91,53.8184 37.5,59C 43.3913,57.0744 49.3913,55.0744 55.5,53C 59.1135,52.0642 62.7802,51.5642 66.5,51.5C 66.8562,45.7191 67.8562,40.0524 69.5,34.5C 61.1873,26.4689 61.5206,19.1355 70.5,12.5 Z"/></g>
<g><path style="opacity:0.749" fill="#dde9e9" d="M 78.5,17.5 C 78.6602,19.1992 78.4935,20.8659 78,22.5C 76.2636,25.7392 73.7636,28.0726 70.5,29.5C 66.4253,26.633 65.592,22.9663 68,18.5C 71.3417,15.0541 74.8417,14.7207 78.5,17.5 Z"/></g>
<g><path style="opacity:0.604" fill="#98b2b1" d="M 78.5,17.5 C 79.4584,17.9528 80.2917,18.6195 81,19.5C 82.0801,27.9242 78.5801,31.2575 70.5,29.5C 73.7636,28.0726 76.2636,25.7392 78,22.5C 78.4935,20.8659 78.6602,19.1992 78.5,17.5 Z"/></g>
<g><path style="opacity:0.776" fill="#dde9e9" d="M 133.5,28.5 C 135.615,35.9055 132.948,39.9055 125.5,40.5C 123.589,40.4257 122.422,39.4257 122,37.5C 121.563,29.1294 125.396,26.1294 133.5,28.5 Z"/></g>
<g><path style="opacity:0.796" fill="#e2ecec" d="M 22.5,28.5 C 21.9638,31.5547 21.1305,34.5547 20,37.5C 18.5123,39.16 16.679,40.16 14.5,40.5C 10.2593,36.0745 10.5926,31.9078 15.5,28C 17.9291,27.2967 20.2625,27.4634 22.5,28.5 Z"/></g>
<g><path style="opacity:0.604" fill="#99b1b0" d="M 133.5,28.5 C 134.458,28.9528 135.292,29.6195 136,30.5C 138.093,36.7601 136.093,40.7601 130,42.5C 128.124,42.4753 126.624,41.8086 125.5,40.5C 132.948,39.9055 135.615,35.9055 133.5,28.5 Z"/></g>
<g><path style="opacity:0.627" fill="#acc3c2" d="M 22.5,28.5 C 26.2522,30.7489 27.4188,34.0823 26,38.5C 22.6079,42.7492 18.7746,43.4159 14.5,40.5C 16.679,40.16 18.5123,39.16 20,37.5C 21.1305,34.5547 21.9638,31.5547 22.5,28.5 Z"/></g>
<g><path style="opacity:0.845" fill="#e6ebeb" d="M 125.5,44.5 C 126.285,48.5963 125.118,51.9296 122,54.5C 121.5,56 121,57.5 120.5,59C 120.892,60.0105 121.559,60.5105 122.5,60.5C 119.34,68.1613 115.174,75.1613 110,81.5C 104.711,81.4052 99.2111,81.4052 93.5,81.5C 94.1667,80.8333 94.8333,80.1667 95.5,79.5C 100.212,79.2269 104.045,77.2269 107,73.5C 112.704,63.3968 118.871,53.7302 125.5,44.5 Z"/></g>
<g><path style="opacity:0.498" fill="#d1dcdb" d="M 107.5,62.5 C 105.15,64.2133 104.15,66.5466 104.5,69.5C 101.927,70.2186 99.4275,71.2186 97,72.5C 93.4429,72.412 90.1096,71.0787 87,68.5C 86.6174,69.056 86.1174,69.3893 85.5,69.5C 84.6289,65.1455 83.6289,60.8122 82.5,56.5C 91.3898,55.8049 99.7232,57.8049 107.5,62.5 Z"/></g>
<g><path style="opacity:0.506" fill="#b2b8b8" d="M 107.5,62.5 C 108.497,62.4701 109.164,62.9701 109.5,64C 107.422,69.5128 103.755,73.5128 98.5,76C 92.2547,77.5441 87.9214,75.3774 85.5,69.5C 86.1174,69.3893 86.6174,69.056 87,68.5C 90.1096,71.0787 93.4429,72.412 97,72.5C 99.4275,71.2186 101.927,70.2186 104.5,69.5C 104.15,66.5466 105.15,64.2133 107.5,62.5 Z"/></g>
<g><path style="opacity:0.495" fill="#e9f1f1" d="M 86.5,76.5 C 82.4651,76.9744 78.1317,77.8077 73.5,79C 67.5,82.3333 61.5,85.6667 55.5,89C 53.2189,90.851 53.2189,92.5177 55.5,94C 54.8333,94.6667 54.1667,95.3333 53.5,96C 55.0581,96.21 56.3915,96.71 57.5,97.5C 51.6148,98.3884 45.9481,100.055 40.5,102.5C 37.009,98.8753 33.509,95.2086 30,91.5C 28.2503,88.7536 27.2503,85.7536 27,82.5C 24.706,69.8879 22.8727,57.2212 21.5,44.5C 22.8221,44.33 23.9887,44.6634 25,45.5C 29.3333,53.1667 33.6667,60.8333 38,68.5C 43.1706,79.3468 51.0039,82.0135 61.5,76.5C 62.8613,74.9716 64.028,73.3049 65,71.5C 68.4552,59.0141 70.9552,46.3475 72.5,33.5C 73.5,33.5 74.5,33.5 75.5,33.5C 77.6006,45.4839 79.7672,57.4839 82,69.5C 83.0121,72.2018 84.5121,74.5351 86.5,76.5 Z"/></g>
<g><path style="opacity:0.498" fill="#bec8c7" d="M 40.5,62.5 C 42.5583,64.2422 44.2249,66.4089 45.5,69C 48.7475,71.1376 51.5808,70.6376 54,67.5C 55.3217,64.363 56.4884,61.1963 57.5,58C 56.2068,57.51 54.8734,57.3433 53.5,57.5C 57.2357,56.0109 61.2357,55.3442 65.5,55.5C 64.9099,60.9499 63.7432,66.2832 62,71.5C 57.2612,77.082 51.7612,77.9154 45.5,74C 43.4129,70.4918 41.0796,67.1584 38.5,64C 39.0442,63.2828 39.7109,62.7828 40.5,62.5 Z"/></g>
<g><path style="opacity:0.66" fill="#e7f0f0" d="M 53.5,57.5 C 54.8734,57.3433 56.2068,57.51 57.5,58C 56.4884,61.1963 55.3217,64.363 54,67.5C 51.5808,70.6376 48.7475,71.1376 45.5,69C 44.2249,66.4089 42.5583,64.2422 40.5,62.5C 44.5933,60.2461 48.9266,58.5794 53.5,57.5 Z"/></g>
<g><path style="opacity:0.486" fill="#bfc4c4" d="M 125.5,44.5 C 126.156,45.6216 126.489,46.9549 126.5,48.5C 124.886,57.8013 123.552,67.1346 122.5,76.5C 121.71,75.3915 121.21,74.0581 121,72.5C 116.833,75.3333 113.333,78.8333 110.5,83C 102.477,83.4015 94.4772,84.0682 86.5,85C 81.3132,85.2839 76.6465,86.9506 72.5,90C 78.5239,92.0163 84.5239,94.0163 90.5,96C 89.9056,96.4643 89.2389,96.631 88.5,96.5C 85.5176,96.0371 82.5176,95.7038 79.5,95.5C 74.6835,94.6739 69.6835,94.1739 64.5,94C 62.3143,93.3964 62.1476,92.2297 64,90.5C 72.8505,83.7121 82.6838,80.7121 93.5,81.5C 99.2111,81.4052 104.711,81.4052 110,81.5C 115.174,75.1613 119.34,68.1613 122.5,60.5C 121.559,60.5105 120.892,60.0105 120.5,59C 121,57.5 121.5,56 122,54.5C 125.118,51.9296 126.285,48.5963 125.5,44.5 Z"/></g>
<g><path style="opacity:0.467" fill="#d3d5d5" d="M 86.5,76.5 C 88.9966,78.8711 91.9966,79.8711 95.5,79.5C 94.8333,80.1667 94.1667,80.8333 93.5,81.5C 82.6838,80.7121 72.8505,83.7121 64,90.5C 62.1476,92.2297 62.3143,93.3964 64.5,94C 69.6835,94.1739 74.6835,94.6739 79.5,95.5C 72.0233,95.1528 64.69,95.8194 57.5,97.5C 56.3915,96.71 55.0581,96.21 53.5,96C 54.1667,95.3333 54.8333,94.6667 55.5,94C 53.2189,92.5177 53.2189,90.851 55.5,89C 61.5,85.6667 67.5,82.3333 73.5,79C 78.1317,77.8077 82.4651,76.9744 86.5,76.5 Z"/></g>
<g><path style="opacity:0.518" fill="#aeb3b3" d="M 122.5,76.5 C 122.09,81.3424 120.923,86.0091 119,90.5C 115.833,94.3333 112.667,98.1667 109.5,102C 102.437,100.318 95.4372,98.4846 88.5,96.5C 89.2389,96.631 89.9056,96.4643 90.5,96C 84.5239,94.0163 78.5239,92.0163 72.5,90C 76.6465,86.9506 81.3132,85.2839 86.5,85C 94.4772,84.0682 102.477,83.4015 110.5,83C 113.333,78.8333 116.833,75.3333 121,72.5C 121.21,74.0581 121.71,75.3915 122.5,76.5 Z"/></g>
<g><path style="opacity:0.996" fill="#161717" d="M 90.5,106.5 C 94.0015,107.97 97.6682,109.304 101.5,110.5C 101.833,110.833 102.167,111.167 102.5,111.5C 100.54,112.519 98.5405,112.519 96.5,111.5C 79.9209,107.258 63.4209,107.591 47,112.5C 46.5,112.167 46,111.833 45.5,111.5C 50.8005,108.59 56.4671,106.757 62.5,106C 71.8559,105.313 81.1892,105.479 90.5,106.5 Z"/></g>
<g><path style="opacity:0.577" fill="#a8b3b3" d="M 96.5,101.5 C 100.4,102.646 104.233,103.98 108,105.5C 110.151,112.453 112.985,119.12 116.5,125.5C 109.934,127.809 103.267,129.809 96.5,131.5C 95.746,127.708 95.4126,124.041 95.5,120.5C 95.5,119.5 95.5,118.5 95.5,117.5C 92.5718,117.435 89.9052,116.768 87.5,115.5C 90.2062,115.575 92.8728,115.908 95.5,116.5C 95.6287,114.784 95.962,113.117 96.5,111.5C 98.5405,112.519 100.54,112.519 102.5,111.5C 102.167,111.167 101.833,110.833 101.5,110.5C 97.6682,109.304 94.0015,107.97 90.5,106.5C 94.3144,107.019 96.3144,105.353 96.5,101.5 Z"/></g>
<g><path style="opacity:0.693" fill="#e6eeee" d="M 96.5,101.5 C 96.3144,105.353 94.3144,107.019 90.5,106.5C 81.1892,105.479 71.8559,105.313 62.5,106C 56.4671,106.757 50.8005,108.59 45.5,111.5C 46,111.833 46.5,112.167 47,112.5C 63.4209,107.591 79.9209,107.258 96.5,111.5C 95.962,113.117 95.6287,114.784 95.5,116.5C 92.8728,115.908 90.2062,115.575 87.5,115.5C 76.3268,113.667 65.3268,114.334 54.5,117.5C 53.1667,118.5 53.1667,119.5 54.5,120.5C 66.3883,116.88 78.3883,116.546 90.5,119.5C 90.6816,121.591 90.3482,123.591 89.5,125.5C 87.4962,127.005 85.6629,128.672 84,130.5C 76.3001,132.336 68.4667,133.003 60.5,132.5C 52.3997,131.643 44.3997,130.143 36.5,128C 34.7774,127.477 33.444,126.477 32.5,125C 36.0298,118.068 39.3632,111.068 42.5,104C 60.2948,98.0957 78.2948,97.2624 96.5,101.5 Z"/></g>
<g><path style="opacity:0.998" fill="#181919" d="M 87.5,115.5 C 89.9052,116.768 92.5718,117.435 95.5,117.5C 95.5,118.5 95.5,119.5 95.5,120.5C 93.7085,120.634 92.0418,120.301 90.5,119.5C 78.3883,116.546 66.3883,116.88 54.5,120.5C 53.1667,119.5 53.1667,118.5 54.5,117.5C 65.3268,114.334 76.3268,113.667 87.5,115.5 Z"/></g>
<g><path style="opacity:0.511" fill="#ccd9d9" d="M 90.5,119.5 C 92.0418,120.301 93.7085,120.634 95.5,120.5C 95.4126,124.041 95.746,127.708 96.5,131.5C 84.4025,133.582 72.4025,133.916 60.5,132.5C 68.4667,133.003 76.3001,132.336 84,130.5C 85.6629,128.672 87.4962,127.005 89.5,125.5C 90.3482,123.591 90.6816,121.591 90.5,119.5 Z"/></g>
</svg>
