<?xml version="1.0" encoding="UTF-8"?>
<!DOCTYPE svg PUBLIC "-//W3C//DTD SVG 1.1//EN" "http://www.w3.org/Graphics/SVG/1.1/DTD/svg11.dtd">
<svg xmlns="http://www.w3.org/2000/svg" version="1.1" width="150px" height="150px" style="shape-rendering:geometricPrecision; text-rendering:geometricPrecision; image-rendering:optimizeQuality; fill-rule:evenodd; clip-rule:evenodd" xmlns:xlink="http://www.w3.org/1999/xlink">
<g><path style="opacity:0.723" fill="#101111" d="M 70.5,26.5 C 84.2575,26.2575 92.2575,32.9241 94.5,46.5C 93.9034,51.1288 92.2368,55.2954 89.5,59C 94.7525,59.6117 98.0858,62.2784 99.5,67C 99.6464,69.0342 98.9797,70.7009 97.5,72C 94.361,73.7275 91.0277,74.8942 87.5,75.5C 87.5777,85.2396 90.411,94.2396 96,102.5C 98.9687,105.954 102.802,107.454 107.5,107C 114.312,110.29 115.979,115.29 112.5,122C 113,122.5 113.5,123 114,123.5C 114.667,126.833 114.667,130.167 114,133.5C 112.786,135.049 111.286,136.215 109.5,137C 85.8333,137.667 62.1667,137.667 38.5,137C 34.9158,135.336 33.2492,132.503 33.5,128.5C 33.4424,125.953 34.1091,123.62 35.5,121.5C 32.6501,116.203 33.6501,111.703 38.5,108C 42.342,107.044 46.1754,106.21 50,105.5C 56.5922,96.5689 60.7588,86.5689 62.5,75.5C 55.7254,75.9533 51.0587,73.1199 48.5,67C 50.2296,62.4528 53.563,59.7861 58.5,59C 50.7788,43.6515 54.7788,32.8181 70.5,26.5 Z"/></g>
<g><path style="opacity:0.663" fill="#edf4f4" d="M 80.5,31.5 C 85.7263,46.0405 80.7263,55.0405 65.5,58.5C 64.8333,58.5 64.1667,58.5 63.5,58.5C 55.2442,49.749 55.5775,41.249 64.5,33C 69.6501,30.3652 74.9834,29.8652 80.5,31.5 Z"/></g>
<g><path style="opacity:0.549" fill="#b3bfbf" d="M 87.5,37.5 C 91.901,45.001 91.2343,52.1677 85.5,59C 77.9882,59.8218 70.6549,59.6552 63.5,58.5C 64.1667,58.5 64.8333,58.5 65.5,58.5C 75.7269,60.9044 82.5602,57.2377 86,47.5C 87.126,44.0483 87.626,40.715 87.5,37.5 Z"/></g>
<g><path style="opacity:0.58" fill="#d0dada" d="M 80.5,31.5 C 83.4474,32.7805 85.7807,34.7805 87.5,37.5C 87.626,40.715 87.126,44.0483 86,47.5C 82.5602,57.2377 75.7269,60.9044 65.5,58.5C 80.7263,55.0405 85.7263,46.0405 80.5,31.5 Z"/></g>
<g><path style="opacity:0.859" fill="#dfe7e7" d="M 93.5,64.5 C 91.3286,66.476 88.9953,68.3093 86.5,70C 76.8391,70.4998 67.1724,70.6665 57.5,70.5C 54.7395,71.0853 53.0728,70.0853 52.5,67.5C 52.9308,65.2339 54.2642,63.7339 56.5,63C 67.8333,62.3333 79.1667,62.3333 90.5,63C 91.7375,63.2321 92.7375,63.7321 93.5,64.5 Z"/></g>
<g><path style="opacity:0.553" fill="#a6b2b1" d="M 93.5,64.5 C 96.0764,64.7218 96.9098,66.0551 96,68.5C 94.0551,69.8633 91.8884,70.6966 89.5,71C 78.6586,71.8255 67.992,71.6588 57.5,70.5C 67.1724,70.6665 76.8391,70.4998 86.5,70C 88.9953,68.3093 91.3286,66.476 93.5,64.5 Z"/></g>
<g><path style="opacity:0.808" fill="#edf3f3" d="M 71.5,74.5 C 74.3826,84.5394 76.3826,94.8727 77.5,105.5C 76.7573,106.182 76.0906,106.849 75.5,107.5C 67.8261,107.666 60.1594,107.5 52.5,107C 60.2513,97.5886 64.5846,86.7553 65.5,74.5C 67.5,74.5 69.5,74.5 71.5,74.5 Z"/></g>
<g><path style="opacity:0.522" fill="#c4cfcf" d="M 71.5,74.5 C 73.8333,74.5 76.1667,74.5 78.5,74.5C 81.6918,84.941 84.3585,95.2743 86.5,105.5C 86.1373,106.183 85.8039,106.85 85.5,107.5C 82.1667,107.5 78.8333,107.5 75.5,107.5C 76.0906,106.849 76.7573,106.182 77.5,105.5C 76.3826,94.8727 74.3826,84.5394 71.5,74.5 Z"/></g>
<g><path style="opacity:0.555" fill="#a8b4b4" d="M 78.5,74.5 C 79.8333,74.5 81.1667,74.5 82.5,74.5C 83.8852,86.5686 88.2185,97.402 95.5,107C 92.1832,107.498 88.8499,107.665 85.5,107.5C 85.8039,106.85 86.1373,106.183 86.5,105.5C 84.3585,95.2743 81.6918,84.941 78.5,74.5 Z"/></g>
<g><path style="opacity:0.658" fill="#eef6f5" d="M 106.5,110.5 C 103.375,111.479 100.042,111.813 96.5,111.5C 86.2618,110.329 76.5951,111.995 67.5,116.5C 66.5745,115.359 65.7412,115.359 65,116.5C 64.1475,114.875 63.1475,114.542 62,115.5C 62.2753,111.517 61.2753,111.517 59,115.5C 58.6667,115.167 58.3333,114.833 58,114.5C 56.0679,116.038 53.9012,117.205 51.5,118C 52.5,118.333 53.5,118.667 54.5,119C 49.1771,119.499 43.8437,119.666 38.5,119.5C 36.8076,116.131 37.4743,113.298 40.5,111C 62.4975,110.5 84.4975,110.333 106.5,110.5 Z"/></g>
<g><path style="opacity:0.553" fill="#a9b5b5" d="M 106.5,110.5 C 110.547,112.512 111.547,115.679 109.5,120C 97.1712,120.5 84.8378,120.667 72.5,120.5C 77.9851,119.673 83.6518,119.173 89.5,119C 88.8333,118.667 88.1667,118.333 87.5,118C 89.6079,117.64 91.6079,116.973 93.5,116C 94.8333,115 94.8333,114 93.5,113C 94.7375,112.768 95.7375,112.268 96.5,111.5C 100.042,111.813 103.375,111.479 106.5,110.5 Z"/></g>
<g><path style="opacity:0.486" fill="#d4e0df" d="M 96.5,111.5 C 95.7375,112.268 94.7375,112.768 93.5,113C 94.8333,114 94.8333,115 93.5,116C 91.6079,116.973 89.6079,117.64 87.5,118C 88.1667,118.333 88.8333,118.667 89.5,119C 83.6518,119.173 77.9851,119.673 72.5,120.5C 60.9877,120.828 49.6544,120.495 38.5,119.5C 43.8437,119.666 49.1771,119.499 54.5,119C 53.5,118.667 52.5,118.333 51.5,118C 53.9012,117.205 56.0679,116.038 58,114.5C 58.3333,114.833 58.6667,115.167 59,115.5C 61.2753,111.517 62.2753,111.517 62,115.5C 63.1475,114.542 64.1475,114.875 65,116.5C 65.7412,115.359 66.5745,115.359 67.5,116.5C 76.5951,111.995 86.2618,110.329 96.5,111.5 Z"/></g>
<g><path style="opacity:0.642" fill="#b7c3c3" d="M 93.5,123.5 C 98.8437,123.334 104.177,123.501 109.5,124C 110.833,127 110.833,130 109.5,133C 91.1697,133.5 72.8364,133.667 54.5,133.5C 64.6585,132.67 74.9919,132.17 85.5,132C 88.9974,129.417 92.6641,127.084 96.5,125C 95.2625,124.768 94.2625,124.268 93.5,123.5 Z"/></g>
<g><path style="opacity:0.666" fill="#ebf2f2" d="M 40.5,123.5 C 56.995,124.332 73.6616,124.832 90.5,125C 86.9809,127.51 83.1475,129.343 79,130.5C 72.0992,130.517 65.0992,129.851 58,128.5C 55.0769,128.045 52.9103,129.045 51.5,131.5C 47.2172,132.492 42.8839,132.826 38.5,132.5C 37.3659,130.034 37.1993,127.367 38,124.5C 38.6708,123.748 39.5041,123.414 40.5,123.5 Z"/></g>
<g><path style="opacity:0.612" fill="#d8e3e2" d="M 40.5,123.5 C 58.1667,123.5 75.8333,123.5 93.5,123.5C 94.2625,124.268 95.2625,124.768 96.5,125C 92.6641,127.084 88.9974,129.417 85.5,132C 74.9919,132.17 64.6585,132.67 54.5,133.5C 48.9738,133.821 43.6405,133.488 38.5,132.5C 42.8839,132.826 47.2172,132.492 51.5,131.5C 52.9103,129.045 55.0769,128.045 58,128.5C 65.0992,129.851 72.0992,130.517 79,130.5C 83.1475,129.343 86.9809,127.51 90.5,125C 73.6616,124.832 56.995,124.332 40.5,123.5 Z"/></g>
</svg>
