<?xml version="1.0" encoding="UTF-8"?>
<!DOCTYPE svg PUBLIC "-//W3C//DTD SVG 1.1//EN" "http://www.w3.org/Graphics/SVG/1.1/DTD/svg11.dtd">
<svg xmlns="http://www.w3.org/2000/svg" version="1.1" width="150px" height="150px" style="shape-rendering:geometricPrecision; text-rendering:geometricPrecision; image-rendering:optimizeQuality; fill-rule:evenodd; clip-rule:evenodd" xmlns:xlink="http://www.w3.org/1999/xlink">
<g><path style="opacity:0.807" fill="#0e0f0f" d="M 64.5,14.5 C 66.1789,14.8923 67.8455,15.3923 69.5,16C 71.5871,19.5082 73.9204,22.8416 76.5,26C 97.3601,24.0132 112.86,32.1798 123,50.5C 132.754,75.6095 136.087,101.61 133,128.5C 132.782,131.426 132.282,134.26 131.5,137C 102.458,137.825 73.4578,137.658 44.5,136.5C 41.6383,132.267 40.805,127.6 42,122.5C 45.8637,112.963 51.6971,104.796 59.5,98C 64.0603,93.8056 68.8936,89.9723 74,86.5C 75.1871,84.9556 75.5205,83.2889 75,81.5C 61.7431,91.5457 48.5764,101.712 35.5,112C 34.1667,112.667 32.8333,112.667 31.5,112C 26.8805,108.812 22.0472,105.978 17,103.5C 13.6337,96.7009 13.967,90.0342 18,83.5C 22.4155,75.6667 27.0822,68.0001 32,60.5C 33.0994,53.2999 36.0994,46.9666 41,41.5C 40.7639,38.0279 40.2639,34.5279 39.5,31C 39.3119,25.1877 41.9786,23.1877 47.5,25C 50.4185,26.7088 53.2518,28.5421 56,30.5C 57.3821,26.1891 58.8821,21.8558 60.5,17.5C 61.9014,16.4793 63.2347,15.4793 64.5,14.5 Z"/></g>
<g><path style="opacity:0.504" fill="#a1adac" d="M 68.5,21.5 C 72.1892,25.8648 75.5225,30.5315 78.5,35.5C 77.19,37.4346 75.8567,39.4346 74.5,41.5C 69.1275,35.9681 67.1275,29.3014 68.5,21.5 Z"/></g>
<g><path style="opacity:0.573" fill="#808484" d="M 92.5,30.5 C 87.9677,30.1818 83.6344,30.5151 79.5,31.5C 78.9569,31.44 78.6236,31.1067 78.5,30.5C 83.3181,29.1876 87.9848,29.1876 92.5,30.5 Z"/></g>
<g><path style="opacity:0.74" fill="#dce4e4" d="M 43.5,27.5 C 46.6067,28.8887 49.6067,30.5554 52.5,32.5C 45.0179,39.7158 42.0179,38.0491 43.5,27.5 Z"/></g>
<g><path style="opacity:1" fill="#171818" d="M 93.5,34.5 C 95.2252,34.8425 95.7252,35.8425 95,37.5C 93.2228,39.7899 91.0562,41.4566 88.5,42.5C 87.475,42.1034 87.3083,41.4368 88,40.5C 90.0396,38.6298 91.8729,36.6298 93.5,34.5 Z"/></g>
<g><path style="opacity:0.989" fill="#1a1b1b" d="M 99.5,37.5 C 101.028,37.5173 101.528,38.184 101,39.5C 98.525,42.4946 95.6916,44.8279 92.5,46.5C 93.6547,42.6676 95.988,39.6676 99.5,37.5 Z"/></g>
<g><path style="opacity:0.392" fill="#dfe7e6" d="M 66.5,18.5 C 67.4013,19.2905 68.0679,20.2905 68.5,21.5C 67.1275,29.3014 69.1275,35.9681 74.5,41.5C 75.8567,39.4346 77.19,37.4346 78.5,35.5C 80.8418,34.7893 81.1751,33.456 79.5,31.5C 83.6344,30.5151 87.9677,30.1818 92.5,30.5C 93.791,30.2627 94.791,30.596 95.5,31.5C 94.4489,32.2223 93.7822,33.2223 93.5,34.5C 91.8729,36.6298 90.0396,38.6298 88,40.5C 87.3083,41.4368 87.475,42.1034 88.5,42.5C 91.9829,43.9678 92.3163,46.1345 89.5,49C 90.1667,50.6667 90.8333,52.3333 91.5,54C 99.4053,71.6501 96.9053,88.1501 84,103.5C 82.5128,106.481 81.1794,109.481 80,112.5C 78.935,119.663 77.435,126.663 75.5,133.5C 65.5,133.5 55.5,133.5 45.5,133.5C 45.5,132.5 45.5,131.5 45.5,130.5C 54.2402,132.592 63.2402,133.092 72.5,132C 70.5561,129.847 70.0561,127.347 71,124.5C 72.5725,117.865 74.2391,111.199 76,104.5C 81.6678,99.6519 83.5012,94.3185 81.5,88.5C 84.13,81.099 85.13,73.4323 84.5,65.5C 84.2671,63.9382 83.6005,62.6049 82.5,61.5C 84.4109,61.5743 85.5776,62.5743 86,64.5C 86.3333,70.8333 86.6667,77.1667 87,83.5C 89.7515,84.858 90.2515,84.1913 88.5,81.5C 89.9175,79.2907 91.0842,76.9574 92,74.5C 92.2492,75.624 92.7492,76.624 93.5,77.5C 95.2658,69.086 93.2658,61.4194 87.5,54.5C 86.6689,52.5269 86.5022,50.5269 87,48.5C 87.6543,49.6956 88.1543,49.6956 88.5,48.5C 84.3148,41.0252 80.4815,41.0252 77,48.5C 74.3905,48.3468 72.0571,47.0135 70,44.5C 69.0891,40.099 67.5891,35.9324 65.5,32C 68.1557,28.6854 68.1557,25.3521 65.5,22C 65.9891,20.8615 66.3225,19.6948 66.5,18.5 Z"/></g>
<g><path style="opacity:0.994" fill="#1b1c1c" d="M 86.5,33.5 C 87.675,33.281 88.675,33.6143 89.5,34.5C 88.2418,37.4995 86.2418,38.4995 83.5,37.5C 84.5244,36.1482 85.5244,34.8149 86.5,33.5 Z"/></g>
<g><path style="opacity:0.572" fill="#ebf3f3" d="M 66.5,18.5 C 66.3225,19.6948 65.9891,20.8615 65.5,22C 68.1557,25.3521 68.1557,28.6854 65.5,32C 67.5891,35.9324 69.0891,40.099 70,44.5C 72.0571,47.0135 74.3905,48.3468 77,48.5C 80.4815,41.0252 84.3148,41.0252 88.5,48.5C 88.1543,49.6956 87.6543,49.6956 87,48.5C 86.5022,50.5269 86.6689,52.5269 87.5,54.5C 93.2658,61.4194 95.2658,69.086 93.5,77.5C 92.7492,76.624 92.2492,75.624 92,74.5C 91.0842,76.9574 89.9175,79.2907 88.5,81.5C 90.2515,84.1913 89.7515,84.858 87,83.5C 86.6667,77.1667 86.3333,70.8333 86,64.5C 85.5776,62.5743 84.4109,61.5743 82.5,61.5C 82.0844,59.2475 80.751,57.7475 78.5,57C 75.5738,56.7822 72.7405,56.2822 70,55.5C 69.2496,56.1258 68.4162,56.6258 67.5,57C 66.0767,67.0126 61.41,75.1793 53.5,81.5C 52.3739,83.7931 51.0406,85.9597 49.5,88C 44.6347,91.0597 39.968,94.2264 35.5,97.5C 35.1667,97.5 34.8333,97.5 34.5,97.5C 31.7173,99.0665 29.0507,100.9 26.5,103C 22.2756,104.45 19.7756,102.95 19,98.5C 18.3333,95.5 18.3333,92.5 19,89.5C 24.0814,80.335 29.4148,71.335 35,62.5C 37.7511,48.4043 45.7511,38.4043 59,32.5C 60.9374,28.3543 62.2707,24.021 63,19.5C 64.0113,18.6634 65.1779,18.33 66.5,18.5 Z"/></g>
<g><path style="opacity:0.993" fill="#1a1b1b" d="M 52.5,49.5 C 55.5959,48.9066 57.9292,49.9066 59.5,52.5C 57.7534,55.2512 55.42,57.2512 52.5,58.5C 50.5393,57.9206 49.5393,56.5872 49.5,54.5C 50.0924,52.5775 51.0924,50.9108 52.5,49.5 Z"/></g>
<g><path style="opacity:0.639" fill="#d4dddd" d="M 53.5,52.5 C 55.6569,53.0533 55.4903,54.0533 53,55.5C 52.5304,54.4232 52.6971,53.4232 53.5,52.5 Z"/></g>
<g><path style="opacity:0.517" fill="#b0b4b4" d="M 99.5,37.5 C 101.873,36.8049 104.206,36.4716 106.5,36.5C 117.678,45.8361 124.511,57.8361 127,72.5C 128.936,84.4264 130.103,96.4264 130.5,108.5C 130.67,117.112 129.67,125.446 127.5,133.5C 127.341,126.071 127.341,118.737 127.5,111.5C 126.575,107.402 124.908,103.735 122.5,100.5C 125.297,100.033 126.631,98.3667 126.5,95.5C 127.097,95.2648 127.43,94.7648 127.5,94C 127.046,91.9701 126.38,90.1368 125.5,88.5C 123.133,87.9488 121.466,89.1155 120.5,92C 120.836,93.0299 121.503,93.5299 122.5,93.5C 122.938,93.4346 123.272,93.6012 123.5,94C 122.376,94.2492 121.376,94.7492 120.5,95.5C 121.246,96.7362 121.579,98.0695 121.5,99.5C 118.402,99.4125 118.068,99.9125 120.5,101C 120.629,108.116 118.295,114.283 113.5,119.5C 111.647,120.76 109.814,120.76 108,119.5C 104.439,121.305 100.606,122.639 96.5,123.5C 95.8076,122.975 95.3076,122.308 95,121.5C 94.5518,123.224 93.7185,123.891 92.5,123.5C 93.8909,125.936 93.3909,126.602 91,125.5C 89.117,126.653 88.2837,128.319 88.5,130.5C 87.448,130.351 86.448,130.517 85.5,131C 86.8333,131.333 88.1667,131.667 89.5,132C 86.854,132.497 84.1873,132.664 81.5,132.5C 80.4042,128.587 80.2375,124.587 81,120.5C 86.1474,108.987 91.8141,97.6539 98,86.5C 98.2414,83.7111 98.908,81.0444 100,78.5C 100.667,74.8333 100.667,71.1667 100,67.5C 99.3296,61.5906 98.163,55.924 96.5,50.5C 95.5,48.8333 94.1667,47.5 92.5,46.5C 95.6916,44.8279 98.525,42.4946 101,39.5C 101.528,38.184 101.028,37.5173 99.5,37.5 Z"/></g>
<g><path style="opacity:1" fill="#181919" d="M 117.5,60.5 C 119.355,60.272 120.188,60.9387 120,62.5C 117.318,65.3497 114.484,68.0164 111.5,70.5C 110.417,69.635 110.251,68.635 111,67.5C 113.372,65.2968 115.539,62.9635 117.5,60.5 Z"/></g>
<g><path style="opacity:0.994" fill="#161717" d="M 115.5,54.5 C 117.225,54.8425 117.725,55.8425 117,57.5C 114.833,59.6667 112.667,61.8333 110.5,64C 109.365,64.7494 108.365,64.5827 107.5,63.5C 110.189,60.4802 112.856,57.4802 115.5,54.5 Z"/></g>
<g><path style="opacity:0.99" fill="#181919" d="M 111.5,49.5 C 113.355,49.272 114.188,49.9387 114,51.5C 111.5,54 109,56.5 106.5,59C 105.365,59.7494 104.365,59.5827 103.5,58.5C 106.189,55.4802 108.856,52.4802 111.5,49.5 Z"/></g>
<g><path style="opacity:1" fill="#171818" d="M 108.5,44.5 C 110.355,44.272 111.188,44.9387 111,46.5C 107.985,49.6828 104.818,52.6828 101.5,55.5C 100.417,54.635 100.251,53.635 101,52.5C 103.705,49.9638 106.205,47.2971 108.5,44.5 Z"/></g>
<g><path style="opacity:0.992" fill="#161717" d="M 96.5,50.5 C 98.7433,46.5846 101.743,43.2512 105.5,40.5C 106.583,41.365 106.749,42.365 106,43.5C 103.469,46.8881 100.302,49.2214 96.5,50.5 Z"/></g>
<g><path style="opacity:0.993" fill="#1a1b1b" d="M 119.5,66.5 C 121.225,66.8425 121.725,67.8425 121,69.5C 118.984,71.684 116.817,73.684 114.5,75.5C 113.417,74.635 113.251,73.635 114,72.5C 116.04,70.6298 117.873,68.6298 119.5,66.5 Z"/></g>
<g><path style="opacity:0.451" fill="#ccd1d1" d="M 82.5,61.5 C 83.6005,62.6049 84.2671,63.9382 84.5,65.5C 82.3941,63.7284 80.7274,61.5617 79.5,59C 78.255,58.2086 76.9217,57.7086 75.5,57.5C 73.9519,57.8212 73.2852,58.8212 73.5,60.5C 73.6309,61.3764 73.2975,62.0431 72.5,62.5C 71.3914,61.4104 70.3914,61.4104 69.5,62.5C 67.6042,67.9311 65.4376,73.2644 63,78.5C 61.6811,80.4875 59.8477,81.6541 57.5,82C 54.8782,84.9923 52.2115,87.9923 49.5,91C 44.7334,93.438 40.2334,96.2713 36,99.5C 35.5357,98.9056 35.369,98.2389 35.5,97.5C 39.968,94.2264 44.6347,91.0597 49.5,88C 51.0406,85.9597 52.3739,83.7931 53.5,81.5C 61.41,75.1793 66.0767,67.0126 67.5,57C 68.4162,56.6258 69.2496,56.1258 70,55.5C 72.7405,56.2822 75.5738,56.7822 78.5,57C 80.751,57.7475 82.0844,59.2475 82.5,61.5 Z"/></g>
<g><path style="opacity:0.526" fill="#b4b9b9" d="M 75.5,57.5 C 76.9217,57.7086 78.255,58.2086 79.5,59C 80.7274,61.5617 82.3941,63.7284 84.5,65.5C 85.13,73.4323 84.13,81.099 81.5,88.5C 79.0948,89.3981 77.0948,90.8981 75.5,93C 74.2068,93.49 72.8734,93.6567 71.5,93.5C 73.7706,91.7341 75.9373,89.7341 78,87.5C 77.8054,81.4546 77.9721,75.4546 78.5,69.5C 78.7178,65.1611 77.7178,61.1611 75.5,57.5 Z"/></g>
<g><path style="opacity:0.995" fill="#141515" d="M 121.5,73.5 C 123.225,73.8425 123.725,74.8425 123,76.5C 121.611,78.2273 119.944,79.5606 118,80.5C 117.5,80.1667 117,79.8333 116.5,79.5C 118.19,77.4807 119.856,75.4807 121.5,73.5 Z"/></g>
<g><path style="opacity:1" fill="#141515" d="M 122.5,80.5 C 124.225,80.8425 124.725,81.8425 124,83.5C 122.677,86.0586 120.843,86.7253 118.5,85.5C 119.857,83.8144 121.19,82.1477 122.5,80.5 Z"/></g>
<g><path style="opacity:0.516" fill="#ccd2d2" d="M 95.5,31.5 C 99.548,32.3579 103.215,34.0245 106.5,36.5C 104.206,36.4716 101.873,36.8049 99.5,37.5C 95.988,39.6676 93.6547,42.6676 92.5,46.5C 94.1667,47.5 95.5,48.8333 96.5,50.5C 98.163,55.924 99.3296,61.5906 100,67.5C 100.667,71.1667 100.667,74.8333 100,78.5C 98.908,81.0444 98.2414,83.7111 98,86.5C 91.8141,97.6539 86.1474,108.987 81,120.5C 80.2375,124.587 80.4042,128.587 81.5,132.5C 81.5,132.833 81.5,133.167 81.5,133.5C 79.5,133.5 77.5,133.5 75.5,133.5C 77.435,126.663 78.935,119.663 80,112.5C 81.1794,109.481 82.5128,106.481 84,103.5C 96.9053,88.1501 99.4053,71.6501 91.5,54C 90.8333,52.3333 90.1667,50.6667 89.5,49C 92.3163,46.1345 91.9829,43.9678 88.5,42.5C 91.0562,41.4566 93.2228,39.7899 95,37.5C 95.7252,35.8425 95.2252,34.8425 93.5,34.5C 93.7822,33.2223 94.4489,32.2223 95.5,31.5 Z"/></g>
<g><path style="opacity:0.992" fill="#191a1a" d="M 125.5,88.5 C 124.925,90.4113 123.925,92.078 122.5,93.5C 121.503,93.5299 120.836,93.0299 120.5,92C 121.466,89.1155 123.133,87.9488 125.5,88.5 Z"/></g>
<g><path style="opacity:0.994" fill="#1e1f1f" d="M 24.5,89.5 C 25.9953,89.4148 26.9953,90.0815 27.5,91.5C 26.2418,94.4995 24.2418,95.4995 21.5,94.5C 22.9524,93.0603 23.9524,91.3936 24.5,89.5 Z"/></g>
<g><path style="opacity:0.994" fill="#232525" d="M 126.5,95.5 C 126.631,98.3667 125.297,100.033 122.5,100.5C 122.197,97.4124 123.53,95.7458 126.5,95.5 Z"/></g>
<g><path style="opacity:0.561" fill="#acb3b3" d="M 73.5,60.5 C 76.0653,66.273 76.0653,72.1063 73.5,78C 60.8333,88 48.1667,98 35.5,108C 32.7629,109.08 31.0963,108.246 30.5,105.5C 32.3032,103.041 33.6365,100.374 34.5,97.5C 34.8333,97.5 35.1667,97.5 35.5,97.5C 35.369,98.2389 35.5357,98.9056 36,99.5C 40.2334,96.2713 44.7334,93.438 49.5,91C 52.2115,87.9923 54.8782,84.9923 57.5,82C 59.8477,81.6541 61.6811,80.4875 63,78.5C 65.4376,73.2644 67.6042,67.9311 69.5,62.5C 70.3914,61.4104 71.3914,61.4104 72.5,62.5C 73.2975,62.0431 73.6309,61.3764 73.5,60.5 Z"/></g>
<g><path style="opacity:0.793" fill="#f1f7f7" d="M 81.5,88.5 C 83.5012,94.3185 81.6678,99.6519 76,104.5C 74.2391,111.199 72.5725,117.865 71,124.5C 70.0561,127.347 70.5561,129.847 72.5,132C 63.2402,133.092 54.2402,132.592 45.5,130.5C 44.5302,124.134 46.0302,118.467 50,113.5C 56.0815,105.582 63.2482,98.9156 71.5,93.5C 72.8734,93.6567 74.2068,93.49 75.5,93C 77.0948,90.8981 79.0948,89.3981 81.5,88.5 Z"/></g>
<g><path style="opacity:0.59" fill="#a9b3b3" d="M 125.5,88.5 C 126.38,90.1368 127.046,91.9701 127.5,94C 127.43,94.7648 127.097,95.2648 126.5,95.5C 123.53,95.7458 122.197,97.4124 122.5,100.5C 124.908,103.735 126.575,107.402 127.5,111.5C 127.341,118.737 127.341,126.071 127.5,133.5C 112.167,133.5 96.8333,133.5 81.5,133.5C 81.5,133.167 81.5,132.833 81.5,132.5C 84.1873,132.664 86.854,132.497 89.5,132C 88.1667,131.667 86.8333,131.333 85.5,131C 86.448,130.517 87.448,130.351 88.5,130.5C 88.2837,128.319 89.117,126.653 91,125.5C 93.3909,126.602 93.8909,125.936 92.5,123.5C 93.7185,123.891 94.5518,123.224 95,121.5C 95.3076,122.308 95.8076,122.975 96.5,123.5C 100.606,122.639 104.439,121.305 108,119.5C 109.814,120.76 111.647,120.76 113.5,119.5C 118.295,114.283 120.629,108.116 120.5,101C 118.068,99.9125 118.402,99.4125 121.5,99.5C 121.579,98.0695 121.246,96.7362 120.5,95.5C 121.376,94.7492 122.376,94.2492 123.5,94C 123.272,93.6012 122.938,93.4346 122.5,93.5C 123.925,92.078 124.925,90.4113 125.5,88.5 Z"/></g>
</svg>
