<?xml version="1.0" encoding="UTF-8"?>
<!DOCTYPE svg PUBLIC "-//W3C//DTD SVG 1.1//EN" "http://www.w3.org/Graphics/SVG/1.1/DTD/svg11.dtd">
<svg xmlns="http://www.w3.org/2000/svg" version="1.1" width="150px" height="150px" style="shape-rendering:geometricPrecision; text-rendering:geometricPrecision; image-rendering:optimizeQuality; fill-rule:evenodd; clip-rule:evenodd" xmlns:xlink="http://www.w3.org/1999/xlink">
<g><path style="opacity:0.775" fill="#0f0f0f" d="M 71.5,17.5 C 81.6507,17.4825 86.484,22.4825 86,32.5C 85.3936,35.5478 83.8936,38.0478 81.5,40C 85.1456,43.6401 87.979,47.8067 90,52.5C 95.7608,47.0292 102.594,45.1958 110.5,47C 132.678,54.8525 139.511,69.6858 131,91.5C 126.517,97.5786 120.851,102.245 114,105.5C 113.667,112.833 113.333,120.167 113,127.5C 108.441,131.915 102.941,134.415 96.5,135C 76.8094,138.665 57.476,137.331 38.5,131C 37.3333,129.833 36.1667,128.667 35,127.5C 34.6667,120.167 34.3333,112.833 34,105.5C 11.6656,93.8018 7.33226,77.4685 21,56.5C 32.2959,45.3387 44.7959,43.672 58.5,51.5C 60.5472,47.2401 63.2139,43.4067 66.5,40C 59.3263,30.6632 60.9929,23.1632 71.5,17.5 Z"/></g>
<g><path style="opacity:0.718" fill="#e4ebeb" d="M 78.5,22.5 C 76.5731,27.6174 76.5731,32.6174 78.5,37.5C 71.1052,40.1393 66.7719,37.6393 65.5,30C 66.7719,22.3607 71.1052,19.8607 78.5,22.5 Z"/></g>
<g><path style="opacity:0.522" fill="#a0b4b4" d="M 78.5,22.5 C 82.7041,26.0613 83.5375,30.3946 81,35.5C 80.2917,36.3805 79.4584,37.0472 78.5,37.5C 76.5731,32.6174 76.5731,27.6174 78.5,22.5 Z"/></g>
<g><path style="opacity:0.792" fill="#eef3f3" d="M 74.5,41.5 C 75.8284,42.5072 76.8284,43.8405 77.5,45.5C 76.4361,50.4449 75.6027,55.4449 75,60.5C 73.8846,65.6452 70.7179,67.6452 65.5,66.5C 59.4672,57.8494 60.4672,50.0161 68.5,43C 70.3453,41.872 72.3453,41.372 74.5,41.5 Z"/></g>
<g><path style="opacity:0.658" fill="#eff5f5" d="M 56.5,55.5 C 56.4894,57.0174 55.8228,58.1841 54.5,59C 55.5733,60.2504 55.5733,61.5838 54.5,63C 54.9884,64.584 55.9884,65.7506 57.5,66.5C 56.4047,72.5041 54.238,78.8374 51,85.5C 48.9287,86.3639 47.262,87.6972 46,89.5C 45.6667,89.1667 45.3333,88.8333 45,88.5C 44.5348,89.9308 43.7014,91.0975 42.5,92C 43.4158,92.2784 44.0825,92.7784 44.5,93.5C 40.7041,95.8106 37.2041,98.4772 34,101.5C 15.708,91.936 11.708,78.2694 22,60.5C 30.2539,50.5232 40.4206,47.6899 52.5,52C 54.0931,52.9487 55.4264,54.1154 56.5,55.5 Z"/></g>
<g><path style="opacity:0.611" fill="#eef4f3" d="M 124.5,59.5 C 124.179,61.0481 123.179,61.7148 121.5,61.5C 119.496,64.8564 117.996,68.5231 117,72.5C 115.533,75.2664 113.7,77.7664 111.5,80C 104.453,84.0284 97.1197,87.1951 89.5,89.5C 85.181,88.9645 80.8477,88.4645 76.5,88C 80.129,79.9065 83.629,71.7399 87,63.5C 90.723,52.7213 98.223,48.2213 109.5,50C 115.547,51.6804 120.547,54.8471 124.5,59.5 Z"/></g>
<g><path style="opacity:0.478" fill="#ced4d4" d="M 74.5,41.5 C 78.1407,41.6516 80.8073,43.3182 82.5,46.5C 81.8611,48.7604 80.6945,50.7604 79,52.5C 79.0987,61.4002 76.5987,69.4002 71.5,76.5C 72.9884,78.8857 72.6551,79.5524 70.5,78.5C 68.8333,74.5 67.1667,70.5 65.5,66.5C 70.7179,67.6452 73.8846,65.6452 75,60.5C 75.6027,55.4449 76.4361,50.4449 77.5,45.5C 76.8284,43.8405 75.8284,42.5072 74.5,41.5 Z"/></g>
<g><path style="opacity:0.483" fill="#b4b9b9" d="M 82.5,46.5 C 85.9746,50.1419 87.1412,54.4753 86,59.5C 81.7254,68.3821 77.7254,77.3821 74,86.5C 72.9167,83.7334 71.75,81.0668 70.5,78.5C 72.6551,79.5524 72.9884,78.8857 71.5,76.5C 76.5987,69.4002 79.0987,61.4002 79,52.5C 80.6945,50.7604 81.8611,48.7604 82.5,46.5 Z"/></g>
<g><path style="opacity:0.459" fill="#cfd2d2" d="M 56.5,55.5 C 61.8648,65.8936 66.8648,76.5603 71.5,87.5C 62.2531,88.5394 53.2531,90.5394 44.5,93.5C 44.0825,92.7784 43.4158,92.2784 42.5,92C 43.7014,91.0975 44.5348,89.9308 45,88.5C 45.3333,88.8333 45.6667,89.1667 46,89.5C 47.262,87.6972 48.9287,86.3639 51,85.5C 54.238,78.8374 56.4047,72.5041 57.5,66.5C 55.9884,65.7506 54.9884,64.584 54.5,63C 55.5733,61.5838 55.5733,60.2504 54.5,59C 55.8228,58.1841 56.4894,57.0174 56.5,55.5 Z"/></g>
<g><path style="opacity:0.553" fill="#abb5b5" d="M 125.5,60.5 C 131.144,66.6975 132.978,74.0309 131,82.5C 128.14,91.3595 122.473,97.6928 114,101.5C 112.522,100.022 111.022,98.5218 109.5,97C 104.773,94.7146 100.107,92.548 95.5,90.5C 95.4701,89.5028 95.9701,88.8361 97,88.5C 101.146,86.5626 105.479,85.2293 110,84.5C 112.32,81.8413 115.154,80.008 118.5,79C 119.746,74.86 120.912,70.36 122,65.5C 123.802,64.2107 124.969,62.5441 125.5,60.5 Z"/></g>
<g><path style="opacity:0.478" fill="#cbd0d0" d="M 124.5,59.5 C 125.167,59.5 125.5,59.8333 125.5,60.5C 124.969,62.5441 123.802,64.2107 122,65.5C 120.912,70.36 119.746,74.86 118.5,79C 115.154,80.008 112.32,81.8413 110,84.5C 105.479,85.2293 101.146,86.5626 97,88.5C 95.9701,88.8361 95.4701,89.5028 95.5,90.5C 93.2646,90.7947 91.2646,90.4614 89.5,89.5C 97.1197,87.1951 104.453,84.0284 111.5,80C 113.7,77.7664 115.533,75.2664 117,72.5C 117.996,68.5231 119.496,64.8564 121.5,61.5C 123.179,61.7148 124.179,61.0481 124.5,59.5 Z"/></g>
<g><path style="opacity:0.54" fill="#f5f7f7" d="M 92.5,93.5 C 90.6294,94.8538 88.9627,96.5205 87.5,98.5C 87.2343,101.345 86.2343,103.678 84.5,105.5C 72.6223,104.736 60.9556,105.903 49.5,109C 47.6803,109.2 46.347,110.034 45.5,111.5C 43.0122,116.509 40.6788,121.509 38.5,126.5C 37.3439,118.677 37.1772,110.677 38,102.5C 40.1387,99.9991 42.6387,97.8324 45.5,96C 60.9086,91.0128 76.5753,90.1795 92.5,93.5 Z"/></g>
<g><path style="opacity:0.455" fill="#d7dada" d="M 92.5,93.5 C 95.5482,94.3456 98.5482,95.3456 101.5,96.5C 96.5332,98.0272 93.8665,101.194 93.5,106C 92.2068,106.49 90.8734,106.657 89.5,106.5C 87.5853,106.784 85.9187,106.451 84.5,105.5C 86.2343,103.678 87.2343,101.345 87.5,98.5C 88.9627,96.5205 90.6294,94.8538 92.5,93.5 Z"/></g>
<g><path style="opacity:0.994" fill="#1a1a1a" d="M 84.5,105.5 C 85.9187,106.451 87.5853,106.784 89.5,106.5C 93.8461,107.952 98.1794,109.618 102.5,111.5C 97.4411,111.894 92.4411,111.227 87.5,109.5C 73.7576,107.462 60.2576,108.462 47,112.5C 46.2352,112.43 45.7352,112.097 45.5,111.5C 46.347,110.034 47.6803,109.2 49.5,109C 60.9556,105.903 72.6223,104.736 84.5,105.5 Z"/></g>
<g><path style="opacity:0.549" fill="#adb7b6" d="M 101.5,96.5 C 105.038,97.5429 107.871,99.5429 110,102.5C 110.832,110.521 110.665,118.521 109.5,126.5C 97.9969,132.059 85.8303,134.393 73,133.5C 68.3205,133.499 63.8205,133.166 59.5,132.5C 65.5933,132.861 71.5933,132.361 77.5,131C 76.5494,130.282 76.3828,129.449 77,128.5C 78.1131,129.711 79.2798,129.711 80.5,128.5C 82.7855,126.387 84.4522,123.887 85.5,121C 87.3817,120.802 89.0484,120.302 90.5,119.5C 92.0418,120.301 93.7085,120.634 95.5,120.5C 95.5,119.5 95.5,118.5 95.5,117.5C 91.0146,116.66 86.6813,115.66 82.5,114.5C 85.2552,114.037 86.9219,112.37 87.5,109.5C 92.4411,111.227 97.4411,111.894 102.5,111.5C 98.1794,109.618 93.8461,107.952 89.5,106.5C 90.8734,106.657 92.2068,106.49 93.5,106C 93.8665,101.194 96.5332,98.0272 101.5,96.5 Z"/></g>
<g><path style="opacity:0.994" fill="#191a1a" d="M 82.5,114.5 C 86.6813,115.66 91.0146,116.66 95.5,117.5C 95.5,118.5 95.5,119.5 95.5,120.5C 93.7085,120.634 92.0418,120.301 90.5,119.5C 78.3692,116.564 66.3692,116.897 54.5,120.5C 53.1667,119.5 53.1667,118.5 54.5,117.5C 63.6217,114.825 72.955,113.825 82.5,114.5 Z"/></g>
<g><path style="opacity:0.634" fill="#e6eded" d="M 87.5,109.5 C 86.9219,112.37 85.2552,114.037 82.5,114.5C 72.955,113.825 63.6217,114.825 54.5,117.5C 53.1667,118.5 53.1667,119.5 54.5,120.5C 66.3692,116.897 78.3692,116.564 90.5,119.5C 89.0484,120.302 87.3817,120.802 85.5,121C 84.4522,123.887 82.7855,126.387 80.5,128.5C 79.2798,129.711 78.1131,129.711 77,128.5C 76.3828,129.449 76.5494,130.282 77.5,131C 71.5933,132.361 65.5933,132.861 59.5,132.5C 51.8324,132.496 44.8324,130.496 38.5,126.5C 40.6788,121.509 43.0122,116.509 45.5,111.5C 45.7352,112.097 46.2352,112.43 47,112.5C 60.2576,108.462 73.7576,107.462 87.5,109.5 Z"/></g>
</svg>
